SplineFontDB: 3.2
FontName: ArialRoundedMT-ExtraBold
FullName: Arial Rounded MT ExtraBold
FamilyName: Arial Rounded MT
Weight: Heavy
Copyright: Copyright (c) 1991 Adobe Systems Incorporated.  All Rights Reserved.Arial is a registered trademark of The Monotype Corporation plc.
Version: 1.3
ItalicAngle: 0
UnderlinePosition: -125
UnderlineWidth: 50
Ascent: 800
Descent: 200
InvalidEm: 0
sfntRevision: 0x00010003
LayerCount: 2
Layer: 0 1 "Back" 1
Layer: 1 1 "Fore" 0
XUID: [1021 56 -729070988 30702]
StyleMap: 0x0020
FSType: 0
OS2Version: 1
OS2_WeightWidthSlopeOnly: 0
OS2_UseTypoMetrics: 0
CreationTime: 955441100
ModificationTime: 1735412032
PfmFamily: 17
TTFWeight: 800
TTFWidth: 5
LineGap: 0
VLineGap: 0
Panose: 2 0 9 3 5 0 0 2 0 4
OS2TypoAscent: 728
OS2TypoAOffset: 0
OS2TypoDescent: -200
OS2TypoDOffset: 0
OS2TypoLinegap: 70
OS2WinAscent: 956
OS2WinAOffset: 0
OS2WinDescent: 210
OS2WinDOffset: 0
HheadAscent: 956
HheadAOffset: 0
HheadDescent: -210
HheadDOffset: 0
OS2SubXSize: 204
OS2SubYSize: 204
OS2SubXOff: 0
OS2SubYOff: 286
OS2SupXSize: 204
OS2SupYSize: 204
OS2SupXOff: 0
OS2SupYOff: 286
OS2StrikeYSize: 102
OS2StrikeYPos: 512
OS2Vendor: 'pyrs'
OS2CodePages: 00000001.00000000
OS2UnicodeRanges: 80000027.00000000.00000000.00000000
Lookup: 258 0 0 "'kern' Horizontal Kerning in Latin lookup 0" { "'kern' Horizontal Kerning in Latin lookup 0 subtable"  } ['kern' ('latn' <'dflt' > ) ]
DEI: 91125
TtTable: prep
PUSHW_4
 0
 4
 2
 0
CALL
CALL
PUSHW_6
 2
 27
 21
 15
 9
 8
CALL
PUSHW_6
 3
 25
 20
 14
 9
 8
CALL
PUSHW_6
 0
 37
 29
 21
 13
 8
CALL
PUSHW_6
 1
 32
 25
 18
 11
 8
CALL
PUSHW_3
 4
 6
 7
CALL
EndTTInstrs
TtTable: fpgm
PUSHW_1
 0
FDEF
MPPEM
PUSHW_1
 9
LT
IF
PUSHB_2
 1
 1
INSTCTRL
EIF
PUSHW_1
 511
SCANCTRL
PUSHW_1
 132
SCVTCI
PUSHW_2
 9
 3
SDS
SDB
ENDF
PUSHW_1
 1
FDEF
DUP
DUP
RCVT
ROUND[Black]
WCVTP
PUSHB_1
 1
ADD
ENDF
PUSHW_1
 2
FDEF
PUSHW_1
 1
LOOPCALL
POP
ENDF
PUSHW_1
 3
FDEF
DUP
GC[cur]
PUSHB_1
 3
CINDEX
GC[cur]
GT
IF
SWAP
EIF
DUP
ROLL
DUP
ROLL
MD[grid]
ABS
ROLL
DUP
GC[cur]

StartChar: exclam
Encoding: 33 33 3
Width: 333
GlyphClass: 1
Flags: W
LayerCount: 2
Fore
SplineSet
250 519 m 2,0,1
 253 548 253 548 255 579.5 c 128,-1,2
 257 611 257 611 257 626 c 0,3,4
 257 632 257 632 255 648.5 c 128,-1,5
 253 665 253 665 245 683 c 128,-1,6
 237 701 237 701 219 714.5 c 128,-1,7
 201 728 201 728 170 728 c 0,8,9
 132 728 132 728 104 703.5 c 128,-1,10
 76 679 76 679 76 632 c 0,11,12
 76 627 76 627 76.5 614 c 128,-1,13
 77 601 77 601 78 586 c 128,-1,14
 79 571 79 571 80 558 c 128,-1,15
 81 545 81 545 81 539 c 2,16,-1
 98 348 l 2,17,18
 104 278 104 278 118.5 244.5 c 128,-1,19
 133 211 133 211 169 211 c 0,20,21
 187 211 187 211 198 217 c 128,-1,22
 209 223 209 223 215.5 238 c 128,-1,23
 222 253 222 253 226 279.5 c 128,-1,24
 230 306 230 306 234 348 c 2,25,-1
 250 519 l 2,0,1
253 75 m 256,26,27
 253 111 253 111 227.5 136.5 c 128,-1,28
 202 162 202 162 166 162 c 256,29,30
 130 162 130 162 104.5 136.5 c 128,-1,31
 79 111 79 111 79 75 c 256,32,33
 79 39 79 39 104.5 13.5 c 128,-1,34
 130 -12 130 -12 166 -12 c 256,35,36
 202 -12 202 -12 227.5 13.5 c 128,-1,37
 253 39 253 39 253 75 c 256,26,27
EndSplineSet
Validated: 9
EndChar

StartChar: quotedbl
Encoding: 34 34 4
Width: 490
GlyphClass: 1
Flags: W
LayerCount: 2
Fore
SplineSet
306 457 m 1,0,-1
 424 457 l 1,1,-1
 451 596 l 1,2,-1
 451 716 l 1,3,-1
 277 716 l 1,4,-1
 277 596 l 1,5,-1
 306 457 l 1,0,-1
68 457 m 1,6,-1
 186 457 l 1,7,-1
 213 596 l 1,8,-1
 213 716 l 1,9,-1
 39 716 l 1,10,-1
 39 596 l 1,11,-1
 68 457 l 1,6,-1
EndSplineSet
Validated: 9
EndChar

StartChar: numbersign
Encoding: 35 35 5
Width: 604
GlyphClass: 1
Flags: W
LayerCount: 2
Fore
SplineSet
111 290 m 1,0,1
 93 290 93 290 78 289.5 c 128,-1,2
 63 289 63 289 49 282 c 0,3,4
 38 277 38 277 28.5 262.5 c 128,-1,5
 19 248 19 248 19 230 c 0,6,7
 19 209 19 209 27 197.5 c 128,-1,8
 35 186 35 186 46.5 180 c 128,-1,9
 58 174 58 174 69 172 c 128,-1,10
 80 170 80 170 86 169 c 1,11,-1
 72 99 l 2,12,13
 67 74 67 74 65.5 64.5 c 128,-1,14
 64 55 64 55 64 45 c 0,15,16
 64 22 64 22 80 5 c 128,-1,17
 96 -12 96 -12 126 -12 c 0,18,19
 144 -12 144 -12 155 -5.5 c 128,-1,20
 166 1 166 1 173 12.5 c 128,-1,21
 180 24 180 24 184 40 c 128,-1,22
 188 56 188 56 192 75 c 2,23,-1
 210 169 l 1,24,-1
 318 169 l 1,25,-1
 304 99 l 2,26,27
 299 74 299 74 297.5 64.5 c 128,-1,28
 296 55 296 55 296 45 c 0,29,30
 296 22 296 22 312.5 5 c 128,-1,31
 329 -12 329 -12 358 -12 c 0,32,33
 376 -12 376 -12 387 -5.5 c 128,-1,34
 398 1 398 1 405 12.5 c 128,-1,35
 412 24 412 24 416 40 c 128,-1,36
 420 56 420 56 424 75 c 2,37,-1
 442 169 l 1,38,-1
 485 169 l 2,39,40
 517 169 517 169 536 171 c 128,-1,41
 555 173 555 173 567 185 c 0,42,43
 586 204 586 204 586 230 c 0,44,45
 586 246 586 246 579.5 257 c 128,-1,46
 573 268 573 268 567 275 c 0,47,48
 555 287 555 287 536 288.5 c 128,-1,49
 517 290 517 290 485 290 c 2,50,-1
 466 290 l 1,51,-1
 493 424 l 1,52,53
 511 424 511 424 526 424.5 c 128,-1,54
 541 425 541 425 555 432 c 0,55,56
 567 437 567 437 576.5 451.5 c 128,-1,57
 586 466 586 466 586 485 c 0,58,59
 586 517 586 517 566 530 c 128,-1,60
 546 543 546 543 517 545 c 1,61,-1
 531 615 l 2,62,63
 536 640 536 640 537 647.5 c 128,-1,64
 538 655 538 655 538 664 c 0,65,66
 538 692 538 692 522.5 710 c 128,-1,67
 507 728 507 728 480 728 c 0,68,69
 461 728 461 728 449 720.5 c 128,-1,70
 437 713 437 713 430 701 c 128,-1,71
 423 689 423 689 419 673 c 128,-1,72
 415 657 415 657 412 639 c 2,73,-1
 393 545 l 1,74,-1
 286 545 l 1,75,-1
 300 615 l 2,76,77
 305 640 305 640 306 647.5 c 128,-1,78
 307 655 307 655 307 664 c 0,79,80
 307 693 307 693 291 710.5 c 128,-1,81
 275 728 275 728 249 728 c 0,82,83
 230 728 230 728 218 720.5 c 128,-1,84
 206 713 206 713 198.5 701 c 128,-1,85
 191 689 191 689 187 673 c 128,-1,86
 183 657 183 657 180 639 c 2,87,-1
 162 545 l 1,88,-1
 120 545 l 2,89,90
 88 545 88 545 69 543 c 128,-1,91
 50 541 50 541 38 529 c 0,92,93
 19 510 19 510 19 484 c 0,94,95
 19 469 19 469 25 458 c 128,-1,96
 31 447 31 447 38 440 c 0,97,98
 50 428 50 428 68.5 426 c 128,-1,99
 87 424 87 424 120 424 c 2,100,-1
 137 424 l 1,101,-1
 111 290 l 1,0,1
261 424 m 1,102,-1
 370 424 l 1,103,-1
 343 290 l 1,104,-1
 235 290 l 1,105,-1
 261 424 l 1,102,-1
EndSplineSet
Validated: 9
EndChar

StartChar: dollar
Encoding: 36 36 6
Width: 615
GlyphClass: 1
Flags: W
LayerCount: 2
Fore
SplineSet
342 -10 m 1,0,1
 399 -7 399 -7 443 14 c 128,-1,2
 487 35 487 35 516 66.5 c 128,-1,3
 545 98 545 98 560 137 c 128,-1,4
 575 176 575 176 575 216 c 0,5,6
 575 275 575 275 551.5 313.5 c 128,-1,7
 528 352 528 352 493 376.5 c 128,-1,8
 458 401 458 401 417 415 c 128,-1,9
 376 429 376 429 342 440 c 1,10,-1
 342 605 l 1,11,12
 356 603 356 603 370.5 588 c 128,-1,13
 385 573 385 573 399 537 c 0,14,15
 403 525 403 525 409 513 c 128,-1,16
 415 501 415 501 423.5 492 c 128,-1,17
 432 483 432 483 445 477.5 c 128,-1,18
 458 472 458 472 476 472 c 256,19,20
 494 472 494 472 508 479 c 128,-1,21
 522 486 522 486 532 496.5 c 128,-1,22
 542 507 542 507 547 520 c 128,-1,23
 552 533 552 533 552 544 c 0,24,25
 552 578 552 578 533.5 611 c 128,-1,26
 515 644 515 644 489 667 c 0,27,28
 450 701 450 701 410 711 c 128,-1,29
 370 721 370 721 342 724 c 1,30,-1
 342 776 l 2,31,32
 342 782 342 782 341.5 789.5 c 128,-1,33
 341 797 341 797 337.5 803.5 c 128,-1,34
 334 810 334 810 326 814.5 c 128,-1,35
 318 819 318 819 304 819 c 0,36,37
 292 819 292 819 285 814 c 128,-1,38
 278 809 278 809 275 802 c 128,-1,39
 272 795 272 795 271 787 c 128,-1,40
 270 779 270 779 270 774 c 2,41,-1
 270 724 l 1,42,43
 205 718 205 718 163.5 696 c 128,-1,44
 122 674 122 674 98.5 644 c 128,-1,45
 75 614 75 614 66 580.5 c 128,-1,46
 57 547 57 547 57 519 c 0,47,48
 57 460 57 460 80 422.5 c 128,-1,49
 103 385 103 385 136 361.5 c 128,-1,50
 169 338 169 338 206 324.5 c 128,-1,51
 243 311 243 311 270 301 c 1,52,-1
 270 114 l 1,53,54
 248 124 248 124 234.5 137.5 c 128,-1,55
 221 151 221 151 213.5 163.5 c 128,-1,56
 206 176 206 176 203 186.5 c 128,-1,57
 200 197 200 197 199 200 c 0,58,59
 191 233 191 233 172.5 255.5 c 128,-1,60
 154 278 154 278 117 278 c 0,61,62
 98 278 98 278 83 270.5 c 128,-1,63
 68 263 68 263 57.5 252 c 128,-1,64
 47 241 47 241 41.5 227.5 c 128,-1,65
 36 214 36 214 36 201 c 0,66,67
 36 178 36 178 43.5 153.5 c 128,-1,68
 51 129 51 129 65.5 105.5 c 128,-1,69
 80 82 80 82 99.5 62 c 128,-1,70
 119 42 119 42 143 27 c 0,71,72
 178 6 178 6 211 -1.5 c 128,-1,73
 244 -9 244 -9 270 -12 c 1,74,-1
 270 -125 l 2,75,76
 270 -154 270 -154 274.5 -172.5 c 128,-1,77
 279 -191 279 -191 306 -191 c 0,78,79
 320 -191 320 -191 331 -183 c 128,-1,80
 342 -175 342 -175 342 -154 c 2,81,-1
 342 -10 l 1,0,1
270 462 m 1,82,83
 261 466 261 466 250.5 471.5 c 128,-1,84
 240 477 240 477 231 485.5 c 128,-1,85
 222 494 222 494 216 506 c 128,-1,86
 210 518 210 518 210 535 c 0,87,88
 210 554 210 554 216.5 567 c 128,-1,89
 223 580 223 580 232.5 588.5 c 128,-1,90
 242 597 242 597 252.5 601.5 c 128,-1,91
 263 606 263 606 270 607 c 1,92,-1
 270 462 l 1,82,83
342 281 m 1,93,94
 351 278 351 278 365 272 c 128,-1,95
 379 266 379 266 392 256.5 c 128,-1,96
 405 247 405 247 414 232 c 128,-1,97
 423 217 423 217 423 195 c 0,98,99
 423 183 423 183 419 169.5 c 128,-1,100
 415 156 415 156 405 144 c 128,-1,101
 395 132 395 132 379.5 122 c 128,-1,102
 364 112 364 112 342 108 c 1,103,-1
 342 281 l 1,93,94
EndSplineSet
Validated: 9
EndChar

StartChar: percent
Encoding: 37 37 7
Width: 896
GlyphClass: 1
Flags: W
LayerCount: 2
Fore
SplineSet
22 535 m 0,0,1
 22 476 22 476 35.5 444.5 c 128,-1,2
 49 413 49 413 68 393 c 0,3,4
 85 376 85 376 112.5 360.5 c 128,-1,5
 140 345 140 345 184 345 c 0,6,7
 215 345 215 345 252 358.5 c 128,-1,8
 289 372 289 372 315 410 c 0,9,10
 331 433 331 433 337.5 464 c 128,-1,11
 344 495 344 495 344 532 c 0,12,13
 344 541 344 541 343 558.5 c 128,-1,14
 342 576 342 576 337.5 597.5 c 128,-1,15
 333 619 333 619 323.5 641 c 128,-1,16
 314 663 314 663 295.5 681.5 c 128,-1,17
 277 700 277 700 249 711.5 c 128,-1,18
 221 723 221 723 180 723 c 0,19,20
 121 723 121 723 89 700 c 128,-1,21
 57 677 57 677 42 646.5 c 128,-1,22
 27 616 27 616 24.5 584.5 c 128,-1,23
 22 553 22 553 22 535 c 0,0,1
135 536 m 0,24,25
 135 599 135 599 145.5 623.5 c 128,-1,26
 156 648 156 648 182 648 c 256,27,28
 208 648 208 648 219.5 625 c 128,-1,29
 231 602 231 602 231 539 c 0,30,31
 231 478 231 478 222 449 c 128,-1,32
 213 420 213 420 182 420 c 0,33,34
 155 420 155 420 145 446 c 128,-1,35
 135 472 135 472 135 536 c 0,24,25
551 184 m 0,36,37
 551 124 551 124 564.5 92.5 c 128,-1,38
 578 61 578 61 598 41 c 0,39,40
 614 24 614 24 642 9 c 128,-1,41
 670 -6 670 -6 713 -6 c 0,42,43
 744 -6 744 -6 781 7.5 c 128,-1,44
 818 21 818 21 844 59 c 0,45,46
 860 82 860 82 866.5 112.5 c 128,-1,47
 873 143 873 143 873 181 c 0,48,49
 873 190 873 190 872 207.5 c 128,-1,50
 871 225 871 225 866.5 246 c 128,-1,51
 862 267 862 267 852.5 289.5 c 128,-1,52
 843 312 843 312 824.5 330.5 c 128,-1,53
 806 349 806 349 778 360.5 c 128,-1,54
 750 372 750 372 709 372 c 0,55,56
 650 372 650 372 618 349 c 128,-1,57
 586 326 586 326 571 295 c 128,-1,58
 556 264 556 264 553.5 232.5 c 128,-1,59
 551 201 551 201 551 184 c 0,36,37
664 186 m 0,60,61
 664 248 664 248 675 272.5 c 128,-1,62
 686 297 686 297 712 297 c 0,63,64
 737 297 737 297 748.5 274 c 128,-1,65
 760 251 760 251 760 188 c 0,66,67
 760 128 760 128 751 98.5 c 128,-1,68
 742 69 742 69 712 69 c 0,69,70
 685 69 685 69 674.5 95 c 128,-1,71
 664 121 664 121 664 186 c 0,60,61
228 54 m 2,72,73
 221 43 221 43 215 30.5 c 128,-1,74
 209 18 209 18 209 5 c 0,75,76
 209 -12 209 -12 219 -19.5 c 128,-1,77
 229 -27 229 -27 241 -27 c 0,78,79
 261 -27 261 -27 272 -14.5 c 128,-1,80
 283 -2 283 -2 291 11 c 2,81,-1
 653 643 l 2,82,83
 659 653 659 653 665.5 666.5 c 128,-1,84
 672 680 672 680 672 693 c 0,85,86
 672 709 672 709 661 717 c 128,-1,87
 650 725 650 725 638 725 c 0,88,89
 627 725 627 725 615.5 717.5 c 128,-1,90
 604 710 604 710 590 686 c 2,91,-1
 228 54 l 2,72,73
EndSplineSet
Validated: 9
EndChar

StartChar: ampersand
Encoding: 38 38 8
Width: 802
GlyphClass: 1
Flags: W
LayerCount: 2
Fore
SplineSet
670 179 m 1,0,1
 672 183 672 183 677.5 195 c 128,-1,2
 683 207 683 207 690 220 c 128,-1,3
 697 233 697 233 702.5 245 c 128,-1,4
 708 257 708 257 710 262 c 0,5,6
 712 270 712 270 717 288 c 128,-1,7
 722 306 722 306 722 322 c 0,8,9
 722 349 722 349 701.5 370 c 128,-1,10
 681 391 681 391 651 391 c 0,11,12
 641 391 641 391 623 385.5 c 128,-1,13
 605 380 605 380 591 357 c 0,14,15
 589 353 589 353 584 341 c 128,-1,16
 579 329 579 329 574 315.5 c 128,-1,17
 569 302 569 302 564.5 290 c 128,-1,18
 560 278 560 278 558 273 c 1,19,20
 549 281 549 281 541.5 288 c 128,-1,21
 534 295 534 295 523.5 307 c 128,-1,22
 513 319 513 319 496 337.5 c 128,-1,23
 479 356 479 356 452 388 c 1,24,25
 477 404 477 404 501.5 421 c 128,-1,26
 526 438 526 438 546 459 c 128,-1,27
 566 480 566 480 578.5 506.5 c 128,-1,28
 591 533 591 533 591 566 c 0,29,30
 591 586 591 586 582.5 613.5 c 128,-1,31
 574 641 574 641 550.5 666.5 c 128,-1,32
 527 692 527 692 485 710 c 128,-1,33
 443 728 443 728 376 728 c 0,34,35
 340 728 340 728 304 721.5 c 128,-1,36
 268 715 268 715 236 697 c 0,37,38
 201 677 201 677 179.5 642.5 c 128,-1,39
 158 608 158 608 158 563 c 0,40,41
 158 521 158 521 177 484 c 128,-1,42
 196 447 196 447 229 408 c 1,43,44
 213 401 213 401 181 383.5 c 128,-1,45
 149 366 149 366 116 332 c 0,46,47
 93 309 93 309 76 273 c 128,-1,48
 59 237 59 237 59 195 c 0,49,50
 59 174 59 174 68 139.5 c 128,-1,51
 77 105 77 105 105.5 71 c 128,-1,52
 134 37 134 37 186.5 12.5 c 128,-1,53
 239 -12 239 -12 326 -12 c 0,54,55
 380 -12 380 -12 420 -3.5 c 128,-1,56
 460 5 460 5 488.5 16.5 c 128,-1,57
 517 28 517 28 535.5 40.5 c 128,-1,58
 554 53 554 53 565 62 c 1,59,60
 569 59 569 59 578.5 52 c 128,-1,61
 588 45 588 45 598.5 36.5 c 128,-1,62
 609 28 609 28 619 21 c 128,-1,63
 629 14 629 14 633 11 c 0,64,65
 655 -3 655 -3 680.5 -16 c 128,-1,66
 706 -29 706 -29 729 -29 c 0,67,68
 758 -29 758 -29 778.5 -9 c 128,-1,69
 799 11 799 11 799 45 c 0,70,71
 799 71 799 71 786 86 c 128,-1,72
 773 101 773 101 750 118 c 0,73,74
 732 131 732 131 708 149.5 c 128,-1,75
 684 168 684 168 670 179 c 1,0,1
460 156 m 1,76,77
 452 150 452 150 440.5 142 c 128,-1,78
 429 134 429 134 413 126.5 c 128,-1,79
 397 119 397 119 377.5 113.5 c 128,-1,80
 358 108 358 108 335 108 c 0,81,82
 287 108 287 108 257.5 136 c 128,-1,83
 228 164 228 164 228 204 c 0,84,85
 228 225 228 225 236 242 c 128,-1,86
 244 259 244 259 256.5 272.5 c 128,-1,87
 269 286 269 286 283 296 c 128,-1,88
 297 306 297 306 309 314 c 1,89,90
 343 274 343 274 366.5 248 c 128,-1,91
 390 222 390 222 406.5 205 c 128,-1,92
 423 188 423 188 435.5 177 c 128,-1,93
 448 166 448 166 460 156 c 1,76,77
344 507 m 2,94,95
 333 519 333 519 322.5 536.5 c 128,-1,96
 312 554 312 554 312 569 c 0,97,98
 312 590 312 590 330 608 c 128,-1,99
 348 626 348 626 381 626 c 0,100,101
 400 626 400 626 413 620 c 128,-1,102
 426 614 426 614 434 605.5 c 128,-1,103
 442 597 442 597 446 587.5 c 128,-1,104
 450 578 450 578 450 570 c 0,105,106
 450 553 450 553 440 535.5 c 128,-1,107
 430 518 430 518 406 501 c 2,108,-1
 371 475 l 1,109,-1
 344 507 l 2,94,95
EndSplineSet
Validated: 9
EndChar

StartChar: quotesingle
Encoding: 39 39 9
Width: 260
GlyphClass: 1
Flags: W
LayerCount: 2
Fore
SplineSet
72 457 m 1,0,-1
 190 457 l 1,1,-1
 217 596 l 1,2,-1
 217 716 l 1,3,-1
 43 716 l 1,4,-1
 43 596 l 1,5,-1
 72 457 l 1,0,-1
EndSplineSet
Validated: 9
EndChar

StartChar: parenleft
Encoding: 40 40 10
Width: 365
GlyphClass: 1
Flags: W
LayerCount: 2
Fore
SplineSet
274 728 m 0,0,1
 256 728 256 728 242.5 723.5 c 128,-1,2
 229 719 229 719 219.5 712.5 c 128,-1,3
 210 706 210 706 203 698 c 128,-1,4
 196 690 196 690 192 684 c 0,5,6
 129 597 129 597 92.5 489.5 c 128,-1,7
 56 382 56 382 56 259 c 0,8,9
 56 144 56 144 91 35.5 c 128,-1,10
 126 -73 126 -73 192 -167 c 0,11,12
 209 -191 209 -191 228.5 -200.5 c 128,-1,13
 248 -210 248 -210 279 -210 c 0,14,15
 299 -210 299 -210 308 -208.5 c 128,-1,16
 317 -207 317 -207 317 -196 c 0,17,18
 317 -193 317 -193 314.5 -185.5 c 128,-1,19
 312 -178 312 -178 308.5 -170 c 128,-1,20
 305 -162 305 -162 301.5 -154 c 128,-1,21
 298 -146 298 -146 296 -142 c 0,22,23
 279 -103 279 -103 263.5 -55 c 128,-1,24
 248 -7 248 -7 236.5 45.5 c 128,-1,25
 225 98 225 98 218 152.5 c 128,-1,26
 211 207 211 207 211 259 c 0,27,28
 211 310 211 310 218 365 c 128,-1,29
 225 420 225 420 236.5 472.5 c 128,-1,30
 248 525 248 525 263.5 573 c 128,-1,31
 279 621 279 621 296 660 c 0,32,33
 298 664 298 664 301.5 672 c 128,-1,34
 305 680 305 680 308.5 688 c 128,-1,35
 312 696 312 696 314.5 703.5 c 128,-1,36
 317 711 317 711 317 714 c 0,37,38
 317 725 317 725 306.5 726.5 c 128,-1,39
 296 728 296 728 274 728 c 0,0,1
EndSplineSet
Validated: 9
EndChar

StartChar: parenright
Encoding: 41 41 11
Width: 365
GlyphClass: 1
Flags: W
LayerCount: 2
Fore
SplineSet
91 -210 m 0,0,1
 109 -210 109 -210 122.5 -206 c 128,-1,2
 136 -202 136 -202 145.5 -195 c 128,-1,3
 155 -188 155 -188 161.5 -180.5 c 128,-1,4
 168 -173 168 -173 173 -167 c 0,5,6
 236 -79 236 -79 272.5 28.5 c 128,-1,7
 309 136 309 136 309 259 c 0,8,9
 309 374 309 374 274 482 c 128,-1,10
 239 590 239 590 173 684 c 0,11,12
 156 709 156 709 136.5 718.5 c 128,-1,13
 117 728 117 728 85 728 c 0,14,15
 66 728 66 728 57 726 c 128,-1,16
 48 724 48 724 48 713 c 0,17,18
 48 710 48 710 50.5 703 c 128,-1,19
 53 696 53 696 56.5 688 c 128,-1,20
 60 680 60 680 63.5 672 c 128,-1,21
 67 664 67 664 69 660 c 0,22,23
 86 621 86 621 101.5 573 c 128,-1,24
 117 525 117 525 128.5 472.5 c 128,-1,25
 140 420 140 420 147 365.5 c 128,-1,26
 154 311 154 311 154 259 c 0,27,28
 154 208 154 208 147 153 c 128,-1,29
 140 98 140 98 128.5 45.5 c 128,-1,30
 117 -7 117 -7 101.5 -55 c 128,-1,31
 86 -103 86 -103 69 -142 c 0,32,33
 67 -147 67 -147 63.5 -154.5 c 128,-1,34
 60 -162 60 -162 56.5 -170 c 128,-1,35
 53 -178 53 -178 50.5 -185.5 c 128,-1,36
 48 -193 48 -193 48 -196 c 0,37,38
 48 -207 48 -207 58.5 -208.5 c 128,-1,39
 69 -210 69 -210 91 -210 c 0,0,1
EndSplineSet
Validated: 9
EndChar

StartChar: asterisk
Encoding: 42 42 12
Width: 469
GlyphClass: 1
Flags: W
LayerCount: 2
Fore
SplineSet
183 534 m 1,0,1
 166 520 166 520 150.5 505 c 128,-1,2
 135 490 135 490 118 472 c 0,3,4
 96 449 96 449 85 433.5 c 128,-1,5
 74 418 74 418 74 398 c 0,6,7
 74 380 74 380 88 366 c 128,-1,8
 102 352 102 352 123 352 c 0,9,10
 137 352 137 352 148 358.5 c 128,-1,11
 159 365 159 365 171 381.5 c 128,-1,12
 183 398 183 398 198 425.5 c 128,-1,13
 213 453 213 453 234 496 c 1,14,15
 237 488 237 488 245.5 472.5 c 128,-1,16
 254 457 254 457 263 440.5 c 128,-1,17
 272 424 272 424 279 410.5 c 128,-1,18
 286 397 286 397 288 394 c 0,19,20
 303 372 303 372 316 362 c 128,-1,21
 329 352 329 352 346 352 c 0,22,23
 365 352 365 352 380 365 c 128,-1,24
 395 378 395 378 395 399 c 0,25,26
 395 419 395 419 383 435.5 c 128,-1,27
 371 452 371 452 351 472 c 0,28,29
 334 490 334 490 318.5 505 c 128,-1,30
 303 520 303 520 286 534 c 1,31,32
 301 536 301 536 322 539.5 c 128,-1,33
 343 543 343 543 362.5 547.5 c 128,-1,34
 382 552 382 552 398 556 c 128,-1,35
 414 560 414 560 420 562 c 0,36,37
 435 568 435 568 442.5 576 c 128,-1,38
 450 584 450 584 454 592 c 128,-1,39
 458 600 458 600 458.5 606 c 128,-1,40
 459 612 459 612 459 613 c 0,41,42
 459 633 459 633 444.5 646.5 c 128,-1,43
 430 660 430 660 409 660 c 0,44,45
 396 660 396 660 386 656 c 128,-1,46
 376 652 376 652 359 644 c 0,47,48
 354 641 354 641 341 634.5 c 128,-1,49
 328 628 328 628 313 620.5 c 128,-1,50
 298 613 298 613 285 606.5 c 128,-1,51
 272 600 272 600 266 597 c 1,52,53
 269 610 269 610 272 628 c 128,-1,54
 275 646 275 646 277 664 c 128,-1,55
 279 682 279 682 280.5 698 c 128,-1,56
 282 714 282 714 282 722 c 0,57,58
 282 742 282 742 270.5 759.5 c 128,-1,59
 259 777 259 777 235 777 c 0,60,61
 222 777 222 777 213 771.5 c 128,-1,62
 204 766 204 766 198 758.5 c 128,-1,63
 192 751 192 751 189.5 741.5 c 128,-1,64
 187 732 187 732 187 725 c 0,65,66
 187 720 187 720 188 706 c 128,-1,67
 189 692 189 692 190.5 673.5 c 128,-1,68
 192 655 192 655 195 634.5 c 128,-1,69
 198 614 198 614 203 597 c 1,70,71
 198 599 198 599 185 605.5 c 128,-1,72
 172 612 172 612 157 619.5 c 128,-1,73
 142 627 142 627 129 634 c 128,-1,74
 116 641 116 641 110 644 c 0,75,76
 88 654 88 654 80 657 c 128,-1,77
 72 660 72 660 59 660 c 0,78,79
 40 660 40 660 24.5 647 c 128,-1,80
 9 634 9 634 9 613 c 0,81,82
 9 611 9 611 10 605 c 128,-1,83
 11 599 11 599 15 591.5 c 128,-1,84
 19 584 19 584 27 576 c 128,-1,85
 35 568 35 568 49 563 c 0,86,87
 55 560 55 560 71 556 c 128,-1,88
 87 552 87 552 106.5 547.5 c 128,-1,89
 126 543 126 543 147 539.5 c 128,-1,90
 168 536 168 536 183 534 c 1,0,1
EndSplineSet
Validated: 9
EndChar

StartChar: plus
Encoding: 43 43 13
Width: 625
GlyphClass: 1
Flags: W
LayerCount: 2
Fore
SplineSet
242 94 m 1,0,-1
 383 94 l 1,1,-1
 383 282 l 1,2,-1
 571 282 l 1,3,-1
 571 423 l 1,4,-1
 383 423 l 1,5,-1
 383 611 l 1,6,-1
 242 611 l 1,7,-1
 242 423 l 1,8,-1
 54 423 l 1,9,-1
 54 282 l 1,10,-1
 242 282 l 1,11,-1
 242 94 l 1,0,-1
EndSplineSet
Validated: 9
EndChar

StartChar: comma
Encoding: 44 44 14
Width: 302
GlyphClass: 1
Flags: W
LayerCount: 2
Fore
SplineSet
158 -12 m 1,0,1
 153 -71 153 -71 98 -96 c 0,2,3
 81 -104 81 -104 69.5 -111.5 c 128,-1,4
 58 -119 58 -119 58 -139 c 0,5,6
 58 -143 58 -143 59.5 -150 c 128,-1,7
 61 -157 61 -157 65 -163.5 c 128,-1,8
 69 -170 69 -170 77 -175 c 128,-1,9
 85 -180 85 -180 98 -180 c 0,10,11
 115 -180 115 -180 141.5 -166 c 128,-1,12
 168 -152 168 -152 193.5 -124.5 c 128,-1,13
 219 -97 219 -97 237.5 -57.5 c 128,-1,14
 256 -18 256 -18 256 33 c 0,15,16
 256 69 256 69 246.5 94 c 128,-1,17
 237 119 237 119 222.5 134.5 c 128,-1,18
 208 150 208 150 190 156.5 c 128,-1,19
 172 163 172 163 156 163 c 0,20,21
 139 163 139 163 122 157 c 128,-1,22
 105 151 105 151 92 139.5 c 128,-1,23
 79 128 79 128 71 112 c 128,-1,24
 63 96 63 96 63 76 c 0,25,26
 63 58 63 58 70 41 c 128,-1,27
 77 24 77 24 90 12 c 128,-1,28
 103 0 103 0 120 -7 c 128,-1,29
 137 -14 137 -14 158 -12 c 1,0,1
EndSplineSet
Validated: 41
EndChar

StartChar: period
Encoding: 46 46 15
Width: 302
GlyphClass: 1
Flags: W
LayerCount: 2
Fore
SplineSet
238 75 m 256,0,1
 238 111 238 111 212.5 136.5 c 128,-1,2
 187 162 187 162 151 162 c 256,3,4
 115 162 115 162 89.5 136.5 c 128,-1,5
 64 111 64 111 64 75 c 256,6,7
 64 39 64 39 89.5 13.5 c 128,-1,8
 115 -12 115 -12 151 -12 c 256,9,10
 187 -12 187 -12 212.5 13.5 c 128,-1,11
 238 39 238 39 238 75 c 256,0,1
EndSplineSet
Validated: 9
EndChar

StartChar: slash
Encoding: 47 47 16
Width: 281
GlyphClass: 1
Flags: W
LayerCount: 2
Fore
SplineSet
22 80 m 2,0,1
 17 60 17 60 16 53 c 128,-1,2
 15 46 15 46 15 36 c 0,3,4
 15 15 15 15 29 1.5 c 128,-1,5
 43 -12 43 -12 63 -12 c 0,6,7
 91 -12 91 -12 101 8 c 128,-1,8
 111 28 111 28 118 56 c 2,9,-1
 259 636 l 2,10,11
 261 646 261 646 262.5 652 c 128,-1,12
 264 658 264 658 264.5 662.5 c 128,-1,13
 265 667 265 667 265.5 671 c 128,-1,14
 266 675 266 675 266 680 c 0,15,16
 266 700 266 700 253.5 714 c 128,-1,17
 241 728 241 728 218 728 c 0,18,19
 188 728 188 728 178.5 708 c 128,-1,20
 169 688 169 688 162 660 c 2,21,-1
 22 80 l 2,0,1
EndSplineSet
Validated: 9
EndChar

StartChar: zero
Encoding: 48 48 17
Width: 615
GlyphClass: 1
Flags: W
LayerCount: 2
Fore
SplineSet
45 357 m 0,0,1
 45 297 45 297 51 253.5 c 128,-1,2
 57 210 57 210 67.5 177.5 c 128,-1,3
 78 145 78 145 92 121.5 c 128,-1,4
 106 98 106 98 121 79 c 0,5,6
 150 42 150 42 197 15 c 128,-1,7
 244 -12 244 -12 309 -12 c 0,8,9
 378 -12 378 -12 433.5 21 c 128,-1,10
 489 54 489 54 522 112 c 0,11,12
 551 162 551 162 560.5 225 c 128,-1,13
 570 288 570 288 570 351 c 0,14,15
 570 445 570 445 556 503.5 c 128,-1,16
 542 562 542 562 519 603 c 0,17,18
 510 618 510 618 494 638.5 c 128,-1,19
 478 659 478 659 452.5 678 c 128,-1,20
 427 697 427 697 390 710 c 128,-1,21
 353 723 353 723 303 723 c 0,22,23
 283 723 283 723 256 719 c 128,-1,24
 229 715 229 715 200 703 c 128,-1,25
 171 691 171 691 143 669 c 128,-1,26
 115 647 115 647 95 611 c 0,27,28
 63 554 63 554 54 488.5 c 128,-1,29
 45 423 45 423 45 357 c 0,0,1
214 362 m 0,30,31
 214 483 214 483 233.5 541 c 128,-1,32
 253 599 253 599 307 599 c 0,33,34
 359 599 359 599 380 544 c 128,-1,35
 401 489 401 489 401 366 c 0,36,37
 401 310 401 310 398 263.5 c 128,-1,38
 395 217 395 217 385 183 c 128,-1,39
 375 149 375 149 356.5 130.5 c 128,-1,40
 338 112 338 112 307 112 c 0,41,42
 279 112 279 112 261 128.5 c 128,-1,43
 243 145 243 145 232.5 176.5 c 128,-1,44
 222 208 222 208 218 254.5 c 128,-1,45
 214 301 214 301 214 362 c 0,30,31
EndSplineSet
Validated: 9
EndChar

StartChar: one
Encoding: 49 49 18
Width: 615
GlyphClass: 1
Flags: W
LayerCount: 2
Fore
SplineSet
445 619 m 2,0,1
 445 635 445 635 444 650.5 c 128,-1,2
 443 666 443 666 437 681 c 0,3,4
 430 698 430 698 414.5 710.5 c 128,-1,5
 399 723 399 723 374 723 c 0,6,7
 342 723 342 723 326.5 706 c 128,-1,8
 311 689 311 689 295 662 c 0,9,10
 268 617 268 617 226.5 585.5 c 128,-1,11
 185 554 185 554 137 531 c 0,12,13
 110 518 110 518 92 509 c 128,-1,14
 74 500 74 500 63.5 491 c 128,-1,15
 53 482 53 482 48.5 472 c 128,-1,16
 44 462 44 462 44 447 c 0,17,18
 44 430 44 430 50.5 417 c 128,-1,19
 57 404 57 404 67 395.5 c 128,-1,20
 77 387 77 387 88 382.5 c 128,-1,21
 99 378 99 378 108 378 c 0,22,23
 122 378 122 378 143.5 387.5 c 128,-1,24
 165 397 165 397 188.5 410.5 c 128,-1,25
 212 424 212 424 235 439.5 c 128,-1,26
 258 455 258 455 276 467 c 1,27,-1
 276 93 l 2,28,29
 276 71 276 71 276.5 64 c 128,-1,30
 277 57 277 57 279 46 c 0,31,32
 286 19 286 19 310 3.5 c 128,-1,33
 334 -12 334 -12 360 -12 c 0,34,35
 363 -12 363 -12 370.5 -11.5 c 128,-1,36
 378 -11 378 -11 387.5 -8 c 128,-1,37
 397 -5 397 -5 407 1.5 c 128,-1,38
 417 8 417 8 426 21 c 0,39,40
 435 35 435 35 440 52.5 c 128,-1,41
 445 70 445 70 445 110 c 2,42,-1
 445 619 l 2,0,1
EndSplineSet
Validated: 9
EndChar

StartChar: two
Encoding: 50 50 19
Width: 615
GlyphClass: 1
Flags: W
LayerCount: 2
Fore
SplineSet
280 145 m 1,0,1
 286 153 286 153 294.5 163 c 128,-1,2
 303 173 303 173 318.5 188 c 128,-1,3
 334 203 334 203 358.5 223.5 c 128,-1,4
 383 244 383 244 420 274 c 0,5,6
 468 313 468 313 497 347.5 c 128,-1,7
 526 382 526 382 541.5 412.5 c 128,-1,8
 557 443 557 443 562 469 c 128,-1,9
 567 495 567 495 567 517 c 0,10,11
 567 572 567 572 546.5 608 c 128,-1,12
 526 644 526 644 503 665 c 0,13,14
 494 674 494 674 480 684 c 128,-1,15
 466 694 466 694 444 702.5 c 128,-1,16
 422 711 422 711 390.5 717 c 128,-1,17
 359 723 359 723 314 723 c 0,18,19
 255 723 255 723 213 709.5 c 128,-1,20
 171 696 171 696 142 675 c 128,-1,21
 113 654 113 654 96.5 628.5 c 128,-1,22
 80 603 80 603 71 579.5 c 128,-1,23
 62 556 62 556 59.5 537.5 c 128,-1,24
 57 519 57 519 57 512 c 0,25,26
 57 478 57 478 77.5 457.5 c 128,-1,27
 98 437 98 437 130 437 c 0,28,29
 153 437 153 437 172 450 c 0,30,31
 181 456 181 456 187 463 c 128,-1,32
 193 470 193 470 198 480 c 128,-1,33
 203 490 203 490 208.5 504.5 c 128,-1,34
 214 519 214 519 222 540 c 0,35,36
 232 566 232 566 256 582.5 c 128,-1,37
 280 599 280 599 310 599 c 0,38,39
 346 599 346 599 373 577 c 128,-1,40
 400 555 400 555 400 514 c 0,41,42
 400 490 400 490 392 469.5 c 128,-1,43
 384 449 384 449 364.5 426.5 c 128,-1,44
 345 404 345 404 313 375.5 c 128,-1,45
 281 347 281 347 233 306 c 0,46,47
 197 275 197 275 165.5 245 c 128,-1,48
 134 215 134 215 111.5 186.5 c 128,-1,49
 89 158 89 158 76 132.5 c 128,-1,50
 63 107 63 107 63 85 c 0,51,52
 63 68 63 68 71 51 c 128,-1,53
 79 34 79 34 93 22 c 0,54,55
 110 7 110 7 128.5 3.5 c 128,-1,56
 147 0 147 0 172 0 c 2,57,-1
 490 0 l 2,58,59
 507 0 507 0 519.5 1 c 128,-1,60
 532 2 532 2 542 7 c 0,61,62
 556 14 556 14 569 30.5 c 128,-1,63
 582 47 582 47 582 71 c 0,64,65
 582 98 582 98 569.5 113 c 128,-1,66
 557 128 557 128 539.5 135 c 128,-1,67
 522 142 522 142 503 143.5 c 128,-1,68
 484 145 484 145 472 145 c 2,69,-1
 280 145 l 1,0,1
EndSplineSet
Validated: 9
EndChar

StartChar: three
Encoding: 51 51 20
Width: 615
GlyphClass: 1
Flags: W
LayerCount: 2
Fore
SplineSet
435 389 m 1,0,1
 458 403 458 403 470 411.5 c 128,-1,2
 482 420 482 420 492 431 c 0,3,4
 522 463 522 463 530 489.5 c 128,-1,5
 538 516 538 516 538 538 c 0,6,7
 538 565 538 565 527 597 c 128,-1,8
 516 629 516 629 489.5 657 c 128,-1,9
 463 685 463 685 418.5 704 c 128,-1,10
 374 723 374 723 307 723 c 256,11,12
 240 723 240 723 194.5 703.5 c 128,-1,13
 149 684 149 684 121.5 657 c 128,-1,14
 94 630 94 630 82.5 601.5 c 128,-1,15
 71 573 71 573 71 555 c 0,16,17
 71 549 71 549 73.5 537.5 c 128,-1,18
 76 526 76 526 83.5 514.5 c 128,-1,19
 91 503 91 503 104 495 c 128,-1,20
 117 487 117 487 139 487 c 0,21,22
 157 487 157 487 168.5 492.5 c 128,-1,23
 180 498 180 498 188 507.5 c 128,-1,24
 196 517 196 517 202.5 530 c 128,-1,25
 209 543 209 543 215 558 c 0,26,27
 222 574 222 574 242.5 589.5 c 128,-1,28
 263 605 263 605 294 605 c 0,29,30
 329 605 329 605 350.5 583 c 128,-1,31
 372 561 372 561 372 528 c 0,32,33
 372 523 372 523 370 510.5 c 128,-1,34
 368 498 368 498 360 484 c 128,-1,35
 352 470 352 470 334 458.5 c 128,-1,36
 316 447 316 447 285 444 c 0,37,38
 283 444 283 444 276 444 c 0,39,40
 270 444 270 444 262 444 c 0,41,42
 255 444 255 444 248 444 c 256,43,44
 241 444 241 444 238 444 c 0,45,46
 228 444 228 444 216 440 c 128,-1,47
 204 436 204 436 194 428 c 128,-1,48
 184 420 184 420 177 408 c 128,-1,49
 170 396 170 396 170 380 c 0,50,51
 170 363 170 363 176 351 c 128,-1,52
 182 339 182 339 191.5 331.5 c 128,-1,53
 201 324 201 324 211.5 320 c 128,-1,54
 222 316 222 316 231 316 c 0,55,56
 235 316 235 316 247 317.5 c 128,-1,57
 259 319 259 319 272 321 c 128,-1,58
 285 323 285 323 296.5 324.5 c 128,-1,59
 308 326 308 326 313 326 c 0,60,61
 333 326 333 326 349.5 317 c 128,-1,62
 366 308 366 308 378 292.5 c 128,-1,63
 390 277 390 277 396.5 257.5 c 128,-1,64
 403 238 403 238 403 217 c 0,65,66
 403 206 403 206 399 187.5 c 128,-1,67
 395 169 395 169 384.5 151 c 128,-1,68
 374 133 374 133 354.5 119.5 c 128,-1,69
 335 106 335 106 305 106 c 0,70,71
 276 106 276 106 256.5 116.5 c 128,-1,72
 237 127 237 127 224.5 143.5 c 128,-1,73
 212 160 212 160 203.5 180.5 c 128,-1,74
 195 201 195 201 189 220 c 0,75,76
 174 267 174 267 124 267 c 0,77,78
 87 267 87 267 67.5 244 c 128,-1,79
 48 221 48 221 48 196 c 0,80,81
 48 155 48 155 70 116 c 128,-1,82
 92 77 92 77 123 49 c 0,83,84
 133 40 133 40 148 29 c 128,-1,85
 163 18 163 18 185.5 9 c 128,-1,86
 208 0 208 0 238.5 -6 c 128,-1,87
 269 -12 269 -12 311 -12 c 0,88,89
 380 -12 380 -12 429.5 9 c 128,-1,90
 479 30 479 30 510.5 63.5 c 128,-1,91
 542 97 542 97 557 138 c 128,-1,92
 572 179 572 179 572 219 c 0,93,94
 572 285 572 285 538.5 328.5 c 128,-1,95
 505 372 505 372 435 389 c 1,0,1
EndSplineSet
Validated: 9
EndChar

StartChar: four
Encoding: 52 52 21
Width: 615
GlyphClass: 1
Flags: W
LayerCount: 2
Fore
SplineSet
350 139 m 1,0,-1
 350 115 l 2,1,2
 350 73 350 73 352.5 50 c 128,-1,3
 355 27 355 27 370 11 c 0,4,5
 393 -12 393 -12 427 -12 c 0,6,7
 447 -12 447 -12 461 -4 c 128,-1,8
 475 4 475 4 483 12 c 0,9,10
 498 27 498 27 500.5 50 c 128,-1,11
 503 73 503 73 503 115 c 2,12,-1
 503 139 l 1,13,14
 517 139 517 139 526.5 139.5 c 128,-1,15
 536 140 536 140 549 142 c 0,16,17
 567 145 567 145 578 153.5 c 128,-1,18
 589 162 589 162 595 172 c 128,-1,19
 601 182 601 182 603 192 c 128,-1,20
 605 202 605 202 605 208 c 0,21,22
 605 226 605 226 597.5 239 c 128,-1,23
 590 252 590 252 583 259 c 0,24,25
 569 273 569 273 544 275 c 128,-1,26
 519 277 519 277 503 277 c 1,27,-1
 503 572 l 2,28,29
 503 619 503 619 501 643.5 c 128,-1,30
 499 668 499 668 487 684 c 0,31,32
 476 699 476 699 457 711.5 c 128,-1,33
 438 724 438 724 412 724 c 0,34,35
 394 724 394 724 380.5 719 c 128,-1,36
 367 714 367 714 354.5 703.5 c 128,-1,37
 342 693 342 693 329 677 c 128,-1,38
 316 661 316 661 300 640 c 2,39,-1
 73 347 l 2,40,41
 54 323 54 323 42 307 c 128,-1,42
 30 291 30 291 23.5 279 c 128,-1,43
 17 267 17 267 15 257.5 c 128,-1,44
 13 248 13 248 13 238 c 0,45,46
 13 218 13 218 20.5 199 c 128,-1,47
 28 180 28 180 45 164 c 0,48,49
 55 155 55 155 65 149.5 c 128,-1,50
 75 144 75 144 89 142 c 128,-1,51
 103 140 103 140 123.5 139.5 c 128,-1,52
 144 139 144 139 176 139 c 2,53,-1
 350 139 l 1,0,-1
172 277 m 1,54,-1
 350 511 l 1,55,-1
 350 277 l 1,56,-1
 172 277 l 1,54,-1
EndSplineSet
Validated: 9
EndChar

StartChar: five
Encoding: 53 53 22
Width: 615
GlyphClass: 1
Flags: W
LayerCount: 2
Fore
SplineSet
257 568 m 1,0,-1
 460 568 l 2,1,2
 474 568 474 568 487 568 c 0,3,4
 501 568 501 568 518 575 c 0,5,6
 539 583 539 583 549 602.5 c 128,-1,7
 559 622 559 622 559 638 c 0,8,9
 559 653 559 653 552.5 668 c 128,-1,10
 546 683 546 683 533 694 c 0,11,12
 519 707 519 707 503 709 c 128,-1,13
 487 711 487 711 453 711 c 2,14,-1
 232 711 l 2,15,16
 214 711 214 711 195.5 709.5 c 128,-1,17
 177 708 177 708 161 699 c 128,-1,18
 145 690 145 690 132 671 c 128,-1,19
 119 652 119 652 113 617 c 2,20,-1
 76 407 l 2,21,22
 76 403 76 403 74 389.5 c 128,-1,23
 72 376 72 376 72 368 c 0,24,25
 72 354 72 354 78.5 341.5 c 128,-1,26
 85 329 85 329 95.5 319.5 c 128,-1,27
 106 310 106 310 119.5 304 c 128,-1,28
 133 298 133 298 148 298 c 0,29,30
 175 298 175 298 190 308 c 128,-1,31
 205 318 205 318 219 330 c 128,-1,32
 233 342 233 342 251.5 352 c 128,-1,33
 270 362 270 362 304 362 c 0,34,35
 327 362 327 362 350 352 c 128,-1,36
 373 342 373 342 385 325 c 0,37,38
 399 305 399 305 404.5 279 c 128,-1,39
 410 253 410 253 410 235 c 0,40,41
 410 226 410 226 407.5 204.5 c 128,-1,42
 405 183 405 183 394.5 160.5 c 128,-1,43
 384 138 384 138 363.5 121 c 128,-1,44
 343 104 343 104 306 104 c 0,45,46
 296 104 296 104 284 105.5 c 128,-1,47
 272 107 272 107 258 114.5 c 128,-1,48
 244 122 244 122 228.5 136.5 c 128,-1,49
 213 151 213 151 197 177 c 0,50,51
 182 200 182 200 166.5 216.5 c 128,-1,52
 151 233 151 233 121 233 c 0,53,54
 104 233 104 233 91.5 226.5 c 128,-1,55
 79 220 79 220 70 210 c 128,-1,56
 61 200 61 200 56.5 188.5 c 128,-1,57
 52 177 52 177 52 167 c 0,58,59
 52 156 52 156 57 139 c 128,-1,60
 62 122 62 122 73.5 102 c 128,-1,61
 85 82 85 82 104.5 61.5 c 128,-1,62
 124 41 124 41 152.5 25 c 128,-1,63
 181 9 181 9 219.5 -1.5 c 128,-1,64
 258 -12 258 -12 308 -12 c 0,65,66
 384 -12 384 -12 436 13 c 128,-1,67
 488 38 488 38 519.5 76.5 c 128,-1,68
 551 115 551 115 565 160.5 c 128,-1,69
 579 206 579 206 579 247 c 0,70,71
 579 306 579 306 557.5 350 c 128,-1,72
 536 394 536 394 503 423 c 128,-1,73
 470 452 470 452 430 466 c 128,-1,74
 390 480 390 480 352 480 c 0,75,76
 312 480 312 480 283.5 470.5 c 128,-1,77
 255 461 255 461 238 453 c 1,78,-1
 257 568 l 1,0,-1
EndSplineSet
Validated: 9
EndChar

StartChar: six
Encoding: 54 54 23
Width: 615
GlyphClass: 1
Flags: W
LayerCount: 2
Fore
SplineSet
219 406 m 1,0,1
 221 449 221 449 227.5 486 c 128,-1,2
 234 523 234 523 246.5 549 c 128,-1,3
 259 575 259 575 279 590 c 128,-1,4
 299 605 299 605 329 605 c 0,5,6
 345 605 345 605 356.5 600.5 c 128,-1,7
 368 596 368 596 378 587 c 128,-1,8
 388 578 388 578 397.5 565 c 128,-1,9
 407 552 407 552 419 534 c 0,10,11
 430 519 430 519 448 511 c 128,-1,12
 466 503 466 503 483 503 c 0,13,14
 516 503 516 503 532.5 524.5 c 128,-1,15
 549 546 549 546 549 568 c 0,16,17
 549 594 549 594 535 621.5 c 128,-1,18
 521 649 521 649 494 671.5 c 128,-1,19
 467 694 467 694 426.5 708.5 c 128,-1,20
 386 723 386 723 334 723 c 0,21,22
 313 723 313 723 282.5 718 c 128,-1,23
 252 713 252 713 217 698 c 0,24,25
 168 677 168 677 135.5 639 c 128,-1,26
 103 601 103 601 83.5 553 c 128,-1,27
 64 505 64 505 55.5 450.5 c 128,-1,28
 47 396 47 396 47 341 c 0,29,30
 47 279 47 279 60 216 c 128,-1,31
 73 153 73 153 104.5 102.5 c 128,-1,32
 136 52 136 52 189.5 20 c 128,-1,33
 243 -12 243 -12 324 -12 c 0,34,35
 388 -12 388 -12 436 8.5 c 128,-1,36
 484 29 484 29 516.5 63 c 128,-1,37
 549 97 549 97 565.5 141 c 128,-1,38
 582 185 582 185 582 232 c 0,39,40
 582 277 582 277 567.5 319.5 c 128,-1,41
 553 362 553 362 525 395.5 c 128,-1,42
 497 429 497 429 456 449.5 c 128,-1,43
 415 470 415 470 363 470 c 0,44,45
 331 470 331 470 307.5 463 c 128,-1,46
 284 456 284 456 266.5 446 c 128,-1,47
 249 436 249 436 237.5 425 c 128,-1,48
 226 414 226 414 219 406 c 1,0,1
228 242 m 0,49,50
 228 276 228 276 238 298.5 c 128,-1,51
 248 321 248 321 263 334.5 c 128,-1,52
 278 348 278 348 294.5 353.5 c 128,-1,53
 311 359 311 359 324 359 c 0,54,55
 344 359 344 359 364.5 349 c 128,-1,56
 385 339 385 339 396 322 c 0,57,58
 410 301 410 301 414 274 c 128,-1,59
 418 247 418 247 418 230 c 0,60,61
 418 176 418 176 394.5 141 c 128,-1,62
 371 106 371 106 328 106 c 0,63,64
 305 106 305 106 287 116.5 c 128,-1,65
 269 127 269 127 255.5 145.5 c 128,-1,66
 242 164 242 164 235 188.5 c 128,-1,67
 228 213 228 213 228 242 c 0,49,50
EndSplineSet
Validated: 9
EndChar

StartChar: seven
Encoding: 55 55 24
Width: 615
GlyphClass: 1
Flags: W
LayerCount: 2
Fore
SplineSet
379 563 m 1,0,1
 326 497 326 497 284.5 424 c 128,-1,2
 243 351 243 351 214.5 283 c 128,-1,3
 186 215 186 215 171 158.5 c 128,-1,4
 156 102 156 102 156 69 c 0,5,6
 156 51 156 51 163 36.5 c 128,-1,7
 170 22 170 22 181.5 11 c 128,-1,8
 193 0 193 0 208 -6 c 128,-1,9
 223 -12 223 -12 239 -12 c 0,10,11
 264 -12 264 -12 279 -2 c 128,-1,12
 294 8 294 8 303 21.5 c 128,-1,13
 312 35 312 35 315.5 48.5 c 128,-1,14
 319 62 319 62 321 68 c 0,15,16
 331 114 331 114 340.5 157.5 c 128,-1,17
 350 201 350 201 363.5 245 c 128,-1,18
 377 289 377 289 395.5 334 c 128,-1,19
 414 379 414 379 441 428 c 0,20,21
 445 436 445 436 450.5 444 c 128,-1,22
 456 452 456 452 466.5 466 c 128,-1,23
 477 480 477 480 495 503 c 128,-1,24
 513 526 513 526 543 565 c 0,25,26
 561 588 561 588 566 604 c 128,-1,27
 571 620 571 620 571 633 c 0,28,29
 571 662 571 662 559.5 678 c 128,-1,30
 548 694 548 694 527.5 701.5 c 128,-1,31
 507 709 507 709 478.5 710 c 128,-1,32
 450 711 450 711 417 711 c 2,33,-1
 157 711 l 2,34,35
 117 711 117 711 94 708.5 c 128,-1,36
 71 706 71 706 57 691 c 0,37,38
 46 680 46 680 40 666 c 128,-1,39
 34 652 34 652 34 637 c 0,40,41
 34 618 34 618 41.5 604.5 c 128,-1,42
 49 591 49 591 57 583 c 0,43,44
 72 568 72 568 94.5 565.5 c 128,-1,45
 117 563 117 563 157 563 c 2,46,-1
 379 563 l 1,0,1
EndSplineSet
Validated: 9
EndChar

StartChar: eight
Encoding: 56 56 25
Width: 615
GlyphClass: 1
Flags: W
LayerCount: 2
Fore
SplineSet
163 386 m 1,0,1
 151 381 151 381 131 370 c 128,-1,2
 111 359 111 359 91.5 338.5 c 128,-1,3
 72 318 72 318 58 286 c 128,-1,4
 44 254 44 254 44 206 c 0,5,6
 44 172 44 172 55.5 133.5 c 128,-1,7
 67 95 67 95 96.5 63 c 128,-1,8
 126 31 126 31 177.5 9.5 c 128,-1,9
 229 -12 229 -12 309 -12 c 0,10,11
 394 -12 394 -12 446 13 c 128,-1,12
 498 38 498 38 525.5 73 c 128,-1,13
 553 108 553 108 562 145.5 c 128,-1,14
 571 183 571 183 571 208 c 0,15,16
 571 255 571 255 556 287 c 128,-1,17
 541 319 541 319 521 339.5 c 128,-1,18
 501 360 501 360 481.5 371 c 128,-1,19
 462 382 462 382 453 386 c 1,20,21
 461 390 461 390 477 400 c 128,-1,22
 493 410 493 410 508.5 428 c 128,-1,23
 524 446 524 446 536 472.5 c 128,-1,24
 548 499 548 499 548 535 c 0,25,26
 548 580 548 580 526.5 619 c 128,-1,27
 505 658 505 658 469 683 c 0,28,29
 432 708 432 708 388.5 715.5 c 128,-1,30
 345 723 345 723 300 723 c 0,31,32
 234 723 234 723 189 705.5 c 128,-1,33
 144 688 144 688 116 660.5 c 128,-1,34
 88 633 88 633 76 600 c 128,-1,35
 64 567 64 567 64 536 c 0,36,37
 64 497 64 497 76.5 470 c 128,-1,38
 89 443 89 443 105.5 425.5 c 128,-1,39
 122 408 122 408 138.5 399 c 128,-1,40
 155 390 155 390 163 386 c 1,0,1
223 524 m 0,41,42
 223 564 223 564 246.5 586.5 c 128,-1,43
 270 609 270 609 306 609 c 0,44,45
 346 609 346 609 367.5 584 c 128,-1,46
 389 559 389 559 389 524 c 0,47,48
 389 501 389 501 381.5 485 c 128,-1,49
 374 469 374 469 362.5 459 c 128,-1,50
 351 449 351 449 336 444.5 c 128,-1,51
 321 440 321 440 306 440 c 0,52,53
 290 440 290 440 275 445 c 128,-1,54
 260 450 260 450 248.5 460.5 c 128,-1,55
 237 471 237 471 230 486.5 c 128,-1,56
 223 502 223 502 223 524 c 0,41,42
210 214 m 0,57,58
 210 243 210 243 218.5 264 c 128,-1,59
 227 285 227 285 240.5 299 c 128,-1,60
 254 313 254 313 271 320 c 128,-1,61
 288 327 288 327 306 327 c 0,62,63
 325 327 325 327 343 319.5 c 128,-1,64
 361 312 361 312 374.5 298 c 128,-1,65
 388 284 388 284 396 263.5 c 128,-1,66
 404 243 404 243 404 216 c 0,67,68
 404 164 404 164 375.5 134 c 128,-1,69
 347 104 347 104 308 104 c 0,70,71
 289 104 289 104 271.5 111.5 c 128,-1,72
 254 119 254 119 240.5 133.5 c 128,-1,73
 227 148 227 148 218.5 168 c 128,-1,74
 210 188 210 188 210 214 c 0,57,58
EndSplineSet
Validated: 9
EndChar

StartChar: nine
Encoding: 57 57 26
Width: 615
GlyphClass: 1
Flags: W
LayerCount: 2
Fore
SplineSet
386 304 m 1,0,1
 384 261 384 261 378 224.5 c 128,-1,2
 372 188 372 188 359.5 162 c 128,-1,3
 347 136 347 136 326.5 121 c 128,-1,4
 306 106 306 106 276 106 c 0,5,6
 243 106 243 106 226 122.5 c 128,-1,7
 209 139 209 139 193 165 c 0,8,9
 180 186 180 186 163 196.5 c 128,-1,10
 146 207 146 207 122 207 c 0,11,12
 106 207 106 207 94 201 c 128,-1,13
 82 195 82 195 73.5 185.5 c 128,-1,14
 65 176 65 176 61 164.5 c 128,-1,15
 57 153 57 153 57 142 c 0,16,17
 57 116 57 116 71 89 c 128,-1,18
 85 62 85 62 112 39.5 c 128,-1,19
 139 17 139 17 179 2.5 c 128,-1,20
 219 -12 219 -12 272 -12 c 0,21,22
 292 -12 292 -12 323 -7.5 c 128,-1,23
 354 -3 354 -3 389 13 c 0,24,25
 437 34 437 34 469.5 72 c 128,-1,26
 502 110 502 110 521.5 157.5 c 128,-1,27
 541 205 541 205 549.5 259.5 c 128,-1,28
 558 314 558 314 558 369 c 0,29,30
 558 432 558 432 545 495 c 128,-1,31
 532 558 532 558 500.5 608.5 c 128,-1,32
 469 659 469 659 415.5 691 c 128,-1,33
 362 723 362 723 281 723 c 0,34,35
 217 723 217 723 169 702.5 c 128,-1,36
 121 682 121 682 88.5 647.5 c 128,-1,37
 56 613 56 613 40 569 c 128,-1,38
 24 525 24 525 24 478 c 0,39,40
 24 433 24 433 38.5 390.5 c 128,-1,41
 53 348 53 348 81 314.5 c 128,-1,42
 109 281 109 281 150 260.5 c 128,-1,43
 191 240 191 240 243 240 c 0,44,45
 274 240 274 240 298 247 c 128,-1,46
 322 254 322 254 339 264 c 128,-1,47
 356 274 356 274 367.5 285 c 128,-1,48
 379 296 379 296 386 304 c 1,0,1
378 468 m 0,49,50
 378 434 378 434 368 411.5 c 128,-1,51
 358 389 358 389 343 375.5 c 128,-1,52
 328 362 328 362 311.5 356.5 c 128,-1,53
 295 351 295 351 282 351 c 0,54,55
 262 351 262 351 241.5 361 c 128,-1,56
 221 371 221 371 210 388 c 0,57,58
 196 410 196 410 191.5 436.5 c 128,-1,59
 187 463 187 463 187 480 c 0,60,61
 187 534 187 534 210.5 569.5 c 128,-1,62
 234 605 234 605 278 605 c 0,63,64
 300 605 300 605 318.5 594.5 c 128,-1,65
 337 584 337 584 350 565 c 128,-1,66
 363 546 363 546 370.5 521 c 128,-1,67
 378 496 378 496 378 468 c 0,49,50
EndSplineSet
Validated: 9
EndChar

StartChar: colon
Encoding: 58 58 27
Width: 333
GlyphClass: 1
Flags: W
LayerCount: 2
Fore
SplineSet
253 443 m 256,0,1
 253 479 253 479 227.5 504.5 c 128,-1,2
 202 530 202 530 166 530 c 256,3,4
 130 530 130 530 104.5 504.5 c 128,-1,5
 79 479 79 479 79 443 c 256,6,7
 79 407 79 407 104.5 381.5 c 128,-1,8
 130 356 130 356 166 356 c 256,9,10
 202 356 202 356 227.5 381.5 c 128,-1,11
 253 407 253 407 253 443 c 256,0,1
253 75 m 256,12,13
 253 111 253 111 227.5 136.5 c 128,-1,14
 202 162 202 162 166 162 c 256,15,16
 130 162 130 162 104.5 136.5 c 128,-1,17
 79 111 79 111 79 75 c 256,18,19
 79 39 79 39 104.5 13.5 c 128,-1,20
 130 -12 130 -12 166 -12 c 256,21,22
 202 -12 202 -12 227.5 13.5 c 128,-1,23
 253 39 253 39 253 75 c 256,12,13
EndSplineSet
Validated: 9
EndChar

StartChar: less
Encoding: 60 60 28
Width: 625
GlyphClass: 1
Flags: W
LayerCount: 2
Fore
SplineSet
575 66 m 1,0,-1
 575 221 l 1,1,-1
 235 354 l 1,2,-1
 575 486 l 1,3,-1
 575 640 l 1,4,-1
 52 419 l 1,5,-1
 52 288 l 1,6,-1
 575 66 l 1,0,-1
EndSplineSet
Validated: 9
EndChar

StartChar: equal
Encoding: 61 61 29
Width: 625
GlyphClass: 1
Flags: W
LayerCount: 2
Fore
SplineSet
571 398 m 1,0,-1
 571 539 l 1,1,-1
 54 539 l 1,2,-1
 54 398 l 1,3,-1
 571 398 l 1,0,-1
571 168 m 1,4,-1
 571 309 l 1,5,-1
 54 309 l 1,6,-1
 54 168 l 1,7,-1
 571 168 l 1,4,-1
EndSplineSet
Validated: 9
EndChar

StartChar: greater
Encoding: 62 62 30
Width: 625
GlyphClass: 1
Flags: W
LayerCount: 2
Fore
SplineSet
50 66 m 1,0,-1
 573 288 l 1,1,-1
 573 419 l 1,2,-1
 50 640 l 1,3,-1
 50 486 l 1,4,-1
 390 354 l 1,5,-1
 50 221 l 1,6,-1
 50 66 l 1,0,-1
EndSplineSet
Validated: 9
EndChar

StartChar: question
Encoding: 63 63 31
Width: 615
GlyphClass: 1
Flags: W
LayerCount: 2
Fore
SplineSet
223 265 m 0,0,1
 223 238 223 238 232.5 222.5 c 128,-1,2
 242 207 242 207 254.5 199 c 128,-1,3
 267 191 267 191 279 188.5 c 128,-1,4
 291 186 291 186 297 186 c 0,5,6
 319 186 319 186 333 193 c 128,-1,7
 347 200 347 200 354.5 210 c 128,-1,8
 362 220 362 220 365 229.5 c 128,-1,9
 368 239 368 239 369 245 c 0,10,11
 372 258 372 258 375 269 c 128,-1,12
 378 280 378 280 385 291.5 c 128,-1,13
 392 303 392 303 404 315 c 128,-1,14
 416 327 416 327 437 344 c 0,15,16
 475 374 475 374 500.5 398 c 128,-1,17
 526 422 526 422 541 443.5 c 128,-1,18
 556 465 556 465 562.5 486 c 128,-1,19
 569 507 569 507 569 531 c 0,20,21
 569 570 569 570 551 606 c 128,-1,22
 533 642 533 642 499.5 669 c 128,-1,23
 466 696 466 696 419 712 c 128,-1,24
 372 728 372 728 314 728 c 0,25,26
 236 728 236 728 184 704 c 128,-1,27
 132 680 132 680 101.5 646.5 c 128,-1,28
 71 613 71 613 58 576 c 128,-1,29
 45 539 45 539 45 514 c 0,30,31
 45 483 45 483 68 459.5 c 128,-1,32
 91 436 91 436 125 436 c 0,33,34
 147 436 147 436 161 443.5 c 128,-1,35
 175 451 175 451 183.5 462 c 128,-1,36
 192 473 192 473 196.5 485 c 128,-1,37
 201 497 201 497 204 506 c 0,38,39
 208 520 208 520 215 536.5 c 128,-1,40
 222 553 222 553 234 567.5 c 128,-1,41
 246 582 246 582 266 591.5 c 128,-1,42
 286 601 286 601 316 601 c 0,43,44
 341 601 341 601 357.5 594 c 128,-1,45
 374 587 374 587 384 576 c 128,-1,46
 394 565 394 565 398.5 552.5 c 128,-1,47
 403 540 403 540 403 529 c 0,48,49
 403 517 403 517 398.5 507 c 128,-1,50
 394 497 394 497 383 485 c 128,-1,51
 372 473 372 473 353.5 457 c 128,-1,52
 335 441 335 441 307 417 c 0,53,54
 295 407 295 407 280.5 393.5 c 128,-1,55
 266 380 266 380 253.5 361 c 128,-1,56
 241 342 241 342 232 318.5 c 128,-1,57
 223 295 223 295 223 265 c 0,0,1
389 75 m 256,58,59
 389 111 389 111 363.5 136.5 c 128,-1,60
 338 162 338 162 302 162 c 256,61,62
 266 162 266 162 240.5 136.5 c 128,-1,63
 215 111 215 111 215 75 c 256,64,65
 215 39 215 39 240.5 13.5 c 128,-1,66
 266 -12 266 -12 302 -12 c 256,67,68
 338 -12 338 -12 363.5 13.5 c 128,-1,69
 389 39 389 39 389 75 c 256,58,59
EndSplineSet
Validated: 9
EndChar

StartChar: at
Encoding: 64 64 32
Width: 854
GlyphClass: 1
Flags: W
LayerCount: 2
Fore
SplineSet
531 461 m 1,0,1
 526 468 526 468 517.5 479.5 c 128,-1,2
 509 491 509 491 494.5 502 c 128,-1,3
 480 513 480 513 458 521.5 c 128,-1,4
 436 530 436 530 406 530 c 0,5,6
 350 530 350 530 307 499.5 c 128,-1,7
 264 469 264 469 234 422 c 128,-1,8
 204 375 204 375 188.5 318.5 c 128,-1,9
 173 262 173 262 173 210 c 0,10,11
 173 166 173 166 185 128.5 c 128,-1,12
 197 91 197 91 219.5 63.5 c 128,-1,13
 242 36 242 36 273.5 20 c 128,-1,14
 305 4 305 4 345 4 c 0,15,16
 370 4 370 4 390 10 c 128,-1,17
 410 16 410 16 425.5 25 c 128,-1,18
 441 34 441 34 452 44 c 128,-1,19
 463 54 463 54 471 61 c 1,20,21
 475 43 475 43 484 32 c 128,-1,22
 493 21 493 21 505 14.5 c 128,-1,23
 517 8 517 8 530 6 c 128,-1,24
 543 4 543 4 555 4 c 0,25,26
 602 4 602 4 652.5 27.5 c 128,-1,27
 703 51 703 51 745 95 c 128,-1,28
 787 139 787 139 814 201.5 c 128,-1,29
 841 264 841 264 841 342 c 0,30,31
 841 414 841 414 816.5 479.5 c 128,-1,32
 792 545 792 545 744 595.5 c 128,-1,33
 696 646 696 646 625 675.5 c 128,-1,34
 554 705 554 705 461 705 c 0,35,36
 342 705 342 705 256.5 663 c 128,-1,37
 171 621 171 621 116.5 554.5 c 128,-1,38
 62 488 62 488 36.5 406 c 128,-1,39
 11 324 11 324 11 244 c 0,40,41
 11 153 11 153 41 74.5 c 128,-1,42
 71 -4 71 -4 128.5 -62 c 128,-1,43
 186 -120 186 -120 270.5 -153 c 128,-1,44
 355 -186 355 -186 463 -186 c 0,45,46
 531 -186 531 -186 594.5 -171 c 128,-1,47
 658 -156 658 -156 712 -127 c 0,48,49
 745 -109 745 -109 769.5 -89 c 128,-1,50
 794 -69 794 -69 811 -50.5 c 128,-1,51
 828 -32 828 -32 838.5 -17 c 128,-1,52
 849 -2 849 -2 854 6 c 1,53,-1
 752 6 l 1,54,55
 697 -55 697 -55 619.5 -79.5 c 128,-1,56
 542 -104 542 -104 460 -104 c 0,57,58
 373 -104 373 -104 305 -78 c 128,-1,59
 237 -52 237 -52 190 -6 c 128,-1,60
 143 40 143 40 118 103 c 128,-1,61
 93 166 93 166 93 241 c 0,62,63
 93 312 93 312 114.5 380.5 c 128,-1,64
 136 449 136 449 181 503 c 128,-1,65
 226 557 226 557 294.5 590 c 128,-1,66
 363 623 363 623 458 623 c 0,67,68
 534 623 534 623 590.5 600.5 c 128,-1,69
 647 578 647 578 684.5 539.5 c 128,-1,70
 722 501 722 501 740.5 450.5 c 128,-1,71
 759 400 759 400 759 344 c 0,72,73
 759 283 759 283 741 237 c 128,-1,74
 723 191 723 191 697.5 159.5 c 128,-1,75
 672 128 672 128 645 112 c 128,-1,76
 618 96 618 96 601 96 c 0,77,78
 593 96 593 96 587.5 101.5 c 128,-1,79
 582 107 582 107 582 116 c 0,80,81
 582 120 582 120 582 124 c 256,82,83
 582 128 582 128 586 147 c 2,84,-1
 653 515 l 1,85,-1
 541 515 l 1,86,-1
 531 461 l 1,0,1
287 196 m 0,87,88
 287 232 287 232 294.5 276 c 128,-1,89
 302 320 302 320 318.5 358 c 128,-1,90
 335 396 335 396 361 421.5 c 128,-1,91
 387 447 387 447 423 447 c 0,92,93
 450 447 450 447 466 434 c 128,-1,94
 482 421 482 421 490 403.5 c 128,-1,95
 498 386 498 386 500.5 369 c 128,-1,96
 503 352 503 352 503 343 c 0,97,98
 503 329 503 329 500.5 305 c 128,-1,99
 498 281 498 281 492 252 c 128,-1,100
 486 223 486 223 476 193 c 128,-1,101
 466 163 466 163 451 139 c 128,-1,102
 436 115 436 115 415.5 99.5 c 128,-1,103
 395 84 395 84 368 84 c 0,104,105
 331 84 331 84 309 115 c 128,-1,106
 287 146 287 146 287 196 c 0,87,88
EndSplineSet
Validated: 9
EndChar

StartChar: A
Encoding: 65 65 33
Width: 750
GlyphClass: 1
Flags: W
LayerCount: 2
Fore
SplineSet
506 140 m 1,0,-1
 518 105 l 2,1,2
 527 77 527 77 535.5 55.5 c 128,-1,3
 544 34 544 34 555.5 19 c 128,-1,4
 567 4 567 4 582.5 -4 c 128,-1,5
 598 -12 598 -12 622 -12 c 0,6,7
 643 -12 643 -12 659.5 -4 c 128,-1,8
 676 4 676 4 687.5 16 c 128,-1,9
 699 28 699 28 705.5 42.5 c 128,-1,10
 712 57 712 57 712 71 c 0,11,12
 712 81 712 81 710.5 90 c 128,-1,13
 709 99 709 99 705.5 109.5 c 128,-1,14
 702 120 702 120 697 133.5 c 128,-1,15
 692 147 692 147 685 166 c 2,16,-1
 534 555 l 2,17,18
 521 589 521 589 511.5 613 c 128,-1,19
 502 637 502 637 493 654.5 c 128,-1,20
 484 672 484 672 475 683.5 c 128,-1,21
 466 695 466 695 454 703 c 0,22,23
 416 728 416 728 373 728 c 0,24,25
 347 728 347 728 327 720.5 c 128,-1,26
 307 713 307 713 291 702 c 0,27,28
 280 694 280 694 271 683 c 128,-1,29
 262 672 262 672 253.5 654.5 c 128,-1,30
 245 637 245 637 235 613 c 128,-1,31
 225 589 225 589 212 555 c 2,32,-1
 62 162 l 2,33,34
 54 142 54 142 49.5 129 c 128,-1,35
 45 116 45 116 42 105.5 c 128,-1,36
 39 95 39 95 38 86.5 c 128,-1,37
 37 78 37 78 37 68 c 0,38,39
 37 54 37 54 43.5 39.5 c 128,-1,40
 50 25 50 25 62 13.5 c 128,-1,41
 74 2 74 2 89.5 -5 c 128,-1,42
 105 -12 105 -12 123 -12 c 0,43,44
 147 -12 147 -12 162.5 -4 c 128,-1,45
 178 4 178 4 189 19 c 128,-1,46
 200 34 200 34 208 55.5 c 128,-1,47
 216 77 216 77 225 104 c 2,48,-1
 237 140 l 1,49,-1
 506 140 l 1,0,-1
283 277 m 1,50,-1
 371 541 l 1,51,-1
 460 277 l 1,52,-1
 283 277 l 1,50,-1
EndSplineSet
Validated: 9
EndChar

StartChar: B
Encoding: 66 66 34
Width: 750
GlyphClass: 1
Flags: W
LayerCount: 2
Fore
SplineSet
386 0 m 2,0,1
 410 0 410 0 436 0 c 256,2,3
 462 0 462 0 487.5 2 c 128,-1,4
 513 4 513 4 536.5 7.5 c 128,-1,5
 560 11 560 11 579 19 c 0,6,7
 633 40 633 40 668.5 89.5 c 128,-1,8
 704 139 704 139 704 206 c 0,9,10
 704 257 704 257 686 289.5 c 128,-1,11
 668 322 668 322 644 341 c 128,-1,12
 620 360 620 360 596.5 369 c 128,-1,13
 573 378 573 378 561 381 c 1,14,15
 571 385 571 385 588 393.5 c 128,-1,16
 605 402 605 402 622 419 c 0,17,18
 645 441 645 441 657.5 471.5 c 128,-1,19
 670 502 670 502 670 536 c 0,20,21
 670 587 670 587 644.5 627 c 128,-1,22
 619 667 619 667 583 687 c 0,23,24
 545 707 545 707 504.5 711.5 c 128,-1,25
 464 716 464 716 412 716 c 2,26,-1
 227 716 l 2,27,28
 198 716 198 716 178 715.5 c 128,-1,29
 158 715 158 715 144 712.5 c 128,-1,30
 130 710 130 710 120 704.5 c 128,-1,31
 110 699 110 699 100 689 c 0,32,33
 90 678 90 678 84.5 668.5 c 128,-1,34
 79 659 79 659 76.5 645.5 c 128,-1,35
 74 632 74 632 73.5 612.5 c 128,-1,36
 73 593 73 593 73 562 c 2,37,-1
 73 154 l 2,38,39
 73 125 73 125 73.5 105 c 128,-1,40
 74 85 74 85 76.5 70.5 c 128,-1,41
 79 56 79 56 84.5 46 c 128,-1,42
 90 36 90 36 100 27 c 0,43,44
 111 17 111 17 120.5 11.5 c 128,-1,45
 130 6 130 6 143.5 3.5 c 128,-1,46
 157 1 157 1 176.5 0.5 c 128,-1,47
 196 0 196 0 227 0 c 2,48,-1
 386 0 l 2,0,1
258 584 m 1,49,-1
 347 584 l 2,50,51
 374 584 374 584 400 583 c 128,-1,52
 426 582 426 582 446.5 575 c 128,-1,53
 467 568 467 568 479 553 c 128,-1,54
 491 538 491 538 491 510 c 0,55,56
 491 490 491 490 481 471 c 128,-1,57
 471 452 471 452 444 441 c 0,58,59
 436 438 436 438 422 436.5 c 128,-1,60
 408 435 408 435 393.5 434 c 128,-1,61
 379 433 379 433 367 433 c 0,62,63
 356 433 356 433 353 433 c 2,64,-1
 258 433 l 1,65,-1
 258 584 l 1,49,-1
258 306 m 1,66,-1
 372 306 l 2,67,68
 394 306 394 306 420 304.5 c 128,-1,69
 446 303 446 303 468 295 c 128,-1,70
 490 287 490 287 504.5 270 c 128,-1,71
 519 253 519 253 519 221 c 256,72,73
 519 189 519 189 505.5 172 c 128,-1,74
 492 155 492 155 471 147.5 c 128,-1,75
 450 140 450 140 425.5 138.5 c 128,-1,76
 401 137 401 137 380 137 c 2,77,-1
 258 137 l 1,78,-1
 258 306 l 1,66,-1
EndSplineSet
Validated: 9
EndChar

StartChar: C
Encoding: 67 67 35
Width: 750
GlyphClass: 1
Flags: W
LayerCount: 2
Fore
SplineSet
233 351 m 0,0,1
 233 362 233 362 233.5 383 c 128,-1,2
 234 404 234 404 238.5 430 c 128,-1,3
 243 456 243 456 253 483 c 128,-1,4
 263 510 263 510 281 532.5 c 128,-1,5
 299 555 299 555 326.5 569 c 128,-1,6
 354 583 354 583 394 583 c 0,7,8
 448 583 448 583 482 557 c 128,-1,9
 516 531 516 531 536 489 c 0,10,11
 541 477 541 477 547.5 465 c 128,-1,12
 554 453 554 453 563.5 443 c 128,-1,13
 573 433 573 433 586 427 c 128,-1,14
 599 421 599 421 619 421 c 0,15,16
 637 421 637 421 652 428.5 c 128,-1,17
 667 436 667 436 677.5 447.5 c 128,-1,18
 688 459 688 459 693.5 473.5 c 128,-1,19
 699 488 699 488 699 502 c 0,20,21
 699 530 699 530 683.5 569 c 128,-1,22
 668 608 668 608 632 643.5 c 128,-1,23
 596 679 596 679 537.5 703.5 c 128,-1,24
 479 728 479 728 393 728 c 0,25,26
 314 728 314 728 250.5 701.5 c 128,-1,27
 187 675 187 675 142 626.5 c 128,-1,28
 97 578 97 578 72.5 509 c 128,-1,29
 48 440 48 440 48 355 c 0,30,31
 48 325 48 325 51.5 291.5 c 128,-1,32
 55 258 55 258 65.5 223 c 128,-1,33
 76 188 76 188 94 153 c 128,-1,34
 112 118 112 118 142 86 c 0,35,36
 187 36 187 36 247.5 12 c 128,-1,37
 308 -12 308 -12 398 -12 c 0,38,39
 439 -12 439 -12 470.5 -7 c 128,-1,40
 502 -2 502 -2 527.5 7 c 128,-1,41
 553 16 553 16 573.5 29 c 128,-1,42
 594 42 594 42 612 58 c 0,43,44
 650 90 650 90 674.5 136.5 c 128,-1,45
 699 183 699 183 699 230 c 0,46,47
 699 266 699 266 674 288 c 128,-1,48
 649 310 649 310 618 310 c 0,49,50
 597 310 597 310 583 302.5 c 128,-1,51
 569 295 569 295 560 284.5 c 128,-1,52
 551 274 551 274 546 263 c 128,-1,53
 541 252 541 252 538 244 c 0,54,55
 531 226 531 226 521 206 c 128,-1,56
 511 186 511 186 494.5 169 c 128,-1,57
 478 152 478 152 453 141 c 128,-1,58
 428 130 428 130 392 130 c 0,59,60
 357 130 357 130 326 143.5 c 128,-1,61
 295 157 295 157 275 182 c 0,62,63
 266 193 266 193 258.5 207.5 c 128,-1,64
 251 222 251 222 245.5 242.5 c 128,-1,65
 240 263 240 263 236.5 289.5 c 128,-1,66
 233 316 233 316 233 351 c 0,0,1
EndSplineSet
Validated: 9
EndChar

StartChar: D
Encoding: 68 68 36
Width: 750
GlyphClass: 1
Flags: W
LayerCount: 2
Fore
SplineSet
74 154 m 2,0,1
 74 109 74 109 75.5 84 c 128,-1,2
 77 59 77 59 88 43 c 128,-1,3
 99 27 99 27 110.5 18 c 128,-1,4
 122 9 122 9 137.5 5 c 128,-1,5
 153 1 153 1 175 0.5 c 128,-1,6
 197 0 197 0 228 0 c 2,7,-1
 375 0 l 2,8,9
 436 0 436 0 493.5 15 c 128,-1,10
 551 30 551 30 589 63 c 0,11,12
 631 99 631 99 654 141 c 128,-1,13
 677 183 677 183 688.5 223.5 c 128,-1,14
 700 264 700 264 702 300 c 128,-1,15
 704 336 704 336 704 361 c 0,16,17
 704 455 704 455 675 532.5 c 128,-1,18
 646 610 646 610 578 661 c 0,19,20
 529 698 529 698 477 707 c 128,-1,21
 425 716 425 716 371 716 c 2,22,-1
 228 716 l 2,23,24
 199 716 199 716 179 715.5 c 128,-1,25
 159 715 159 715 145 712.5 c 128,-1,26
 131 710 131 710 121 704.5 c 128,-1,27
 111 699 111 699 101 689 c 0,28,29
 91 678 91 678 85.5 668.5 c 128,-1,30
 80 659 80 659 77.5 645.5 c 128,-1,31
 75 632 75 632 74.5 612.5 c 128,-1,32
 74 593 74 593 74 562 c 2,33,-1
 74 154 l 2,0,1
257 574 m 1,34,-1
 317 574 l 2,35,36
 356 574 356 574 392.5 570 c 128,-1,37
 429 566 429 566 457 545.5 c 128,-1,38
 485 525 485 525 502 481 c 128,-1,39
 519 437 519 437 519 356 c 0,40,41
 519 276 519 276 503 233 c 128,-1,42
 487 190 487 190 461 169.5 c 128,-1,43
 435 149 435 149 402.5 145.5 c 128,-1,44
 370 142 370 142 338 142 c 2,45,-1
 257 142 l 1,46,-1
 257 574 l 1,34,-1
EndSplineSet
Validated: 9
EndChar

StartChar: E
Encoding: 69 69 37
Width: 698
GlyphClass: 1
Flags: W
LayerCount: 2
Fore
SplineSet
258 579 m 1,0,-1
 536 579 l 2,1,2
 572 579 572 579 593.5 581 c 128,-1,3
 615 583 615 583 629 597 c 0,4,5
 650 620 650 620 650 648 c 0,6,7
 650 665 650 665 643 677.5 c 128,-1,8
 636 690 636 690 628 698 c 0,9,10
 614 712 614 712 593.5 714 c 128,-1,11
 573 716 573 716 536 716 c 2,12,-1
 229 716 l 2,13,14
 200 716 200 716 180 715.5 c 128,-1,15
 160 715 160 715 146 712.5 c 128,-1,16
 132 710 132 710 122 704.5 c 128,-1,17
 112 699 112 699 102 689 c 0,18,19
 92 678 92 678 86.5 668.5 c 128,-1,20
 81 659 81 659 78.5 645.5 c 128,-1,21
 76 632 76 632 75.5 612.5 c 128,-1,22
 75 593 75 593 75 562 c 2,23,-1
 75 154 l 2,24,25
 75 125 75 125 75.5 105 c 128,-1,26
 76 85 76 85 78.5 70.5 c 128,-1,27
 81 56 81 56 86.5 46 c 128,-1,28
 92 36 92 36 102 27 c 0,29,30
 113 17 113 17 122.5 11.5 c 128,-1,31
 132 6 132 6 145.5 3.5 c 128,-1,32
 159 1 159 1 178.5 0.5 c 128,-1,33
 198 0 198 0 229 0 c 2,34,-1
 544 0 l 2,35,36
 582 0 582 0 604 2.5 c 128,-1,37
 626 5 626 5 640 19 c 0,38,39
 662 41 662 41 662 71 c 0,40,41
 662 89 662 89 654.5 102 c 128,-1,42
 647 115 647 115 639 123 c 0,43,44
 625 137 625 137 603.5 139.5 c 128,-1,45
 582 142 582 142 544 142 c 2,46,-1
 258 142 l 1,47,-1
 258 309 l 1,48,-1
 512 309 l 2,49,50
 547 309 547 309 567.5 311 c 128,-1,51
 588 313 588 313 602 327 c 0,52,53
 623 348 623 348 623 376 c 0,54,55
 623 393 623 393 616 405.5 c 128,-1,56
 609 418 609 418 602 425 c 0,57,58
 588 439 588 439 568 441 c 128,-1,59
 548 443 548 443 512 443 c 2,60,-1
 258 443 l 1,61,-1
 258 579 l 1,0,-1
EndSplineSet
Validated: 9
EndChar

StartChar: F
Encoding: 70 70 38
Width: 635
GlyphClass: 1
Flags: W
LayerCount: 2
Fore
SplineSet
254 579 m 1,0,-1
 488 579 l 2,1,2
 525 579 525 579 546 581 c 128,-1,3
 567 583 567 583 581 597 c 0,4,5
 592 607 592 607 597 620 c 128,-1,6
 602 633 602 633 602 647 c 0,7,8
 602 665 602 665 595.5 677.5 c 128,-1,9
 589 690 589 690 581 698 c 0,10,11
 567 712 567 712 546.5 714 c 128,-1,12
 526 716 526 716 488 716 c 2,13,-1
 225 716 l 2,14,15
 196 716 196 716 176 715.5 c 128,-1,16
 156 715 156 715 141.5 712.5 c 128,-1,17
 127 710 127 710 117 704.5 c 128,-1,18
 107 699 107 699 98 689 c 0,19,20
 88 678 88 678 82.5 668.5 c 128,-1,21
 77 659 77 659 74.5 645.5 c 128,-1,22
 72 632 72 632 71.5 612.5 c 128,-1,23
 71 593 71 593 71 562 c 2,24,-1
 71 140 l 2,25,26
 71 91 71 91 74 62.5 c 128,-1,27
 77 34 77 34 96 16 c 0,28,29
 110 2 110 2 127.5 -5 c 128,-1,30
 145 -12 145 -12 163 -12 c 0,31,32
 186 -12 186 -12 203 -3 c 128,-1,33
 220 6 220 6 230 17 c 0,34,35
 248 35 248 35 251 62.5 c 128,-1,36
 254 90 254 90 254 140 c 2,37,-1
 254 299 l 1,38,-1
 445 299 l 2,39,40
 480 299 480 299 500.5 301 c 128,-1,41
 521 303 521 303 534 316 c 0,42,43
 555 337 555 337 555 365 c 0,44,45
 555 382 555 382 548 394.5 c 128,-1,46
 541 407 541 407 534 414 c 0,47,48
 521 427 521 427 500.5 429 c 128,-1,49
 480 431 480 431 445 431 c 2,50,-1
 254 431 l 1,51,-1
 254 579 l 1,0,-1
EndSplineSet
Validated: 9
EndChar

StartChar: G
Encoding: 71 71 39
Width: 802
GlyphClass: 1
Flags: W
LayerCount: 2
Fore
SplineSet
574 166 m 1,0,1
 542 150 542 150 501.5 138.5 c 128,-1,2
 461 127 461 127 421 127 c 0,3,4
 370 127 370 127 334 143.5 c 128,-1,5
 298 160 298 160 275 190.5 c 128,-1,6
 252 221 252 221 241.5 265 c 128,-1,7
 231 309 231 309 231 364 c 0,8,9
 231 420 231 420 242.5 456.5 c 128,-1,10
 254 493 254 493 270 517 c 0,11,12
 297 559 297 559 336.5 572.5 c 128,-1,13
 376 586 376 586 413 586 c 0,14,15
 426 586 426 586 443.5 585 c 128,-1,16
 461 584 461 584 480 576 c 0,17,18
 494 570 494 570 503.5 564.5 c 128,-1,19
 513 559 513 559 521.5 550 c 128,-1,20
 530 541 530 541 539 527.5 c 128,-1,21
 548 514 548 514 562 493 c 0,22,23
 568 485 568 485 585 472.5 c 128,-1,24
 602 460 602 460 630 460 c 0,25,26
 652 460 652 460 668.5 468 c 128,-1,27
 685 476 685 476 695.5 488 c 128,-1,28
 706 500 706 500 711.5 514.5 c 128,-1,29
 717 529 717 529 717 541 c 0,30,31
 717 559 717 559 704.5 590.5 c 128,-1,32
 692 622 692 622 659.5 652.5 c 128,-1,33
 627 683 627 683 571.5 705.5 c 128,-1,34
 516 728 516 728 429 728 c 0,35,36
 336 728 336 728 267.5 704.5 c 128,-1,37
 199 681 199 681 151 634 c 0,38,39
 95 580 95 580 70.5 508 c 128,-1,40
 46 436 46 436 46 359 c 0,41,42
 46 287 46 287 66.5 220 c 128,-1,43
 87 153 87 153 131.5 101.5 c 128,-1,44
 176 50 176 50 246 19 c 128,-1,45
 316 -12 316 -12 415 -12 c 0,46,47
 475 -12 475 -12 524.5 -1 c 128,-1,48
 574 10 574 10 611 24 c 128,-1,49
 648 38 648 38 671 51.5 c 128,-1,50
 694 65 694 65 700 70 c 0,51,52
 715 81 715 81 724 92 c 128,-1,53
 733 103 733 103 737.5 115 c 128,-1,54
 742 127 742 127 743.5 141 c 128,-1,55
 745 155 745 155 745 172 c 2,56,-1
 745 263 l 2,57,58
 745 303 745 303 737 327 c 128,-1,59
 729 351 729 351 714 364 c 128,-1,60
 699 377 699 377 677.5 381 c 128,-1,61
 656 385 656 385 630 385 c 2,62,-1
 491 385 l 2,63,64
 480 385 480 385 465 383.5 c 128,-1,65
 450 382 450 382 437 374 c 0,66,67
 422 365 422 365 414 348 c 128,-1,68
 406 331 406 331 406 317 c 256,69,70
 406 303 406 303 413 289 c 128,-1,71
 420 275 420 275 432 266 c 0,72,73
 443 258 443 258 460 254.5 c 128,-1,74
 477 251 477 251 516 251 c 2,75,-1
 574 251 l 1,76,-1
 574 166 l 1,0,1
EndSplineSet
Validated: 9
EndChar

StartChar: H
Encoding: 72 72 40
Width: 781
GlyphClass: 1
Flags: W
LayerCount: 2
Fore
SplineSet
259 449 m 1,0,-1
 259 576 l 2,1,2
 259 625 259 625 256.5 653 c 128,-1,3
 254 681 254 681 235 700 c 0,4,5
 207 728 207 728 167 728 c 0,6,7
 144 728 144 728 127 718.5 c 128,-1,8
 110 709 110 709 100 699 c 0,9,10
 82 681 82 681 79 653.5 c 128,-1,11
 76 626 76 626 76 576 c 2,12,-1
 76 140 l 2,13,14
 76 91 76 91 79 62.5 c 128,-1,15
 82 34 82 34 100 16 c 0,16,17
 114 2 114 2 132 -5 c 128,-1,18
 150 -12 150 -12 168 -12 c 0,19,20
 191 -12 191 -12 208 -2.5 c 128,-1,21
 225 7 225 7 235 17 c 0,22,23
 253 35 253 35 256 62.5 c 128,-1,24
 259 90 259 90 259 140 c 2,25,-1
 259 301 l 1,26,-1
 522 301 l 1,27,-1
 522 140 l 2,28,29
 522 91 522 91 525 62.5 c 128,-1,30
 528 34 528 34 546 16 c 0,31,32
 574 -12 574 -12 614 -12 c 0,33,34
 637 -12 637 -12 653.5 -3 c 128,-1,35
 670 6 670 6 681 17 c 0,36,37
 699 35 699 35 702 62.5 c 128,-1,38
 705 90 705 90 705 140 c 2,39,-1
 705 575 l 2,40,41
 705 625 705 625 702 653 c 128,-1,42
 699 681 699 681 680 700 c 0,43,44
 666 714 666 714 648.5 721 c 128,-1,45
 631 728 631 728 613 728 c 0,46,47
 590 728 590 728 573.5 719 c 128,-1,48
 557 710 557 710 546 699 c 0,49,50
 528 681 528 681 525 653 c 128,-1,51
 522 625 522 625 522 575 c 2,52,-1
 522 449 l 1,53,-1
 259 449 l 1,0,-1
EndSplineSet
Validated: 9
EndChar

StartChar: I
Encoding: 73 73 41
Width: 333
GlyphClass: 1
Flags: W
LayerCount: 2
Fore
SplineSet
258 576 m 2,0,1
 258 625 258 625 255 653 c 128,-1,2
 252 681 252 681 234 700 c 0,3,4
 206 728 206 728 166 728 c 0,5,6
 143 728 143 728 126 718.5 c 128,-1,7
 109 709 109 709 99 699 c 0,8,9
 81 681 81 681 78 653.5 c 128,-1,10
 75 626 75 626 75 576 c 2,11,-1
 75 140 l 2,12,13
 75 91 75 91 78 62.5 c 128,-1,14
 81 34 81 34 99 16 c 0,15,16
 127 -12 127 -12 167 -12 c 0,17,18
 190 -12 190 -12 207 -3 c 128,-1,19
 224 6 224 6 234 17 c 0,20,21
 252 35 252 35 255 62.5 c 128,-1,22
 258 90 258 90 258 140 c 2,23,-1
 258 576 l 2,0,1
EndSplineSet
Validated: 9
EndChar

StartChar: J
Encoding: 74 74 42
Width: 615
GlyphClass: 1
Flags: W
LayerCount: 2
Fore
SplineSet
537 576 m 2,0,1
 537 625 537 625 534 653 c 128,-1,2
 531 681 531 681 512 700 c 0,3,4
 499 714 499 714 481 721 c 128,-1,5
 463 728 463 728 445 728 c 0,6,7
 422 728 422 728 405 719 c 128,-1,8
 388 710 388 710 378 699 c 0,9,10
 360 681 360 681 357 653 c 128,-1,11
 354 625 354 625 354 576 c 2,12,-1
 354 264 l 2,13,14
 354 243 354 243 352.5 219.5 c 128,-1,15
 351 196 351 196 343.5 177 c 128,-1,16
 336 158 336 158 320 145.5 c 128,-1,17
 304 133 304 133 274 133 c 0,18,19
 247 133 247 133 227 148 c 128,-1,20
 207 163 207 163 198 200 c 0,21,22
 191 230 191 230 184.5 252.5 c 128,-1,23
 178 275 178 275 168 290.5 c 128,-1,24
 158 306 158 306 143 314 c 128,-1,25
 128 322 128 322 104 322 c 0,26,27
 99 322 99 322 85.5 320 c 128,-1,28
 72 318 72 318 57 310 c 128,-1,29
 42 302 42 302 30.5 284 c 128,-1,30
 19 266 19 266 19 235 c 0,31,32
 19 195 19 195 30 159 c 0,33,34
 45 105 45 105 71 71.5 c 128,-1,35
 97 38 97 38 130 19.5 c 128,-1,36
 163 1 163 1 201 -5.5 c 128,-1,37
 239 -12 239 -12 278 -12 c 0,38,39
 308 -12 308 -12 338.5 -7.5 c 128,-1,40
 369 -3 369 -3 397.5 8.5 c 128,-1,41
 426 20 426 20 451 39 c 128,-1,42
 476 58 476 58 495 87 c 0,43,44
 511 110 511 110 519.5 136.5 c 128,-1,45
 528 163 528 163 532 190 c 128,-1,46
 536 217 536 217 536.5 244 c 128,-1,47
 537 271 537 271 537 295 c 2,48,-1
 537 576 l 2,0,1
EndSplineSet
Validated: 9
EndChar

StartChar: K
Encoding: 75 75 43
Width: 781
GlyphClass: 1
Flags: W
LayerCount: 2
Fore
SplineSet
260 412 m 1,0,-1
 260 576 l 2,1,2
 260 625 260 625 257 653.5 c 128,-1,3
 254 682 254 682 236 700 c 0,4,5
 222 714 222 714 204 721 c 128,-1,6
 186 728 186 728 168 728 c 0,7,8
 145 728 145 728 128 718.5 c 128,-1,9
 111 709 111 709 101 699 c 0,10,11
 83 681 83 681 80 653.5 c 128,-1,12
 77 626 77 626 77 576 c 2,13,-1
 77 140 l 2,14,15
 77 91 77 91 80 62.5 c 128,-1,16
 83 34 83 34 101 16 c 0,17,18
 115 2 115 2 133 -5 c 128,-1,19
 151 -12 151 -12 169 -12 c 0,20,21
 192 -12 192 -12 209 -2.5 c 128,-1,22
 226 7 226 7 236 17 c 0,23,24
 254 35 254 35 257 62.5 c 128,-1,25
 260 90 260 90 260 140 c 2,26,-1
 260 204 l 1,27,-1
 375 316 l 1,28,-1
 493 102 l 2,29,30
 508 74 508 74 521 52.5 c 128,-1,31
 534 31 534 31 549 17 c 128,-1,32
 564 3 564 3 583 -4.5 c 128,-1,33
 602 -12 602 -12 630 -12 c 0,34,35
 656 -12 656 -12 673 -4 c 128,-1,36
 690 4 690 4 699.5 15.5 c 128,-1,37
 709 27 709 27 713 39.5 c 128,-1,38
 717 52 717 52 717 60 c 0,39,40
 717 92 717 92 703 119.5 c 128,-1,41
 689 147 689 147 664 186 c 2,42,-1
 502 441 l 1,43,-1
 635 570 l 2,44,45
 638 573 638 573 644.5 580.5 c 128,-1,46
 651 588 651 588 657 598.5 c 128,-1,47
 663 609 663 609 668 621 c 128,-1,48
 673 633 673 633 673 645 c 0,49,50
 673 680 673 680 648.5 704 c 128,-1,51
 624 728 624 728 583 728 c 0,52,53
 549 728 549 728 529 710.5 c 128,-1,54
 509 693 509 693 492 674 c 2,55,-1
 260 412 l 1,0,-1
EndSplineSet
Validated: 9
EndChar

StartChar: L
Encoding: 76 76 44
Width: 635
GlyphClass: 1
Flags: W
LayerCount: 2
Fore
SplineSet
255 148 m 1,0,-1
 255 576 l 2,1,2
 255 625 255 625 252 653 c 128,-1,3
 249 681 249 681 231 700 c 0,4,5
 203 728 203 728 163 728 c 0,6,7
 140 728 140 728 123 718.5 c 128,-1,8
 106 709 106 709 96 699 c 0,9,10
 78 681 78 681 75 653.5 c 128,-1,11
 72 626 72 626 72 576 c 2,12,-1
 72 154 l 2,13,14
 72 125 72 125 72.5 105 c 128,-1,15
 73 85 73 85 75.5 70.5 c 128,-1,16
 78 56 78 56 83.5 46 c 128,-1,17
 89 36 89 36 99 27 c 0,18,19
 110 17 110 17 119.5 11.5 c 128,-1,20
 129 6 129 6 142.5 3.5 c 128,-1,21
 156 1 156 1 175.5 0.5 c 128,-1,22
 195 0 195 0 226 0 c 2,23,-1
 496 0 l 2,24,25
 536 0 536 0 559 2.5 c 128,-1,26
 582 5 582 5 597 20 c 0,27,28
 620 43 620 43 620 75 c 0,29,30
 620 94 620 94 612 107.5 c 128,-1,31
 604 121 604 121 596 129 c 0,32,33
 582 143 582 143 559 145.5 c 128,-1,34
 536 148 536 148 496 148 c 2,35,-1
 255 148 l 1,0,-1
EndSplineSet
Validated: 9
EndChar

StartChar: M
Encoding: 77 77 45
Width: 885
GlyphClass: 1
Flags: W
LayerCount: 2
Fore
SplineSet
443 254 m 1,0,-1
 355 587 l 2,1,2
 349 611 349 611 344.5 627 c 128,-1,3
 340 643 340 643 336.5 654 c 128,-1,4
 333 665 333 665 329 672 c 128,-1,5
 325 679 325 679 320 685 c 0,6,7
 310 696 310 696 300 702 c 128,-1,8
 290 708 290 708 276 711 c 128,-1,9
 262 714 262 714 242.5 715 c 128,-1,10
 223 716 223 716 195 716 c 0,11,12
 160 716 160 716 137.5 712.5 c 128,-1,13
 115 709 115 709 95 689 c 0,14,15
 85 678 85 678 79.5 668.5 c 128,-1,16
 74 659 74 659 71.5 645.5 c 128,-1,17
 69 632 69 632 68.5 612 c 128,-1,18
 68 592 68 592 68 562 c 2,19,-1
 68 119 l 2,20,21
 68 77 68 77 70.5 52.5 c 128,-1,22
 73 28 73 28 89 12 c 0,23,24
 113 -12 113 -12 147 -12 c 0,25,26
 167 -12 167 -12 181.5 -4 c 128,-1,27
 196 4 196 4 205 13 c 0,28,29
 221 28 221 28 223 52 c 128,-1,30
 225 76 225 76 225 119 c 2,31,-1
 225 555 l 1,32,-1
 336 119 l 2,33,34
 348 72 348 72 356.5 47 c 128,-1,35
 365 22 365 22 382 9 c 0,36,37
 409 -12 409 -12 442 -12 c 0,38,39
 461 -12 461 -12 476 -5.5 c 128,-1,40
 491 1 491 1 502 9 c 0,41,42
 519 23 519 23 527.5 47.5 c 128,-1,43
 536 72 536 72 548 119 c 2,44,-1
 659 555 l 1,45,-1
 659 119 l 2,46,47
 659 77 659 77 661.5 52.5 c 128,-1,48
 664 28 664 28 680 12 c 0,49,50
 704 -12 704 -12 738 -12 c 0,51,52
 758 -12 758 -12 772.5 -4 c 128,-1,53
 787 4 787 4 796 13 c 0,54,55
 811 28 811 28 813.5 52 c 128,-1,56
 816 76 816 76 816 119 c 2,57,-1
 816 562 l 2,58,59
 816 609 816 609 814.5 633 c 128,-1,60
 813 657 813 657 802 673 c 0,61,62
 782 703 782 703 755.5 709.5 c 128,-1,63
 729 716 729 716 691 716 c 0,64,65
 643 716 643 716 616.5 712.5 c 128,-1,66
 590 709 590 709 574.5 696 c 128,-1,67
 559 683 559 683 550.5 657 c 128,-1,68
 542 631 542 631 530 587 c 2,69,-1
 443 254 l 1,0,-1
EndSplineSet
Validated: 9
EndChar

StartChar: N
Encoding: 78 78 46
Width: 781
GlyphClass: 1
Flags: W
LayerCount: 2
Fore
SplineSet
532 279 m 1,0,-1
 314 618 l 2,1,2
 294 648 294 648 280 669 c 128,-1,3
 266 690 266 690 252 703 c 128,-1,4
 238 716 238 716 222.5 722 c 128,-1,5
 207 728 207 728 186 728 c 0,6,7
 158 728 158 728 140.5 718.5 c 128,-1,8
 123 709 123 709 114 701 c 0,9,10
 100 689 100 689 92.5 677 c 128,-1,11
 85 665 85 665 81.5 648 c 128,-1,12
 78 631 78 631 77.5 607 c 128,-1,13
 77 583 77 583 77 548 c 2,14,-1
 77 130 l 2,15,16
 77 84 77 84 80 58 c 128,-1,17
 83 32 83 32 100 14 c 0,18,19
 112 1 112 1 129 -5.5 c 128,-1,20
 146 -12 146 -12 163 -12 c 0,21,22
 185 -12 185 -12 200.5 -3.5 c 128,-1,23
 216 5 216 5 226 15 c 0,24,25
 234 23 234 23 238.5 33.5 c 128,-1,26
 243 44 243 44 245 57.5 c 128,-1,27
 247 71 247 71 247.5 89 c 128,-1,28
 248 107 248 107 248 130 c 2,29,-1
 248 430 l 1,30,-1
 461 100 l 2,31,32
 481 69 481 69 496 47.5 c 128,-1,33
 511 26 511 26 525 13 c 128,-1,34
 539 0 539 0 554.5 -6 c 128,-1,35
 570 -12 570 -12 592 -12 c 0,36,37
 621 -12 621 -12 638.5 -2.5 c 128,-1,38
 656 7 656 7 666 15 c 0,39,40
 680 27 680 27 687.5 39.5 c 128,-1,41
 695 52 695 52 698.5 69.5 c 128,-1,42
 702 87 702 87 702.5 111 c 128,-1,43
 703 135 703 135 703 171 c 2,44,-1
 703 585 l 2,45,46
 703 631 703 631 700.5 658 c 128,-1,47
 698 685 698 685 681 702 c 0,48,49
 668 714 668 714 651 721 c 128,-1,50
 634 728 634 728 617 728 c 0,51,52
 595 728 595 728 579.5 719 c 128,-1,53
 564 710 564 710 555 701 c 0,54,55
 538 684 538 684 535 658 c 128,-1,56
 532 632 532 632 532 585 c 2,57,-1
 532 279 l 1,0,-1
EndSplineSet
Validated: 9
EndChar

StartChar: O
Encoding: 79 79 47
Width: 802
GlyphClass: 1
Flags: W
LayerCount: 2
Fore
SplineSet
42 361 m 0,0,1
 42 279 42 279 64 210.5 c 128,-1,2
 86 142 86 142 131 92.5 c 128,-1,3
 176 43 176 43 243.5 15.5 c 128,-1,4
 311 -12 311 -12 402 -12 c 0,5,6
 496 -12 496 -12 564 17 c 128,-1,7
 632 46 632 46 675.5 96.5 c 128,-1,8
 719 147 719 147 739.5 214.5 c 128,-1,9
 760 282 760 282 760 359 c 0,10,11
 760 437 760 437 739 504.5 c 128,-1,12
 718 572 718 572 673.5 621.5 c 128,-1,13
 629 671 629 671 560.5 699.5 c 128,-1,14
 492 728 492 728 397 728 c 0,15,16
 304 728 304 728 237 698.5 c 128,-1,17
 170 669 170 669 126.5 618.5 c 128,-1,18
 83 568 83 568 62.5 501.5 c 128,-1,19
 42 435 42 435 42 361 c 0,0,1
227 361 m 0,20,21
 227 468 227 468 271.5 525.5 c 128,-1,22
 316 583 316 583 401 583 c 0,23,24
 444 583 444 583 474 569.5 c 128,-1,25
 504 556 504 556 523.5 534.5 c 128,-1,26
 543 513 543 513 553.5 487 c 128,-1,27
 564 461 564 461 568.5 436.5 c 128,-1,28
 573 412 573 412 574 391.5 c 128,-1,29
 575 371 575 371 575 361 c 0,30,31
 575 327 575 327 569.5 286.5 c 128,-1,32
 564 246 564 246 545 214 c 0,33,34
 523 177 523 177 486 155 c 128,-1,35
 449 133 449 133 400 133 c 0,36,37
 350 133 350 133 319.5 153 c 128,-1,38
 289 173 289 173 275 191 c 0,39,40
 266 202 266 202 257.5 216 c 128,-1,41
 249 230 249 230 242.5 250.5 c 128,-1,42
 236 271 236 271 231.5 298 c 128,-1,43
 227 325 227 325 227 361 c 0,20,21
EndSplineSet
Validated: 9
EndChar

StartChar: P
Encoding: 80 80 48
Width: 698
GlyphClass: 1
Flags: W
LayerCount: 2
Fore
SplineSet
258 268 m 1,0,-1
 366 268 l 2,1,2
 382 268 382 268 404 268.5 c 128,-1,3
 426 269 426 269 450 271.5 c 128,-1,4
 474 274 474 274 498.5 280 c 128,-1,5
 523 286 523 286 544 297 c 0,6,7
 584 318 584 318 606 347 c 128,-1,8
 628 376 628 376 638.5 404.5 c 128,-1,9
 649 433 649 433 651 458 c 128,-1,10
 653 483 653 483 653 496 c 0,11,12
 653 563 653 563 633 601.5 c 128,-1,13
 613 640 613 640 588 662 c 0,14,15
 567 680 567 680 544.5 691 c 128,-1,16
 522 702 522 702 495.5 707.5 c 128,-1,17
 469 713 469 713 438 714.5 c 128,-1,18
 407 716 407 716 369 716 c 2,19,-1
 229 716 l 2,20,21
 200 716 200 716 180 715.5 c 128,-1,22
 160 715 160 715 145.5 712.5 c 128,-1,23
 131 710 131 710 121 704.5 c 128,-1,24
 111 699 111 699 102 689 c 0,25,26
 92 678 92 678 86.5 668.5 c 128,-1,27
 81 659 81 659 78.5 645.5 c 128,-1,28
 76 632 76 632 75.5 612.5 c 128,-1,29
 75 593 75 593 75 562 c 2,30,-1
 75 140 l 2,31,32
 75 91 75 91 78 62.5 c 128,-1,33
 81 34 81 34 99 16 c 0,34,35
 113 2 113 2 131 -5 c 128,-1,36
 149 -12 149 -12 167 -12 c 0,37,38
 190 -12 190 -12 206.5 -3 c 128,-1,39
 223 6 223 6 234 17 c 0,40,41
 252 35 252 35 255 62.5 c 128,-1,42
 258 90 258 90 258 140 c 2,43,-1
 258 268 l 1,0,-1
258 583 m 1,44,-1
 325 583 l 2,45,46
 374 583 374 583 395 580 c 128,-1,47
 416 577 416 577 428 569 c 0,48,49
 449 556 449 556 459.5 535.5 c 128,-1,50
 470 515 470 515 470 492 c 0,51,52
 470 464 470 464 456.5 444 c 128,-1,53
 443 424 443 424 423 414 c 0,54,55
 413 409 413 409 399.5 406.5 c 128,-1,56
 386 404 386 404 372.5 402.5 c 128,-1,57
 359 401 359 401 346 401 c 256,58,59
 333 401 333 401 325 401 c 2,60,-1
 258 401 l 1,61,-1
 258 583 l 1,44,-1
EndSplineSet
Validated: 9
EndChar

StartChar: Q
Encoding: 81 81 49
Width: 802
GlyphClass: 1
Flags: W
LayerCount: 2
Fore
SplineSet
676 98 m 1,0,1
 693 118 693 118 708.5 142.5 c 128,-1,2
 724 167 724 167 735.5 198.5 c 128,-1,3
 747 230 747 230 753.5 269.5 c 128,-1,4
 760 309 760 309 760 359 c 0,5,6
 760 446 760 446 736 514.5 c 128,-1,7
 712 583 712 583 666 630.5 c 128,-1,8
 620 678 620 678 553 703 c 128,-1,9
 486 728 486 728 401 728 c 0,10,11
 314 728 314 728 247 702 c 128,-1,12
 180 676 180 676 134.5 627.5 c 128,-1,13
 89 579 89 579 65.5 510 c 128,-1,14
 42 441 42 441 42 356 c 0,15,16
 42 273 42 273 65.5 205 c 128,-1,17
 89 137 89 137 134.5 89 c 128,-1,18
 180 41 180 41 246 14.5 c 128,-1,19
 312 -12 312 -12 397 -12 c 0,20,21
 466 -12 466 -12 508.5 -0.5 c 128,-1,22
 551 11 551 11 572 19 c 1,23,24
 597 0 597 0 621.5 -17 c 128,-1,25
 646 -34 646 -34 668.5 -47 c 128,-1,26
 691 -60 691 -60 711.5 -68 c 128,-1,27
 732 -76 732 -76 750 -76 c 0,28,29
 771 -76 771 -76 790 -59 c 128,-1,30
 809 -42 809 -42 809 -14 c 0,31,32
 809 6 809 6 801 17 c 128,-1,33
 793 28 793 28 786 33 c 0,34,35
 781 37 781 37 765.5 46.5 c 128,-1,36
 750 56 750 56 732 65.5 c 128,-1,37
 714 75 714 75 698 84 c 128,-1,38
 682 93 682 93 676 98 c 1,0,1
449 138 m 1,39,40
 441 136 441 136 428 133 c 128,-1,41
 415 130 415 130 397 130 c 0,42,43
 348 130 348 130 313 153.5 c 128,-1,44
 278 177 278 177 258 212 c 0,45,46
 239 245 239 245 233 283.5 c 128,-1,47
 227 322 227 322 227 358 c 0,48,49
 227 400 227 400 235 441 c 128,-1,50
 243 482 243 482 266 515 c 0,51,52
 291 550 291 550 325.5 566.5 c 128,-1,53
 360 583 360 583 401 583 c 0,54,55
 434 583 434 583 465.5 571.5 c 128,-1,56
 497 560 497 560 521.5 534 c 128,-1,57
 546 508 546 508 560.5 466.5 c 128,-1,58
 575 425 575 425 575 365 c 0,59,60
 575 325 575 325 571 297 c 128,-1,61
 567 269 567 269 561 249.5 c 128,-1,62
 555 230 555 230 548 217.5 c 128,-1,63
 541 205 541 205 535 195 c 1,64,65
 526 202 526 202 506.5 214.5 c 128,-1,66
 487 227 487 227 464 240 c 128,-1,67
 441 253 441 253 416 262.5 c 128,-1,68
 391 272 391 272 372 272 c 0,69,70
 354 272 354 272 341.5 258.5 c 128,-1,71
 329 245 329 245 329 231 c 0,72,73
 329 207 329 207 346 195.5 c 128,-1,74
 363 184 363 184 383 175 c 0,75,76
 389 173 389 173 397.5 169 c 128,-1,77
 406 165 406 165 415.5 159.5 c 128,-1,78
 425 154 425 154 434 148.5 c 128,-1,79
 443 143 443 143 449 138 c 1,39,40
EndSplineSet
Validated: 9
EndChar

StartChar: R
Encoding: 82 82 50
Width: 750
GlyphClass: 1
Flags: W
LayerCount: 2
Fore
SplineSet
479 98 m 2,0,1
 495 70 495 70 509 49 c 128,-1,2
 523 28 523 28 537.5 13.5 c 128,-1,3
 552 -1 552 -1 569 -8.5 c 128,-1,4
 586 -16 586 -16 609 -16 c 0,5,6
 644 -16 644 -16 669 4.5 c 128,-1,7
 694 25 694 25 694 57 c 0,8,9
 694 72 694 72 687 93 c 128,-1,10
 680 114 680 114 669.5 136.5 c 128,-1,11
 659 159 659 159 646.5 180.5 c 128,-1,12
 634 202 634 202 622 219 c 0,13,14
 596 256 596 256 572.5 277 c 128,-1,15
 549 298 549 298 515 317 c 1,16,17
 537 322 537 322 564 331.5 c 128,-1,18
 591 341 591 341 619 361 c 0,19,20
 654 385 654 385 672.5 427 c 128,-1,21
 691 469 691 469 691 516 c 0,22,23
 691 540 691 540 685 567 c 128,-1,24
 679 594 679 594 665.5 618.5 c 128,-1,25
 652 643 652 643 630 663.5 c 128,-1,26
 608 684 608 684 575 696 c 0,27,28
 537 710 537 710 492 713 c 128,-1,29
 447 716 447 716 411 716 c 2,30,-1
 228 716 l 2,31,32
 199 716 199 716 179 715.5 c 128,-1,33
 159 715 159 715 145 712.5 c 128,-1,34
 131 710 131 710 121 704.5 c 128,-1,35
 111 699 111 699 102 689 c 0,36,37
 92 678 92 678 86.5 668.5 c 128,-1,38
 81 659 81 659 78.5 645.5 c 128,-1,39
 76 632 76 632 75.5 612.5 c 128,-1,40
 75 593 75 593 75 562 c 2,41,-1
 75 140 l 2,42,43
 75 91 75 91 78 62.5 c 128,-1,44
 81 34 81 34 99 16 c 0,45,46
 127 -12 127 -12 167 -12 c 0,47,48
 190 -12 190 -12 206.5 -3 c 128,-1,49
 223 6 223 6 234 17 c 0,50,51
 252 35 252 35 255 62.5 c 128,-1,52
 258 90 258 90 258 140 c 2,53,-1
 258 295 l 1,54,-1
 282 295 l 2,55,56
 304 295 304 295 321 292 c 128,-1,57
 338 289 338 289 354 278.5 c 128,-1,58
 370 268 370 268 387 246 c 128,-1,59
 404 224 404 224 426 187 c 2,60,-1
 479 98 l 2,0,1
258 583 m 1,61,-1
 363 583 l 2,62,63
 388 583 388 583 413.5 581.5 c 128,-1,64
 439 580 439 580 459.5 572.5 c 128,-1,65
 480 565 480 565 493 549 c 128,-1,66
 506 533 506 533 506 503 c 256,67,68
 506 473 506 473 492.5 456 c 128,-1,69
 479 439 479 439 457.5 431 c 128,-1,70
 436 423 436 423 409.5 421.5 c 128,-1,71
 383 420 383 420 358 420 c 2,72,-1
 258 420 l 1,73,-1
 258 583 l 1,61,-1
EndSplineSet
Validated: 9
EndChar

StartChar: S
Encoding: 83 83 51
Width: 698
GlyphClass: 1
Flags: W
LayerCount: 2
Fore
SplineSet
654 223 m 0,0,1
 654 267 654 267 634.5 311.5 c 128,-1,2
 615 356 615 356 579 382 c 0,3,4
 560 395 560 395 534.5 407 c 128,-1,5
 509 419 509 419 482 429 c 128,-1,6
 455 439 455 439 430 446 c 128,-1,7
 405 453 405 453 387 457 c 0,8,9
 354 464 354 464 326.5 471.5 c 128,-1,10
 299 479 299 479 279 488.5 c 128,-1,11
 259 498 259 498 247.5 510 c 128,-1,12
 236 522 236 522 236 540 c 0,13,14
 236 569 236 569 266.5 585 c 128,-1,15
 297 601 297 601 341 601 c 0,16,17
 353 601 353 601 368.5 599.5 c 128,-1,18
 384 598 384 598 400 590 c 0,19,20
 411 585 411 585 419 579.5 c 128,-1,21
 427 574 427 574 435 565.5 c 128,-1,22
 443 557 443 557 452 544.5 c 128,-1,23
 461 532 461 532 475 513 c 0,24,25
 478 509 478 509 484 502.5 c 128,-1,26
 490 496 490 496 499 489.5 c 128,-1,27
 508 483 508 483 520.5 478.5 c 128,-1,28
 533 474 533 474 548 474 c 0,29,30
 580 474 580 474 600 496 c 128,-1,31
 620 518 620 518 620 555 c 0,32,33
 620 567 620 567 610 596 c 128,-1,34
 600 625 600 625 571.5 654 c 128,-1,35
 543 683 543 683 490.5 705.5 c 128,-1,36
 438 728 438 728 353 728 c 0,37,38
 291 728 291 728 238 715 c 128,-1,39
 185 702 185 702 146.5 676.5 c 128,-1,40
 108 651 108 651 86.5 613 c 128,-1,41
 65 575 65 575 65 525 c 0,42,43
 65 465 65 465 91.5 426.5 c 128,-1,44
 118 388 118 388 155.5 364 c 128,-1,45
 193 340 193 340 235 327 c 128,-1,46
 277 314 277 314 308 307 c 0,47,48
 343 298 343 298 373 290 c 128,-1,49
 403 282 403 282 424.5 270.5 c 128,-1,50
 446 259 446 259 458.5 242.5 c 128,-1,51
 471 226 471 226 471 202 c 0,52,53
 471 182 471 182 461.5 167 c 128,-1,54
 452 152 452 152 435.5 141.5 c 128,-1,55
 419 131 419 131 397 126 c 128,-1,56
 375 121 375 121 351 121 c 0,57,58
 321 121 321 121 300 128 c 128,-1,59
 279 135 279 135 264.5 146.5 c 128,-1,60
 250 158 250 158 240.5 172.5 c 128,-1,61
 231 187 231 187 223 202 c 0,62,63
 217 213 217 213 210.5 226.5 c 128,-1,64
 204 240 204 240 194.5 251.5 c 128,-1,65
 185 263 185 263 170 270.5 c 128,-1,66
 155 278 155 278 133 278 c 0,67,68
 112 278 112 278 97 269.5 c 128,-1,69
 82 261 82 261 73 249 c 128,-1,70
 64 237 64 237 60 223 c 128,-1,71
 56 209 56 209 56 199 c 0,72,73
 56 176 56 176 69 140 c 128,-1,74
 82 104 82 104 115.5 70 c 128,-1,75
 149 36 149 36 206.5 12 c 128,-1,76
 264 -12 264 -12 354 -12 c 0,77,78
 430 -12 430 -12 486.5 6.5 c 128,-1,79
 543 25 543 25 580.5 57.5 c 128,-1,80
 618 90 618 90 636 132.5 c 128,-1,81
 654 175 654 175 654 223 c 0,0,1
EndSplineSet
Validated: 9
EndChar

StartChar: T
Encoding: 84 84 52
Width: 667
GlyphClass: 1
Flags: W
LayerCount: 2
Fore
SplineSet
241 567 m 1,0,-1
 241 140 l 2,1,2
 241 91 241 91 244.5 62.5 c 128,-1,3
 248 34 248 34 266 16 c 0,4,5
 280 2 280 2 297.5 -5 c 128,-1,6
 315 -12 315 -12 333 -12 c 0,7,8
 357 -12 357 -12 373.5 -2.5 c 128,-1,9
 390 7 390 7 400 17 c 0,10,11
 418 35 418 35 421 62.5 c 128,-1,12
 424 90 424 90 424 140 c 2,13,-1
 424 567 l 1,14,-1
 532 567 l 2,15,16
 572 567 572 567 595 569.5 c 128,-1,17
 618 572 618 572 633 587 c 0,18,19
 656 610 656 610 656 642 c 0,20,21
 656 661 656 661 648 674.5 c 128,-1,22
 640 688 640 688 632 696 c 0,23,24
 618 711 618 711 595 713.5 c 128,-1,25
 572 716 572 716 532 716 c 2,26,-1
 134 716 l 2,27,28
 94 716 94 716 70.5 714 c 128,-1,29
 47 712 47 712 33 696 c 0,30,31
 22 685 22 685 16 670.5 c 128,-1,32
 10 656 10 656 10 641 c 0,33,34
 10 622 10 622 18 608.5 c 128,-1,35
 26 595 26 595 34 587 c 0,36,37
 48 572 48 572 70.5 569.5 c 128,-1,38
 93 567 93 567 134 567 c 2,39,-1
 241 567 l 1,0,-1
EndSplineSet
Validated: 9
EndChar

StartChar: U
Encoding: 85 85 53
Width: 781
GlyphClass: 1
Flags: W
LayerCount: 2
Fore
SplineSet
258 576 m 2,0,1
 258 625 258 625 255 653.5 c 128,-1,2
 252 682 252 682 234 700 c 0,3,4
 206 728 206 728 166 728 c 0,5,6
 143 728 143 728 126 718.5 c 128,-1,7
 109 709 109 709 99 699 c 0,8,9
 81 681 81 681 78 653.5 c 128,-1,10
 75 626 75 626 75 576 c 2,11,-1
 75 311 l 2,12,13
 75 301 75 301 75.5 278 c 128,-1,14
 76 255 76 255 79.5 226 c 128,-1,15
 83 197 83 197 91 166.5 c 128,-1,16
 99 136 99 136 113 112 c 0,17,18
 138 68 138 68 173 43.5 c 128,-1,19
 208 19 208 19 247 6.5 c 128,-1,20
 286 -6 286 -6 326.5 -9 c 128,-1,21
 367 -12 367 -12 405 -12 c 0,22,23
 442 -12 442 -12 478.5 -7 c 128,-1,24
 515 -2 515 -2 548 11 c 128,-1,25
 581 24 581 24 610 47 c 128,-1,26
 639 70 639 70 662 105 c 0,27,28
 688 146 688 146 696 198.5 c 128,-1,29
 704 251 704 251 704 315 c 2,30,-1
 704 576 l 2,31,32
 704 625 704 625 701 653.5 c 128,-1,33
 698 682 698 682 679 700 c 0,34,35
 666 714 666 714 648 721 c 128,-1,36
 630 728 630 728 612 728 c 0,37,38
 589 728 589 728 572 718.5 c 128,-1,39
 555 709 555 709 545 699 c 0,40,41
 527 681 527 681 524 653.5 c 128,-1,42
 521 626 521 626 521 576 c 2,43,-1
 521 299 l 2,44,45
 521 274 521 274 519 245 c 128,-1,46
 517 216 517 216 504.5 191 c 128,-1,47
 492 166 492 166 466 149.5 c 128,-1,48
 440 133 440 133 392 133 c 0,49,50
 342 133 342 133 314.5 150.5 c 128,-1,51
 287 168 287 168 274.5 194 c 128,-1,52
 262 220 262 220 260 249.5 c 128,-1,53
 258 279 258 279 258 303 c 2,54,-1
 258 576 l 2,0,1
EndSplineSet
Validated: 9
EndChar

StartChar: V
Encoding: 86 86 54
Width: 719
GlyphClass: 1
Flags: W
LayerCount: 2
Fore
SplineSet
364 193 m 1,0,-1
 228 609 l 2,1,2
 219 637 219 637 210.5 659 c 128,-1,3
 202 681 202 681 191 696.5 c 128,-1,4
 180 712 180 712 164 720 c 128,-1,5
 148 728 148 728 124 728 c 0,6,7
 103 728 103 728 86.5 720.5 c 128,-1,8
 70 713 70 713 58.5 701 c 128,-1,9
 47 689 47 689 40.5 674 c 128,-1,10
 34 659 34 659 34 645 c 0,11,12
 34 636 34 636 35.5 627 c 128,-1,13
 37 618 37 618 40 607.5 c 128,-1,14
 43 597 43 597 48 583.5 c 128,-1,15
 53 570 53 570 60 551 c 2,16,-1
 202 161 l 2,17,18
 213 131 213 131 220.5 110.5 c 128,-1,19
 228 90 228 90 235 76 c 128,-1,20
 242 62 242 62 248 51.5 c 128,-1,21
 254 41 254 41 262 31 c 0,22,23
 277 12 277 12 304.5 0 c 128,-1,24
 332 -12 332 -12 361 -12 c 0,25,26
 403 -12 403 -12 441 15 c 0,27,28
 453 23 453 23 461.5 34.5 c 128,-1,29
 470 46 470 46 478.5 63 c 128,-1,30
 487 80 487 80 496.5 104 c 128,-1,31
 506 128 506 128 518 162 c 2,32,-1
 661 555 l 2,33,34
 668 574 668 574 673 587.5 c 128,-1,35
 678 601 678 601 681 611 c 128,-1,36
 684 621 684 621 685 629.5 c 128,-1,37
 686 638 686 638 686 648 c 0,38,39
 686 663 686 663 679 677 c 128,-1,40
 672 691 672 691 660.5 702.5 c 128,-1,41
 649 714 649 714 633 721 c 128,-1,42
 617 728 617 728 599 728 c 0,43,44
 575 728 575 728 559 720 c 128,-1,45
 543 712 543 712 532 697 c 128,-1,46
 521 682 521 682 513.5 660.5 c 128,-1,47
 506 639 506 639 497 612 c 2,48,-1
 364 193 l 1,0,-1
EndSplineSet
Validated: 9
EndChar

StartChar: W
Encoding: 87 87 55
Width: 969
GlyphClass: 1
Flags: W
LayerCount: 2
Fore
SplineSet
269 270 m 1,0,-1
 201 602 l 2,1,2
 191 649 191 649 183.5 674.5 c 128,-1,3
 176 700 176 700 155 713 c 0,4,5
 145 719 145 719 132.5 723.5 c 128,-1,6
 120 728 120 728 105 728 c 0,7,8
 69 728 69 728 44.5 703.5 c 128,-1,9
 20 679 20 679 20 645 c 0,10,11
 20 637 20 637 20.5 630.5 c 128,-1,12
 21 624 21 624 22.5 615.5 c 128,-1,13
 24 607 24 607 26.5 595 c 128,-1,14
 29 583 29 583 33 565 c 2,15,-1
 129 153 l 2,16,17
 142 96 142 96 152.5 65 c 128,-1,18
 163 34 163 34 183 15 c 0,19,20
 199 1 199 1 219 -5.5 c 128,-1,21
 239 -12 239 -12 259 -12 c 0,22,23
 282 -12 282 -12 303 -5 c 128,-1,24
 324 2 324 2 336 16 c 0,25,26
 345 25 345 25 351.5 36.5 c 128,-1,27
 358 48 358 48 364 63 c 128,-1,28
 370 78 370 78 376.5 98.5 c 128,-1,29
 383 119 383 119 391 148 c 2,30,-1
 484 493 l 1,31,-1
 578 147 l 2,32,33
 593 90 593 90 604.5 59.5 c 128,-1,34
 616 29 616 29 637 12 c 0,35,36
 667 -12 667 -12 710 -12 c 0,37,38
 735 -12 735 -12 754.5 -4 c 128,-1,39
 774 4 774 4 787 18 c 0,40,41
 796 28 796 28 802.5 38.5 c 128,-1,42
 809 49 809 49 814.5 64 c 128,-1,43
 820 79 820 79 825.5 100 c 128,-1,44
 831 121 831 121 838 152 c 2,45,-1
 935 567 l 2,46,47
 939 586 939 586 942 598 c 128,-1,48
 945 610 945 610 946 618 c 128,-1,49
 947 626 947 626 947.5 632.5 c 128,-1,50
 948 639 948 639 948 647 c 0,51,52
 948 681 948 681 923.5 704.5 c 128,-1,53
 899 728 899 728 864 728 c 0,54,55
 849 728 849 728 837 723.5 c 128,-1,56
 825 719 825 719 815 713 c 0,57,58
 795 699 795 699 786.5 674 c 128,-1,59
 778 649 778 649 769 604 c 2,60,-1
 699 266 l 1,61,-1
 624 560 l 2,62,63
 615 594 615 594 606 624.5 c 128,-1,64
 597 655 597 655 582.5 678 c 128,-1,65
 568 701 568 701 545.5 714.5 c 128,-1,66
 523 728 523 728 487 728 c 0,67,68
 449 728 449 728 425.5 711.5 c 128,-1,69
 402 695 402 695 387.5 670 c 128,-1,70
 373 645 373 645 365.5 616 c 128,-1,71
 358 587 358 587 351 563 c 2,72,-1
 269 270 l 1,0,-1
EndSplineSet
Validated: 9
EndChar

StartChar: X
Encoding: 88 88 56
Width: 604
GlyphClass: 1
Flags: W
LayerCount: 2
Fore
SplineSet
64 174 m 2,0,1
 48 148 48 148 38.5 131.5 c 128,-1,2
 29 115 29 115 24 103 c 128,-1,3
 19 91 19 91 17.5 82.5 c 128,-1,4
 16 74 16 74 16 65 c 0,5,6
 16 51 16 51 18.5 42 c 128,-1,7
 21 33 21 33 25 25 c 0,8,9
 28 20 28 20 33 13.5 c 128,-1,10
 38 7 38 7 45.5 1.5 c 128,-1,11
 53 -4 53 -4 65 -8 c 128,-1,12
 77 -12 77 -12 95 -12 c 0,13,14
 132 -12 132 -12 154 11 c 128,-1,15
 176 34 176 34 205 82 c 2,16,-1
 300 239 l 1,17,-1
 394 83 l 2,18,19
 409 59 409 59 421 41 c 128,-1,20
 433 23 433 23 445.5 11.5 c 128,-1,21
 458 0 458 0 472.5 -6 c 128,-1,22
 487 -12 487 -12 507 -12 c 0,23,24
 518 -12 518 -12 532 -9 c 128,-1,25
 546 -6 546 -6 558 3 c 128,-1,26
 570 12 570 12 578.5 27 c 128,-1,27
 587 42 587 42 587 66 c 0,28,29
 587 80 587 80 584.5 92 c 128,-1,30
 582 104 582 104 576 116.5 c 128,-1,31
 570 129 570 129 560.5 144 c 128,-1,32
 551 159 551 159 538 180 c 2,33,-1
 417 371 l 1,34,-1
 526 542 l 2,35,36
 552 583 552 583 563 610.5 c 128,-1,37
 574 638 574 638 574 663 c 0,38,39
 574 674 574 674 569.5 685.5 c 128,-1,40
 565 697 565 697 556 706.5 c 128,-1,41
 547 716 547 716 532.5 722 c 128,-1,42
 518 728 518 728 498 728 c 0,43,44
 477 728 477 728 462 721.5 c 128,-1,45
 447 715 447 715 434 701 c 128,-1,46
 421 687 421 687 408 666 c 128,-1,47
 395 645 395 645 378 617 c 2,48,-1
 304 491 l 1,49,-1
 230 617 l 2,50,51
 214 645 214 645 201 665.5 c 128,-1,52
 188 686 188 686 174.5 700 c 128,-1,53
 161 714 161 714 146 721 c 128,-1,54
 131 728 131 728 110 728 c 0,55,56
 75 728 75 728 54.5 708 c 128,-1,57
 34 688 34 688 34 663 c 0,58,59
 34 634 34 634 48 604.5 c 128,-1,60
 62 575 62 575 82 543 c 2,61,-1
 190 371 l 1,62,-1
 64 174 l 2,0,1
EndSplineSet
Validated: 9
EndChar

StartChar: Y
Encoding: 89 89 57
Width: 635
GlyphClass: 1
Flags: W
LayerCount: 2
Fore
SplineSet
226 301 m 1,0,-1
 226 140 l 2,1,2
 226 91 226 91 229 62.5 c 128,-1,3
 232 34 232 34 250 16 c 0,4,5
 278 -12 278 -12 318 -12 c 0,6,7
 341 -12 341 -12 357.5 -2.5 c 128,-1,8
 374 7 374 7 384 17 c 0,9,10
 403 35 403 35 406 62.5 c 128,-1,11
 409 90 409 90 409 140 c 2,12,-1
 409 300 l 1,13,-1
 560 535 l 2,14,15
 578 563 578 563 589 581 c 128,-1,16
 600 599 600 599 605.5 612 c 128,-1,17
 611 625 611 625 613 634.5 c 128,-1,18
 615 644 615 644 615 654 c 0,19,20
 615 666 615 666 609.5 679.5 c 128,-1,21
 604 693 604 693 594 703.5 c 128,-1,22
 584 714 584 714 568.5 721 c 128,-1,23
 553 728 553 728 534 728 c 0,24,25
 514 728 514 728 499.5 722 c 128,-1,26
 485 716 485 716 472.5 702.5 c 128,-1,27
 460 689 460 689 447 668.5 c 128,-1,28
 434 648 434 648 416 618 c 2,29,-1
 319 454 l 1,30,-1
 221 618 l 2,31,32
 203 648 203 648 190 668.5 c 128,-1,33
 177 689 177 689 164 702.5 c 128,-1,34
 151 716 151 716 137.5 722 c 128,-1,35
 124 728 124 728 105 728 c 0,36,37
 70 728 70 728 45 706.5 c 128,-1,38
 20 685 20 685 20 652 c 0,39,40
 20 642 20 642 22 633 c 128,-1,41
 24 624 24 624 29.5 611 c 128,-1,42
 35 598 35 598 46 579.5 c 128,-1,43
 57 561 57 561 75 533 c 2,44,-1
 226 301 l 1,0,-1
EndSplineSet
Validated: 9
EndChar

StartChar: Z
Encoding: 90 90 58
Width: 667
GlyphClass: 1
Flags: W
LayerCount: 2
Fore
SplineSet
400 579 m 1,0,-1
 72 210 l 2,1,2
 52 187 52 187 38.5 172 c 128,-1,3
 25 157 25 157 17.5 145 c 128,-1,4
 10 133 10 133 7 122.5 c 128,-1,5
 4 112 4 112 4 99 c 0,6,7
 4 79 4 79 11.5 60.5 c 128,-1,8
 19 42 19 42 34 27 c 0,9,10
 44 17 44 17 54 11.5 c 128,-1,11
 64 6 64 6 78.5 3.5 c 128,-1,12
 93 1 93 1 113.5 0.5 c 128,-1,13
 134 0 134 0 166 0 c 2,14,-1
 542 0 l 2,15,16
 579 0 579 0 600 2 c 128,-1,17
 621 4 621 4 635 18 c 0,18,19
 646 29 646 29 651 42 c 128,-1,20
 656 55 656 55 656 69 c 0,21,22
 656 86 656 86 649.5 98.5 c 128,-1,23
 643 111 643 111 635 119 c 0,24,25
 621 133 621 133 600.5 135 c 128,-1,26
 580 137 580 137 542 137 c 2,27,-1
 232 137 l 1,28,-1
 580 532 l 2,29,30
 598 552 598 552 609 565.5 c 128,-1,31
 620 579 620 579 626.5 589.5 c 128,-1,32
 633 600 633 600 635.5 609 c 128,-1,33
 638 618 638 618 638 629 c 0,34,35
 638 666 638 666 612 692 c 0,36,37
 603 701 603 701 594.5 706 c 128,-1,38
 586 711 586 711 573.5 713 c 128,-1,39
 561 715 561 715 543 715.5 c 128,-1,40
 525 716 525 716 497 716 c 2,41,-1
 156 716 l 2,42,43
 140 716 140 716 120 716 c 256,44,45
 100 716 100 716 83 710 c 128,-1,46
 66 704 66 704 54 689.5 c 128,-1,47
 42 675 42 675 42 647 c 0,48,49
 42 630 42 630 49 616 c 128,-1,50
 56 602 56 602 64 597 c 0,51,52
 74 590 74 590 82.5 586.5 c 128,-1,53
 91 583 91 583 101.5 581.5 c 128,-1,54
 112 580 112 580 125 579.5 c 128,-1,55
 138 579 138 579 156 579 c 2,56,-1
 400 579 l 1,0,-1
EndSplineSet
Validated: 9
EndChar

StartChar: bracketleft
Encoding: 91 91 59
Width: 365
GlyphClass: 1
Flags: W
LayerCount: 2
Fore
SplineSet
227 585 m 1,0,-1
 247 585 l 2,1,2
 282 585 282 585 302 587 c 128,-1,3
 322 589 322 589 335 602 c 0,4,5
 356 623 356 623 356 651 c 0,6,7
 356 668 356 668 349 679.5 c 128,-1,8
 342 691 342 691 335 698 c 0,9,10
 322 712 322 712 302 714 c 128,-1,11
 282 716 282 716 247 716 c 2,12,-1
 207 716 l 2,13,14
 164 716 164 716 140.5 712.5 c 128,-1,15
 117 709 117 709 98 689 c 0,16,17
 88 678 88 678 82.5 668.5 c 128,-1,18
 77 659 77 659 74.5 645.5 c 128,-1,19
 72 632 72 632 71.5 612.5 c 128,-1,20
 71 593 71 593 71 562 c 2,21,-1
 71 -47 l 2,22,23
 71 -76 71 -76 71.5 -95.5 c 128,-1,24
 72 -115 72 -115 74.5 -129.5 c 128,-1,25
 77 -144 77 -144 82.5 -154 c 128,-1,26
 88 -164 88 -164 98 -173 c 0,27,28
 109 -183 109 -183 119 -188.5 c 128,-1,29
 129 -194 129 -194 141 -196.5 c 128,-1,30
 153 -199 153 -199 168.5 -199.5 c 128,-1,31
 184 -200 184 -200 207 -200 c 2,32,-1
 247 -200 l 2,33,34
 282 -200 282 -200 302 -198 c 128,-1,35
 322 -196 322 -196 335 -183 c 0,36,37
 356 -162 356 -162 356 -134 c 0,38,39
 356 -117 356 -117 349 -105.5 c 128,-1,40
 342 -94 342 -94 335 -86 c 0,41,42
 322 -73 322 -73 302 -71 c 128,-1,43
 282 -69 282 -69 247 -69 c 2,44,-1
 227 -69 l 1,45,-1
 227 585 l 1,0,-1
EndSplineSet
Validated: 9
EndChar

StartChar: backslash
Encoding: 92 92 60
Width: 281
GlyphClass: 1
Flags: W
LayerCount: 2
Fore
SplineSet
163 56 m 2,0,1
 166 42 166 42 169.5 29.5 c 128,-1,2
 173 17 173 17 179 8 c 128,-1,3
 185 -1 185 -1 194 -6.5 c 128,-1,4
 203 -12 203 -12 218 -12 c 0,5,6
 235 -12 235 -12 250.5 -0.5 c 128,-1,7
 266 11 266 11 266 37 c 0,8,9
 266 46 266 46 265 54.5 c 128,-1,10
 264 63 264 63 259 80 c 2,11,-1
 119 660 l 2,12,13
 112 689 112 689 102.5 708.5 c 128,-1,14
 93 728 93 728 63 728 c 0,15,16
 43 728 43 728 29 715 c 128,-1,17
 15 702 15 702 15 679 c 0,18,19
 15 669 15 669 16 662.5 c 128,-1,20
 17 656 17 656 22 636 c 2,21,-1
 163 56 l 2,0,1
EndSplineSet
Validated: 9
EndChar

StartChar: bracketright
Encoding: 93 93 61
Width: 365
GlyphClass: 1
Flags: W
LayerCount: 2
Fore
SplineSet
138 -69 m 1,0,-1
 119 -69 l 2,1,2
 84 -69 84 -69 63.5 -71 c 128,-1,3
 43 -73 43 -73 30 -86 c 0,4,5
 9 -107 9 -107 9 -135 c 0,6,7
 9 -152 9 -152 15.5 -163.5 c 128,-1,8
 22 -175 22 -175 30 -183 c 0,9,10
 43 -196 43 -196 63 -198 c 128,-1,11
 83 -200 83 -200 119 -200 c 2,12,-1
 158 -200 l 2,13,14
 179 -200 179 -200 195 -199.5 c 128,-1,15
 211 -199 211 -199 224 -196.5 c 128,-1,16
 237 -194 237 -194 247 -188.5 c 128,-1,17
 257 -183 257 -183 267 -173 c 0,18,19
 277 -162 277 -162 282.5 -152.5 c 128,-1,20
 288 -143 288 -143 290.5 -130 c 128,-1,21
 293 -117 293 -117 293.5 -97.5 c 128,-1,22
 294 -78 294 -78 294 -47 c 2,23,-1
 294 562 l 2,24,25
 294 591 294 591 293.5 611 c 128,-1,26
 293 631 293 631 290.5 645 c 128,-1,27
 288 659 288 659 282.5 669 c 128,-1,28
 277 679 277 679 267 689 c 0,29,30
 256 699 256 699 246 704.5 c 128,-1,31
 236 710 236 710 224 712.5 c 128,-1,32
 212 715 212 715 196 715.5 c 128,-1,33
 180 716 180 716 158 716 c 2,34,-1
 118 716 l 2,35,36
 83 716 83 716 63 714 c 128,-1,37
 43 712 43 712 30 698 c 0,38,39
 9 679 9 679 9 650 c 0,40,41
 9 633 9 633 15.5 621.5 c 128,-1,42
 22 610 22 610 30 602 c 0,43,44
 43 589 43 589 63 587 c 128,-1,45
 83 585 83 585 118 585 c 2,46,-1
 138 585 l 1,47,-1
 138 -69 l 1,0,-1
EndSplineSet
Validated: 9
EndChar

StartChar: asciicircum
Encoding: 94 94 62
Width: 625
GlyphClass: 1
Flags: W
LayerCount: 2
Fore
SplineSet
61 334 m 1,0,-1
 217 334 l 1,1,-1
 313 574 l 1,2,-1
 408 334 l 1,3,-1
 564 334 l 1,4,-1
 375 728 l 1,5,-1
 253 728 l 1,6,-1
 61 334 l 1,0,-1
EndSplineSet
Validated: 9
EndChar

StartChar: underscore
Encoding: 95 95 63
Width: 500
GlyphClass: 1
Flags: W
LayerCount: 2
Fore
SplineSet
-6 -75 m 1,0,-1
 -6 -125 l 1,1,-1
 506 -125 l 1,2,-1
 506 -75 l 1,3,-1
 -6 -75 l 1,0,-1
EndSplineSet
Validated: 9
EndChar

StartChar: grave
Encoding: 96 96 64
Width: 333
GlyphClass: 1
Flags: W
LayerCount: 2
Fore
SplineSet
214 587 m 2,0,-1
 237 587 l 2,1,2
 247 587 247 587 252 588 c 128,-1,3
 257 589 257 589 257 595 c 0,4,5
 257 603 257 603 243 626 c 2,6,-1
 221 661 l 2,7,8
 206 684 206 684 196 697 c 128,-1,9
 186 710 186 710 175 716 c 128,-1,10
 164 722 164 722 149.5 723 c 128,-1,11
 135 724 135 724 111 724 c 2,12,-1
 70 724 l 1,13,-1
 48 723 l 2,14,15
 42 723 42 723 33 722.5 c 128,-1,16
 24 722 24 722 24 717 c 256,17,18
 24 712 24 712 28.5 707 c 128,-1,19
 33 702 33 702 45 691 c 0,20,21
 49 687 49 687 62.5 675.5 c 128,-1,22
 76 664 76 664 92.5 649.5 c 128,-1,23
 109 635 109 635 125 621.5 c 128,-1,24
 141 608 141 608 152 600 c 0,25,26
 163 590 163 590 181 588.5 c 128,-1,27
 199 587 199 587 214 587 c 2,0,-1
EndSplineSet
Validated: 9
EndChar

StartChar: a
Encoding: 97 97 65
Width: 615
GlyphClass: 1
Flags: W
LayerCount: 2
Fore
SplineSet
178 287 m 2,0,1
 163 284 163 284 139 276 c 128,-1,2
 115 268 115 268 92.5 252 c 128,-1,3
 70 236 70 236 54 209 c 128,-1,4
 38 182 38 182 38 141 c 0,5,6
 38 116 38 116 47.5 89 c 128,-1,7
 57 62 57 62 78 39.5 c 128,-1,8
 99 17 99 17 133 2.5 c 128,-1,9
 167 -12 167 -12 216 -12 c 0,10,11
 270 -12 270 -12 318.5 10 c 128,-1,12
 367 32 367 32 411 69 c 1,13,14
 427 29 427 29 445 8.5 c 128,-1,15
 463 -12 463 -12 498 -12 c 0,16,17
 534 -12 534 -12 556.5 9 c 128,-1,18
 579 30 579 30 579 55 c 0,19,20
 579 61 579 61 578.5 65 c 128,-1,21
 578 69 578 69 576 75 c 128,-1,22
 574 81 574 81 571 90.5 c 128,-1,23
 568 100 568 100 562 117 c 0,24,25
 555 137 555 137 553.5 153 c 128,-1,26
 552 169 552 169 552 187 c 2,27,-1
 552 329 l 2,28,29
 552 385 552 385 539.5 423.5 c 128,-1,30
 527 462 527 462 498 485.5 c 128,-1,31
 469 509 469 509 422.5 519.5 c 128,-1,32
 376 530 376 530 307 530 c 0,33,34
 274 530 274 530 248.5 527.5 c 128,-1,35
 223 525 223 525 203 520.5 c 128,-1,36
 183 516 183 516 166 508.5 c 128,-1,37
 149 501 149 501 134 492 c 0,38,39
 123 485 123 485 110.5 474.5 c 128,-1,40
 98 464 98 464 87.5 450 c 128,-1,41
 77 436 77 436 70.5 418.5 c 128,-1,42
 64 401 64 401 64 382 c 0,43,44
 64 366 64 366 71 354.5 c 128,-1,45
 78 343 78 343 88.5 335.5 c 128,-1,46
 99 328 99 328 111 324.5 c 128,-1,47
 123 321 123 321 133 321 c 0,48,49
 162 321 162 321 177.5 336.5 c 128,-1,50
 193 352 193 352 207 375 c 0,51,52
 224 401 224 401 253.5 409 c 128,-1,53
 283 417 283 417 308 417 c 0,54,55
 336 417 336 417 352 411.5 c 128,-1,56
 368 406 368 406 375.5 395.5 c 128,-1,57
 383 385 383 385 385 371 c 128,-1,58
 387 357 387 357 388 340 c 1,59,60
 378 336 378 336 369 332.5 c 128,-1,61
 360 329 360 329 339 324 c 2,62,-1
 178 287 l 2,0,1
388 245 m 1,63,64
 389 216 389 216 388 193.5 c 128,-1,65
 387 171 387 171 376 150 c 0,66,67
 367 132 367 132 354.5 121 c 128,-1,68
 342 110 342 110 327.5 103 c 128,-1,69
 313 96 313 96 299.5 93.5 c 128,-1,70
 286 91 286 91 276 91 c 0,71,72
 242 91 242 91 224.5 111 c 128,-1,73
 207 131 207 131 207 152 c 0,74,75
 207 181 207 181 227 193 c 128,-1,76
 247 205 247 205 287 218 c 0,77,78
 293 220 293 220 307.5 223.5 c 128,-1,79
 322 227 322 227 338 231 c 128,-1,80
 354 235 354 235 368.5 239 c 128,-1,81
 383 243 383 243 388 245 c 1,63,64
EndSplineSet
Validated: 41
EndChar

StartChar: b
Encoding: 98 98 66
Width: 635
GlyphClass: 1
Flags: W
LayerCount: 2
Fore
SplineSet
61 118 m 2,0,1
 61 93 61 93 62.5 69.5 c 128,-1,2
 64 46 64 46 71.5 28 c 128,-1,3
 79 10 79 10 94.5 -1 c 128,-1,4
 110 -12 110 -12 139 -12 c 0,5,6
 165 -12 165 -12 180.5 -1.5 c 128,-1,7
 196 9 196 9 204 23 c 128,-1,8
 212 37 212 37 214.5 52 c 128,-1,9
 217 67 217 67 217 76 c 1,10,11
 227 64 227 64 240.5 48.5 c 128,-1,12
 254 33 254 33 274 19.5 c 128,-1,13
 294 6 294 6 320.5 -3 c 128,-1,14
 347 -12 347 -12 383 -12 c 0,15,16
 430 -12 430 -12 470 7.5 c 128,-1,17
 510 27 510 27 538.5 63 c 128,-1,18
 567 99 567 99 583 150 c 128,-1,19
 599 201 599 201 599 264 c 0,20,21
 599 321 599 321 585 369.5 c 128,-1,22
 571 418 571 418 543.5 453.5 c 128,-1,23
 516 489 516 489 475 509.5 c 128,-1,24
 434 530 434 530 380 530 c 0,25,26
 348 530 348 530 323.5 523 c 128,-1,27
 299 516 299 516 281 505.5 c 128,-1,28
 263 495 263 495 250.5 483.5 c 128,-1,29
 238 472 238 472 230 463 c 1,30,-1
 230 587 l 2,31,32
 230 632 230 632 227 658.5 c 128,-1,33
 224 685 224 685 207 702 c 0,34,35
 195 714 195 714 178.5 721 c 128,-1,36
 162 728 162 728 145 728 c 0,37,38
 123 728 123 728 108 719.5 c 128,-1,39
 93 711 93 711 83 701 c 0,40,41
 75 693 75 693 70.5 682.5 c 128,-1,42
 66 672 66 672 64 658.5 c 128,-1,43
 62 645 62 645 61.5 627.5 c 128,-1,44
 61 610 61 610 61 587 c 2,45,-1
 61 118 l 2,0,1
228 259 m 0,46,47
 228 267 228 267 229.5 290.5 c 128,-1,48
 231 314 231 314 241 339 c 128,-1,49
 251 364 251 364 272 383.5 c 128,-1,50
 293 403 293 403 332 403 c 0,51,52
 366 403 366 403 386 385.5 c 128,-1,53
 406 368 406 368 415.5 345 c 128,-1,54
 425 322 425 322 427.5 297.5 c 128,-1,55
 430 273 430 273 430 260 c 0,56,57
 430 252 430 252 428.5 228 c 128,-1,58
 427 204 427 204 417.5 179 c 128,-1,59
 408 154 408 154 388 134.5 c 128,-1,60
 368 115 368 115 332 115 c 0,61,62
 325 115 325 115 308 118 c 128,-1,63
 291 121 291 121 273 135.5 c 128,-1,64
 255 150 255 150 241.5 179 c 128,-1,65
 228 208 228 208 228 259 c 0,46,47
EndSplineSet
Validated: 9
EndChar

StartChar: c
Encoding: 99 99 67
Width: 615
GlyphClass: 1
Flags: W
LayerCount: 2
Fore
SplineSet
211 254 m 0,0,1
 211 333 211 333 243.5 369.5 c 128,-1,2
 276 406 276 406 321 406 c 0,3,4
 354 406 354 406 378.5 390 c 128,-1,5
 403 374 403 374 412 361 c 0,6,7
 434 330 434 330 448.5 316 c 128,-1,8
 463 302 463 302 488 302 c 0,9,10
 520 302 520 302 542 322.5 c 128,-1,11
 564 343 564 343 564 374 c 0,12,13
 564 393 564 393 556.5 410.5 c 128,-1,14
 549 428 549 428 538 442 c 128,-1,15
 527 456 527 456 514.5 467 c 128,-1,16
 502 478 502 478 492 485 c 0,17,18
 463 505 463 505 424 517.5 c 128,-1,19
 385 530 385 530 321 530 c 0,20,21
 279 530 279 530 247.5 524.5 c 128,-1,22
 216 519 216 519 192 509.5 c 128,-1,23
 168 500 168 500 151 487.5 c 128,-1,24
 134 475 134 475 120 462 c 0,25,26
 97 439 97 439 82 413 c 128,-1,27
 67 387 67 387 58 360.5 c 128,-1,28
 49 334 49 334 45.5 308 c 128,-1,29
 42 282 42 282 42 258 c 0,30,31
 42 236 42 236 45 209.5 c 128,-1,32
 48 183 48 183 57 155 c 128,-1,33
 66 127 66 127 82 100 c 128,-1,34
 98 73 98 73 124 50 c 0,35,36
 164 15 164 15 215 1.5 c 128,-1,37
 266 -12 266 -12 318 -12 c 0,38,39
 395 -12 395 -12 444 9 c 128,-1,40
 493 30 493 30 521 58 c 128,-1,41
 549 86 549 86 559.5 115 c 128,-1,42
 570 144 570 144 570 160 c 0,43,44
 570 191 570 191 551.5 208.5 c 128,-1,45
 533 226 533 226 506 226 c 0,46,47
 493 226 493 226 483 222.5 c 128,-1,48
 473 219 473 219 464 212 c 128,-1,49
 455 205 455 205 445.5 194 c 128,-1,50
 436 183 436 183 424 168 c 0,51,52
 408 148 408 148 385 130 c 128,-1,53
 362 112 362 112 324 112 c 0,54,55
 282 112 282 112 259 131.5 c 128,-1,56
 236 151 236 151 225.5 175.5 c 128,-1,57
 215 200 215 200 213 223 c 128,-1,58
 211 246 211 246 211 254 c 0,0,1
EndSplineSet
Validated: 9
EndChar

StartChar: d
Encoding: 100 100 68
Width: 635
GlyphClass: 1
Flags: W
LayerCount: 2
Fore
SplineSet
573 118 m 2,0,-1
 573 587 l 2,1,2
 573 633 573 633 570 658.5 c 128,-1,3
 567 684 567 684 551 701 c 0,4,5
 541 711 541 711 526 719.5 c 128,-1,6
 511 728 511 728 489 728 c 0,7,8
 472 728 472 728 455.5 721 c 128,-1,9
 439 714 439 714 427 702 c 0,10,11
 410 685 410 685 407 658.5 c 128,-1,12
 404 632 404 632 404 587 c 2,13,-1
 404 463 l 1,14,15
 396 472 396 472 383.5 483.5 c 128,-1,16
 371 495 371 495 353 505.5 c 128,-1,17
 335 516 335 516 310.5 523 c 128,-1,18
 286 530 286 530 254 530 c 0,19,20
 200 530 200 530 159 509.5 c 128,-1,21
 118 489 118 489 90.5 453.5 c 128,-1,22
 63 418 63 418 49 369.5 c 128,-1,23
 35 321 35 321 35 264 c 0,24,25
 35 201 35 201 51 150 c 128,-1,26
 67 99 67 99 95.5 63 c 128,-1,27
 124 27 124 27 164 7.5 c 128,-1,28
 204 -12 204 -12 251 -12 c 0,29,30
 287 -12 287 -12 313.5 -3 c 128,-1,31
 340 6 340 6 360 19.5 c 128,-1,32
 380 33 380 33 393.5 48.5 c 128,-1,33
 407 64 407 64 417 76 c 1,34,35
 417 67 417 67 419.5 52 c 128,-1,36
 422 37 422 37 430 23 c 128,-1,37
 438 9 438 9 453.5 -1.5 c 128,-1,38
 469 -12 469 -12 495 -12 c 0,39,40
 524 -12 524 -12 539.5 -1 c 128,-1,41
 555 10 555 10 562.5 28 c 128,-1,42
 570 46 570 46 571.5 69.5 c 128,-1,43
 573 93 573 93 573 118 c 2,0,-1
406 259 m 0,44,45
 406 208 406 208 392.5 179 c 128,-1,46
 379 150 379 150 361 135.5 c 128,-1,47
 343 121 343 121 326 118 c 128,-1,48
 309 115 309 115 302 115 c 0,49,50
 266 115 266 115 246 134.5 c 128,-1,51
 226 154 226 154 216.5 179 c 128,-1,52
 207 204 207 204 205.5 228 c 128,-1,53
 204 252 204 252 204 260 c 0,54,55
 204 273 204 273 206.5 297.5 c 128,-1,56
 209 322 209 322 218.5 345 c 128,-1,57
 228 368 228 368 247.5 385.5 c 128,-1,58
 267 403 267 403 302 403 c 0,59,60
 341 403 341 403 362 383.5 c 128,-1,61
 383 364 383 364 393 339 c 128,-1,62
 403 314 403 314 404.5 290.5 c 128,-1,63
 406 267 406 267 406 259 c 0,44,45
EndSplineSet
Validated: 9
EndChar

StartChar: e
Encoding: 101 101 69
Width: 615
GlyphClass: 1
Flags: W
LayerCount: 2
Fore
SplineSet
437 213 m 2,0,1
 454 213 454 213 479 214.5 c 128,-1,2
 504 216 504 216 519 222 c 0,3,4
 537 229 537 229 548 240.5 c 128,-1,5
 559 252 559 252 564.5 265 c 128,-1,6
 570 278 570 278 572 290 c 128,-1,7
 574 302 574 302 574 310 c 0,8,9
 574 337 574 337 561.5 374.5 c 128,-1,10
 549 412 549 412 519.5 446.5 c 128,-1,11
 490 481 490 481 440.5 505.5 c 128,-1,12
 391 530 391 530 317 530 c 0,13,14
 236 530 236 530 183.5 503 c 128,-1,15
 131 476 131 476 99.5 435.5 c 128,-1,16
 68 395 68 395 55.5 347.5 c 128,-1,17
 43 300 43 300 43 258 c 0,18,19
 43 208 43 208 57.5 159.5 c 128,-1,20
 72 111 72 111 105.5 73 c 128,-1,21
 139 35 139 35 194.5 11.5 c 128,-1,22
 250 -12 250 -12 332 -12 c 0,23,24
 391 -12 391 -12 436 -0.5 c 128,-1,25
 481 11 481 11 511.5 29.5 c 128,-1,26
 542 48 542 48 557.5 71 c 128,-1,27
 573 94 573 94 573 116 c 256,28,29
 573 138 573 138 554.5 157 c 128,-1,30
 536 176 536 176 508 176 c 0,31,32
 488 176 488 176 472 165.5 c 128,-1,33
 456 155 456 155 440 144 c 0,34,35
 433 139 433 139 422 131.5 c 128,-1,36
 411 124 411 124 396.5 116.5 c 128,-1,37
 382 109 382 109 364 103.5 c 128,-1,38
 346 98 346 98 325 98 c 0,39,40
 313 98 313 98 294.5 102.5 c 128,-1,41
 276 107 276 107 258.5 120 c 128,-1,42
 241 133 241 133 228.5 155 c 128,-1,43
 216 177 216 177 215 213 c 1,44,-1
 437 213 l 2,0,1
215 303 m 1,45,46
 216 312 216 312 219.5 331 c 128,-1,47
 223 350 223 350 232.5 369 c 128,-1,48
 242 388 242 388 260.5 402.5 c 128,-1,49
 279 417 279 417 311 417 c 0,50,51
 356 417 356 417 384.5 385.5 c 128,-1,52
 413 354 413 354 411 303 c 1,53,-1
 215 303 l 1,45,46
EndSplineSet
Validated: 41
EndChar

StartChar: f
Encoding: 102 102 70
Width: 365
GlyphClass: 1
Flags: W
LayerCount: 2
Fore
SplineSet
256 396 m 1,0,1
 275 396 275 396 287 396 c 0,2,3
 300 396 300 396 308.5 397 c 128,-1,4
 317 398 317 398 323 400 c 128,-1,5
 329 402 329 402 336 405 c 0,6,7
 349 410 349 410 358 425.5 c 128,-1,8
 367 441 367 441 367 458 c 0,9,10
 367 477 367 477 357 491 c 128,-1,11
 347 505 347 505 336 510 c 0,12,13
 323 516 323 516 308 517 c 128,-1,14
 293 518 293 518 256 518 c 1,15,-1
 256 543 l 2,16,17
 256 553 256 553 257 565 c 128,-1,18
 258 577 258 577 262.5 587.5 c 128,-1,19
 267 598 267 598 277.5 605 c 128,-1,20
 288 612 288 612 308 612 c 0,21,22
 311 612 311 612 319.5 611 c 128,-1,23
 328 610 328 610 337.5 608.5 c 128,-1,24
 347 607 347 607 356 606 c 128,-1,25
 365 605 365 605 369 605 c 0,26,27
 388 605 388 605 403 620 c 128,-1,28
 418 635 418 635 418 660 c 0,29,30
 418 675 418 675 412 687.5 c 128,-1,31
 406 700 406 700 388.5 709 c 128,-1,32
 371 718 371 718 340 723 c 128,-1,33
 309 728 309 728 259 728 c 0,34,35
 200 728 200 728 166 712.5 c 128,-1,36
 132 697 132 697 114.5 671.5 c 128,-1,37
 97 646 97 646 92 614.5 c 128,-1,38
 87 583 87 583 87 550 c 2,39,-1
 87 518 l 1,40,-1
 65 518 l 2,41,42
 51 518 51 518 34 516.5 c 128,-1,43
 17 515 17 515 4 502 c 0,44,45
 -5 493 -5 493 -9.5 481 c 128,-1,46
 -14 469 -14 469 -14 457 c 0,47,48
 -14 435 -14 435 1 417 c 128,-1,49
 16 399 16 399 58 397 c 2,50,-1
 87 396 l 1,51,-1
 87 128 l 2,52,53
 87 83 87 83 90 57 c 128,-1,54
 93 31 93 31 110 14 c 0,55,56
 123 1 123 1 139 -5.5 c 128,-1,57
 155 -12 155 -12 172 -12 c 0,58,59
 194 -12 194 -12 209.5 -3.5 c 128,-1,60
 225 5 225 5 234 14 c 0,61,62
 250 30 250 30 253 56 c 128,-1,63
 256 82 256 82 256 128 c 2,64,-1
 256 396 l 1,0,1
EndSplineSet
Validated: 9
EndChar

StartChar: g
Encoding: 103 103 71
Width: 635
GlyphClass: 1
Flags: W
LayerCount: 2
Fore
SplineSet
574 389 m 2,0,1
 574 409 574 409 574 423 c 256,2,3
 574 437 574 437 573 447 c 128,-1,4
 572 457 572 457 571 464 c 128,-1,5
 570 471 570 471 568 478 c 0,6,7
 563 495 563 495 553 505.5 c 128,-1,8
 543 516 543 516 532.5 521.5 c 128,-1,9
 522 527 522 527 511.5 528.5 c 128,-1,10
 501 530 501 530 495 530 c 0,11,12
 478 530 478 530 461 522 c 128,-1,13
 444 514 444 514 431 494 c 0,14,15
 428 490 428 490 426.5 486.5 c 128,-1,16
 425 483 425 483 423.5 477.5 c 128,-1,17
 422 472 422 472 420.5 464 c 128,-1,18
 419 456 419 456 417 442 c 1,19,20
 410 451 410 451 397.5 466 c 128,-1,21
 385 481 385 481 365 495 c 128,-1,22
 345 509 345 509 316.5 519.5 c 128,-1,23
 288 530 288 530 251 530 c 0,24,25
 155 530 155 530 93 459 c 0,26,27
 83 448 83 448 73 433 c 128,-1,28
 63 418 63 418 55 396 c 128,-1,29
 47 374 47 374 42 345 c 128,-1,30
 37 316 37 316 37 276 c 0,31,32
 37 217 37 217 51.5 168 c 128,-1,33
 66 119 66 119 94 83 c 128,-1,34
 122 47 122 47 161 27 c 128,-1,35
 200 7 200 7 250 7 c 0,36,37
 285 7 285 7 311.5 16 c 128,-1,38
 338 25 338 25 356.5 38 c 128,-1,39
 375 51 375 51 386.5 64.5 c 128,-1,40
 398 78 398 78 404 86 c 1,41,42
 405 74 405 74 405.5 62.5 c 128,-1,43
 406 51 406 51 405 31 c 0,44,45
 404 1 404 1 402 -23 c 128,-1,46
 400 -47 400 -47 389.5 -63 c 128,-1,47
 379 -79 379 -79 357 -87.5 c 128,-1,48
 335 -96 335 -96 296 -96 c 0,49,50
 261 -96 261 -96 241 -88.5 c 128,-1,51
 221 -81 221 -81 205 -65 c 0,52,53
 185 -44 185 -44 167 -30 c 128,-1,54
 149 -16 149 -16 121 -16 c 0,55,56
 95 -16 95 -16 72.5 -33 c 128,-1,57
 50 -50 50 -50 50 -82 c 0,58,59
 50 -90 50 -90 51.5 -100 c 128,-1,60
 53 -110 53 -110 59.5 -121.5 c 128,-1,61
 66 -133 66 -133 78 -145 c 128,-1,62
 90 -157 90 -157 111 -169 c 0,63,64
 153 -194 153 -194 202 -202 c 128,-1,65
 251 -210 251 -210 305 -210 c 0,66,67
 391 -210 391 -210 444 -192 c 128,-1,68
 497 -174 497 -174 526 -140 c 128,-1,69
 555 -106 555 -106 564.5 -56.5 c 128,-1,70
 574 -7 574 -7 574 55 c 2,71,-1
 574 389 l 2,0,1
206 264 m 0,72,73
 206 273 206 273 207.5 295.5 c 128,-1,74
 209 318 209 318 218.5 342 c 128,-1,75
 228 366 228 366 248 384.5 c 128,-1,76
 268 403 268 403 305 403 c 0,77,78
 350 403 350 403 378.5 367 c 128,-1,79
 407 331 407 331 407 261 c 0,80,81
 407 199 407 199 377.5 165 c 128,-1,82
 348 131 348 131 305 131 c 0,83,84
 276 131 276 131 256.5 143 c 128,-1,85
 237 155 237 155 226 173.5 c 128,-1,86
 215 192 215 192 210.5 216 c 128,-1,87
 206 240 206 240 206 264 c 0,72,73
EndSplineSet
Validated: 41
EndChar

StartChar: h
Encoding: 104 104 72
Width: 635
GlyphClass: 1
Flags: W
LayerCount: 2
Fore
SplineSet
573 317 m 2,0,1
 573 340 573 340 570 376 c 128,-1,2
 567 412 567 412 550.5 446.5 c 128,-1,3
 534 481 534 481 498 505.5 c 128,-1,4
 462 530 462 530 395 530 c 0,5,6
 360 530 360 530 333 521 c 128,-1,7
 306 512 306 512 286 499.5 c 128,-1,8
 266 487 266 487 252.5 474 c 128,-1,9
 239 461 239 461 232 452 c 1,10,-1
 232 588 l 2,11,12
 232 633 232 633 229 659 c 128,-1,13
 226 685 226 685 209 702 c 0,14,15
 183 728 183 728 146 728 c 0,16,17
 125 728 125 728 109.5 719 c 128,-1,18
 94 710 94 710 85 702 c 0,19,20
 68 685 68 685 65.5 659.5 c 128,-1,21
 63 634 63 634 63 588 c 2,22,-1
 63 128 l 2,23,24
 63 83 63 83 65.5 56.5 c 128,-1,25
 68 30 68 30 85 14 c 0,26,27
 98 1 98 1 114 -5.5 c 128,-1,28
 130 -12 130 -12 147 -12 c 0,29,30
 169 -12 169 -12 184.5 -3.5 c 128,-1,31
 200 5 200 5 209 14 c 0,32,33
 226 31 226 31 229 56.5 c 128,-1,34
 232 82 232 82 232 128 c 2,35,-1
 232 254 l 2,36,37
 232 275 232 275 233 289.5 c 128,-1,38
 234 304 234 304 236 315.5 c 128,-1,39
 238 327 238 327 241 336.5 c 128,-1,40
 244 346 244 346 249 356 c 0,41,42
 259 375 259 375 280 387.5 c 128,-1,43
 301 400 301 400 328 400 c 0,44,45
 357 400 357 400 372.5 388.5 c 128,-1,46
 388 377 388 377 395 359.5 c 128,-1,47
 402 342 402 342 403 320.5 c 128,-1,48
 404 299 404 299 404 280 c 2,49,-1
 404 128 l 2,50,51
 404 83 404 83 407 57 c 128,-1,52
 410 31 410 31 427 14 c 0,53,54
 440 1 440 1 456 -5.5 c 128,-1,55
 472 -12 472 -12 489 -12 c 0,56,57
 510 -12 510 -12 525 -5 c 128,-1,58
 540 2 540 2 551 14 c 0,59,60
 567 31 567 31 570 56.5 c 128,-1,61
 573 82 573 82 573 128 c 2,62,-1
 573 317 l 2,0,1
EndSplineSet
Validated: 9
EndChar

StartChar: i
Encoding: 105 105 73
Width: 302
GlyphClass: 1
Flags: W
LayerCount: 2
Fore
SplineSet
236 390 m 2,0,1
 236 405 236 405 236 415 c 256,2,3
 236 425 236 425 236 432 c 0,4,5
 236 440 236 440 235 446.5 c 128,-1,6
 234 453 234 453 233 461 c 0,7,8
 229 483 229 483 218.5 497 c 128,-1,9
 208 511 208 511 195 518 c 128,-1,10
 182 525 182 525 170 527.5 c 128,-1,11
 158 530 158 530 151 530 c 0,12,13
 131 530 131 530 115.5 522 c 128,-1,14
 100 514 100 514 89 503 c 0,15,16
 81 495 81 495 76.5 484.5 c 128,-1,17
 72 474 72 474 70 460.5 c 128,-1,18
 68 447 68 447 67.5 429.5 c 128,-1,19
 67 412 67 412 67 390 c 2,20,-1
 67 128 l 2,21,22
 67 83 67 83 69.5 56.5 c 128,-1,23
 72 30 72 30 89 14 c 0,24,25
 102 1 102 1 118 -5.5 c 128,-1,26
 134 -12 134 -12 151 -12 c 0,27,28
 173 -12 173 -12 188.5 -3.5 c 128,-1,29
 204 5 204 5 213 14 c 0,30,31
 230 31 230 31 233 56.5 c 128,-1,32
 236 82 236 82 236 128 c 2,33,-1
 236 390 l 2,0,1
229 650 m 256,34,35
 229 682 229 682 206 705 c 128,-1,36
 183 728 183 728 151 728 c 256,37,38
 119 728 119 728 96 705 c 128,-1,39
 73 682 73 682 73 650 c 256,40,41
 73 618 73 618 96 595 c 128,-1,42
 119 572 119 572 151 572 c 256,43,44
 183 572 183 572 206 595 c 128,-1,45
 229 618 229 618 229 650 c 256,34,35
EndSplineSet
Validated: 9
EndChar

StartChar: j
Encoding: 106 106 74
Width: 302
GlyphClass: 1
Flags: W
LayerCount: 2
Fore
SplineSet
65 29 m 2,0,1
 65 -5 65 -5 62.5 -24.5 c 128,-1,2
 60 -44 60 -44 55 -53.5 c 128,-1,3
 50 -63 50 -63 43 -65.5 c 128,-1,4
 36 -68 36 -68 26 -68 c 0,5,6
 23 -68 23 -68 15.5 -67.5 c 128,-1,7
 8 -67 8 -67 -0.5 -66 c 128,-1,8
 -9 -65 -9 -65 -17 -64.5 c 128,-1,9
 -25 -64 -25 -64 -28 -64 c 0,10,11
 -57 -64 -57 -64 -74 -83 c 128,-1,12
 -91 -102 -91 -102 -91 -131 c 0,13,14
 -91 -139 -91 -139 -85.5 -158 c 128,-1,15
 -80 -177 -80 -177 -56 -190 c 0,16,17
 -36 -199 -36 -199 -3.5 -204.5 c 128,-1,18
 29 -210 29 -210 63 -210 c 0,19,20
 77 -210 77 -210 99.5 -207.5 c 128,-1,21
 122 -205 122 -205 145.5 -196 c 128,-1,22
 169 -187 169 -187 190 -169.5 c 128,-1,23
 211 -152 211 -152 221 -121 c 0,24,25
 231 -91 231 -91 232.5 -53.5 c 128,-1,26
 234 -16 234 -16 234 17 c 2,27,-1
 234 390 l 2,28,29
 234 435 234 435 231.5 461 c 128,-1,30
 229 487 229 487 212 504 c 0,31,32
 199 516 199 516 183 523 c 128,-1,33
 167 530 167 530 150 530 c 0,34,35
 129 530 129 530 113.5 521.5 c 128,-1,36
 98 513 98 513 88 503 c 0,37,38
 71 486 71 486 68 460.5 c 128,-1,39
 65 435 65 435 65 390 c 2,40,-1
 65 29 l 2,0,1
229 650 m 256,41,42
 229 682 229 682 206 705 c 128,-1,43
 183 728 183 728 151 728 c 256,44,45
 119 728 119 728 96 705 c 128,-1,46
 73 682 73 682 73 650 c 256,47,48
 73 618 73 618 96 595 c 128,-1,49
 119 572 119 572 151 572 c 256,50,51
 183 572 183 572 206 595 c 128,-1,52
 229 618 229 618 229 650 c 256,41,42
EndSplineSet
Validated: 9
EndChar

StartChar: k
Encoding: 107 107 75
Width: 615
GlyphClass: 1
Flags: W
LayerCount: 2
Fore
SplineSet
247 341 m 1,0,-1
 247 586 l 2,1,2
 247 632 247 632 245 658.5 c 128,-1,3
 243 685 243 685 226 702 c 0,4,5
 213 714 213 714 196.5 721 c 128,-1,6
 180 728 180 728 163 728 c 0,7,8
 142 728 142 728 126.5 719.5 c 128,-1,9
 111 711 111 711 101 701 c 0,10,11
 92 693 92 693 87.5 681 c 128,-1,12
 83 669 83 669 81 657.5 c 128,-1,13
 79 646 79 646 78.5 636.5 c 128,-1,14
 78 627 78 627 78 624 c 2,15,-1
 78 129 l 2,16,17
 78 84 78 84 81 57.5 c 128,-1,18
 84 31 84 31 101 14 c 0,19,20
 127 -12 127 -12 164 -12 c 0,21,22
 186 -12 186 -12 201 -3.5 c 128,-1,23
 216 5 216 5 226 15 c 0,24,25
 242 31 242 31 244.5 57 c 128,-1,26
 247 83 247 83 247 129 c 2,27,-1
 247 150 l 1,28,-1
 318 220 l 1,29,-1
 402 64 l 2,30,31
 418 33 418 33 437 10.5 c 128,-1,32
 456 -12 456 -12 491 -12 c 0,33,34
 504 -12 504 -12 518.5 -6.5 c 128,-1,35
 533 -1 533 -1 545 8.5 c 128,-1,36
 557 18 557 18 564.5 32 c 128,-1,37
 572 46 572 46 572 64 c 0,38,39
 572 77 572 77 566.5 92 c 128,-1,40
 561 107 561 107 542 139 c 2,41,-1
 428 333 l 1,42,-1
 485 390 l 2,43,44
 511 416 511 416 517.5 431.5 c 128,-1,45
 524 447 524 447 524 460 c 0,46,47
 524 489 524 489 503 509.5 c 128,-1,48
 482 530 482 530 452 530 c 0,49,50
 443 530 443 530 433.5 528 c 128,-1,51
 424 526 424 526 413 519 c 128,-1,52
 402 512 402 512 387.5 498.5 c 128,-1,53
 373 485 373 485 354 463 c 2,54,-1
 247 341 l 1,0,-1
EndSplineSet
Validated: 9
EndChar

StartChar: l
Encoding: 108 108 76
Width: 302
GlyphClass: 1
Flags: W
LayerCount: 2
Fore
SplineSet
235 588 m 2,0,1
 235 633 235 633 232 659 c 128,-1,2
 229 685 229 685 213 702 c 0,3,4
 200 715 200 715 184 721.5 c 128,-1,5
 168 728 168 728 151 728 c 0,6,7
 130 728 130 728 114.5 719.5 c 128,-1,8
 99 711 99 711 89 702 c 0,9,10
 72 685 72 685 69 659.5 c 128,-1,11
 66 634 66 634 66 588 c 2,12,-1
 66 128 l 2,13,14
 66 83 66 83 69 57 c 128,-1,15
 72 31 72 31 89 14 c 0,16,17
 102 1 102 1 118 -5.5 c 128,-1,18
 134 -12 134 -12 151 -12 c 0,19,20
 172 -12 172 -12 187.5 -4 c 128,-1,21
 203 4 203 4 213 14 c 0,22,23
 229 30 229 30 232 56 c 128,-1,24
 235 82 235 82 235 128 c 2,25,-1
 235 588 l 2,0,1
EndSplineSet
Validated: 9
EndChar

StartChar: m
Encoding: 109 109 77
Width: 948
GlyphClass: 1
Flags: W
LayerCount: 2
Fore
SplineSet
886 329 m 2,0,1
 886 331 886 331 885.5 342.5 c 128,-1,2
 885 354 885 354 883.5 369.5 c 128,-1,3
 882 385 882 385 879.5 401 c 128,-1,4
 877 417 877 417 873 429 c 0,5,6
 862 458 862 458 844.5 477.5 c 128,-1,7
 827 497 827 497 805.5 508.5 c 128,-1,8
 784 520 784 520 760 525 c 128,-1,9
 736 530 736 530 713 530 c 0,10,11
 684 530 684 530 660.5 524.5 c 128,-1,12
 637 519 637 519 616.5 508 c 128,-1,13
 596 497 596 497 578.5 481.5 c 128,-1,14
 561 466 561 466 543 446 c 1,15,16
 538 455 538 455 528.5 469 c 128,-1,17
 519 483 519 483 501.5 496.5 c 128,-1,18
 484 510 484 510 457 520 c 128,-1,19
 430 530 430 530 391 530 c 0,20,21
 329 530 329 530 290 506 c 128,-1,22
 251 482 251 482 220 446 c 1,23,24
 218 482 218 482 198.5 506 c 128,-1,25
 179 530 179 530 142 530 c 0,26,27
 124 530 124 530 110 523 c 128,-1,28
 96 516 96 516 85 505 c 0,29,30
 69 489 69 489 66 466 c 128,-1,31
 63 443 63 443 63 401 c 2,32,-1
 63 128 l 2,33,34
 63 83 63 83 66 57 c 128,-1,35
 69 31 69 31 86 14 c 0,36,37
 112 -12 112 -12 149 -12 c 0,38,39
 170 -12 170 -12 185.5 -3.5 c 128,-1,40
 201 5 201 5 210 14 c 0,41,42
 226 30 226 30 229 56 c 128,-1,43
 232 82 232 82 232 128 c 2,44,-1
 232 258 l 2,45,46
 232 274 232 274 233.5 298 c 128,-1,47
 235 322 235 322 243.5 345 c 128,-1,48
 252 368 252 368 270.5 384.5 c 128,-1,49
 289 401 289 401 324 401 c 0,50,51
 346 401 346 401 359.5 391.5 c 128,-1,52
 373 382 373 382 379.5 365.5 c 128,-1,53
 386 349 386 349 388 328 c 128,-1,54
 390 307 390 307 390 285 c 2,55,-1
 390 128 l 2,56,57
 390 83 390 83 393 57 c 128,-1,58
 396 31 396 31 413 14 c 0,59,60
 426 1 426 1 442 -5.5 c 128,-1,61
 458 -12 458 -12 475 -12 c 0,62,63
 497 -12 497 -12 512.5 -3.5 c 128,-1,64
 528 5 528 5 537 14 c 0,65,66
 553 30 553 30 556 56 c 128,-1,67
 559 82 559 82 559 128 c 2,68,-1
 559 258 l 2,69,70
 559 271 559 271 560.5 295 c 128,-1,71
 562 319 562 319 570 342 c 128,-1,72
 578 365 578 365 596.5 382.5 c 128,-1,73
 615 400 615 400 648 400 c 0,74,75
 674 400 674 400 688 388 c 128,-1,76
 702 376 702 376 708.5 359.5 c 128,-1,77
 715 343 715 343 716 325.5 c 128,-1,78
 717 308 717 308 717 296 c 2,79,-1
 717 128 l 2,80,81
 717 83 717 83 719.5 56.5 c 128,-1,82
 722 30 722 30 739 14 c 0,83,84
 765 -12 765 -12 802 -12 c 0,85,86
 823 -12 823 -12 838.5 -3.5 c 128,-1,87
 854 5 854 5 863 14 c 0,88,89
 880 31 880 31 883 56.5 c 128,-1,90
 886 82 886 82 886 128 c 2,91,-1
 886 329 l 2,0,1
EndSplineSet
Validated: 9
EndChar

StartChar: n
Encoding: 110 110 78
Width: 635
GlyphClass: 1
Flags: W
LayerCount: 2
Fore
SplineSet
573 307 m 2,0,1
 573 317 573 317 572.5 332.5 c 128,-1,2
 572 348 572 348 570.5 366 c 128,-1,3
 569 384 569 384 565.5 402 c 128,-1,4
 562 420 562 420 556 435 c 0,5,6
 543 466 543 466 523.5 484.5 c 128,-1,7
 504 503 504 503 481.5 513 c 128,-1,8
 459 523 459 523 436.5 526.5 c 128,-1,9
 414 530 414 530 395 530 c 0,10,11
 339 530 339 530 296.5 506.5 c 128,-1,12
 254 483 254 483 219 438 c 1,13,14
 220 471 220 471 209.5 489.5 c 128,-1,15
 199 508 199 508 185.5 517 c 128,-1,16
 172 526 172 526 159 528 c 128,-1,17
 146 530 146 530 142 530 c 0,18,19
 116 530 116 530 105 523 c 128,-1,20
 94 516 94 516 83 506 c 0,21,22
 68 490 68 490 65.5 466.5 c 128,-1,23
 63 443 63 443 63 400 c 2,24,-1
 63 128 l 2,25,26
 63 102 63 102 64.5 77 c 128,-1,27
 66 52 66 52 74 32.5 c 128,-1,28
 82 13 82 13 99 0.5 c 128,-1,29
 116 -12 116 -12 147 -12 c 0,30,31
 182 -12 182 -12 199.5 3.5 c 128,-1,32
 217 19 217 19 224.5 40.5 c 128,-1,33
 232 62 232 62 232 86 c 256,34,35
 232 110 232 110 232 128 c 2,36,-1
 232 242 l 2,37,38
 232 250 232 250 232 262 c 0,39,40
 232 275 232 275 233 288 c 128,-1,41
 234 301 234 301 235.5 313 c 128,-1,42
 237 325 237 325 239 332 c 0,43,44
 251 370 251 370 277 385 c 128,-1,45
 303 400 303 400 327 400 c 0,46,47
 356 400 356 400 372 387.5 c 128,-1,48
 388 375 388 375 395 356.5 c 128,-1,49
 402 338 402 338 403 316 c 128,-1,50
 404 294 404 294 404 275 c 2,51,-1
 404 128 l 2,52,53
 404 83 404 83 407 57 c 128,-1,54
 410 31 410 31 427 14 c 0,55,56
 453 -12 453 -12 490 -12 c 0,57,58
 512 -12 512 -12 527.5 -3 c 128,-1,59
 543 6 543 6 551 14 c 0,60,61
 567 30 567 30 570 56 c 128,-1,62
 573 82 573 82 573 128 c 2,63,-1
 573 307 l 2,0,1
EndSplineSet
Validated: 41
EndChar

StartChar: o
Encoding: 111 111 79
Width: 635
GlyphClass: 1
Flags: W
LayerCount: 2
Fore
SplineSet
35 262 m 0,0,1
 35 200 35 200 55 149.5 c 128,-1,2
 75 99 75 99 112 63 c 128,-1,3
 149 27 149 27 201 7.5 c 128,-1,4
 253 -12 253 -12 317 -12 c 0,5,6
 392 -12 392 -12 445.5 12.5 c 128,-1,7
 499 37 499 37 533.5 76 c 128,-1,8
 568 115 568 115 584 164 c 128,-1,9
 600 213 600 213 600 261 c 256,10,11
 600 309 600 309 584 357.5 c 128,-1,12
 568 406 568 406 533.5 444 c 128,-1,13
 499 482 499 482 445.5 506 c 128,-1,14
 392 530 392 530 317 530 c 0,15,16
 240 530 240 530 186 504.5 c 128,-1,17
 132 479 132 479 98.5 440 c 128,-1,18
 65 401 65 401 50 353.5 c 128,-1,19
 35 306 35 306 35 262 c 0,0,1
204 262 m 0,20,21
 204 289 204 289 210.5 315 c 128,-1,22
 217 341 217 341 231 361 c 128,-1,23
 245 381 245 381 266.5 393.5 c 128,-1,24
 288 406 288 406 318 406 c 256,25,26
 348 406 348 406 369.5 393.5 c 128,-1,27
 391 381 391 381 404.5 360.5 c 128,-1,28
 418 340 418 340 424.5 313 c 128,-1,29
 431 286 431 286 431 258 c 0,30,31
 431 220 431 220 421.5 192.5 c 128,-1,32
 412 165 412 165 396.5 147 c 128,-1,33
 381 129 381 129 360.5 120.5 c 128,-1,34
 340 112 340 112 318 112 c 0,35,36
 284 112 284 112 262 126 c 128,-1,37
 240 140 240 140 227 162 c 128,-1,38
 214 184 214 184 209 210.5 c 128,-1,39
 204 237 204 237 204 262 c 0,20,21
EndSplineSet
Validated: 9
EndChar

StartChar: p
Encoding: 112 112 80
Width: 635
GlyphClass: 1
Flags: W
LayerCount: 2
Fore
SplineSet
231 57 m 1,0,1
 240 48 240 48 252.5 36 c 128,-1,2
 265 24 265 24 283 13.5 c 128,-1,3
 301 3 301 3 325 -4.5 c 128,-1,4
 349 -12 349 -12 380 -12 c 0,5,6
 427 -12 427 -12 467 7 c 128,-1,7
 507 26 507 26 536.5 61.5 c 128,-1,8
 566 97 566 97 583 147 c 128,-1,9
 600 197 600 197 600 259 c 0,10,11
 600 325 600 325 582 376 c 128,-1,12
 564 427 564 427 534 461 c 128,-1,13
 504 495 504 495 464.5 512.5 c 128,-1,14
 425 530 425 530 382 530 c 0,15,16
 344 530 344 530 316 519 c 128,-1,17
 288 508 288 508 268 493.5 c 128,-1,18
 248 479 248 479 236 464 c 128,-1,19
 224 449 224 449 218 442 c 1,20,21
 213 530 213 530 140 530 c 0,22,23
 122 530 122 530 107.5 522.5 c 128,-1,24
 93 515 93 515 82 505 c 0,25,26
 67 489 67 489 64.5 466 c 128,-1,27
 62 443 62 443 62 400 c 2,28,-1
 62 -69 l 2,29,30
 62 -114 62 -114 64.5 -140.5 c 128,-1,31
 67 -167 67 -167 84 -184 c 0,32,33
 97 -196 97 -196 113 -203 c 128,-1,34
 129 -210 129 -210 146 -210 c 0,35,36
 168 -210 168 -210 183.5 -201 c 128,-1,37
 199 -192 199 -192 208 -183 c 0,38,39
 225 -166 225 -166 228 -140.5 c 128,-1,40
 231 -115 231 -115 231 -69 c 2,41,-1
 231 57 l 1,0,1
332 403 m 0,42,43
 347 403 347 403 364.5 397 c 128,-1,44
 382 391 382 391 396.5 375.5 c 128,-1,45
 411 360 411 360 421 332 c 128,-1,46
 431 304 431 304 431 261 c 0,47,48
 431 216 431 216 421 187.5 c 128,-1,49
 411 159 411 159 396 143.5 c 128,-1,50
 381 128 381 128 364 122.5 c 128,-1,51
 347 117 347 117 333 117 c 0,52,53
 326 117 326 117 309 120 c 128,-1,54
 292 123 292 123 274 137.5 c 128,-1,55
 256 152 256 152 242.5 181 c 128,-1,56
 229 210 229 210 229 262 c 0,57,58
 229 305 229 305 239 332 c 128,-1,59
 249 359 249 359 264.5 375 c 128,-1,60
 280 391 280 391 298 397 c 128,-1,61
 316 403 316 403 332 403 c 0,42,43
EndSplineSet
Validated: 9
EndChar

StartChar: q
Encoding: 113 113 81
Width: 635
GlyphClass: 1
Flags: W
LayerCount: 2
Fore
SplineSet
574 401 m 2,0,1
 574 443 574 443 571.5 466.5 c 128,-1,2
 569 490 569 490 553 506 c 0,3,4
 529 530 529 530 495 530 c 0,5,6
 474 530 474 530 459.5 521 c 128,-1,7
 445 512 445 512 438 505 c 0,8,9
 432 499 432 499 426 486.5 c 128,-1,10
 420 474 420 474 418 442 c 1,11,12
 406 457 406 457 392.5 472.5 c 128,-1,13
 379 488 379 488 360 500.5 c 128,-1,14
 341 513 341 513 315.5 521.5 c 128,-1,15
 290 530 290 530 256 530 c 0,16,17
 209 530 209 530 169 512 c 128,-1,18
 129 494 129 494 100 459.5 c 128,-1,19
 71 425 71 425 54 374 c 128,-1,20
 37 323 37 323 37 257 c 0,21,22
 37 196 37 196 53 146.5 c 128,-1,23
 69 97 69 97 97.5 61.5 c 128,-1,24
 126 26 126 26 166 7 c 128,-1,25
 206 -12 206 -12 254 -12 c 0,26,27
 298 -12 298 -12 337 6 c 128,-1,28
 376 24 376 24 405 57 c 1,29,-1
 405 -69 l 2,30,31
 405 -114 405 -114 407.5 -140.5 c 128,-1,32
 410 -167 410 -167 427 -184 c 0,33,34
 440 -196 440 -196 456.5 -203 c 128,-1,35
 473 -210 473 -210 490 -210 c 0,36,37
 512 -210 512 -210 527.5 -201 c 128,-1,38
 543 -192 543 -192 552 -183 c 0,39,40
 568 -167 568 -167 571 -141 c 128,-1,41
 574 -115 574 -115 574 -69 c 2,42,-1
 574 401 l 2,0,1
206 259 m 0,43,44
 206 267 206 267 207.5 290.5 c 128,-1,45
 209 314 209 314 219 339 c 128,-1,46
 229 364 229 364 249 383.5 c 128,-1,47
 269 403 269 403 307 403 c 0,48,49
 335 403 335 403 355.5 389.5 c 128,-1,50
 376 376 376 376 387 356 c 0,51,52
 393 345 393 345 400.5 323.5 c 128,-1,53
 408 302 408 302 408 263 c 0,54,55
 408 209 408 209 393.5 179.5 c 128,-1,56
 379 150 379 150 360.5 136 c 128,-1,57
 342 122 342 122 325 119.5 c 128,-1,58
 308 117 308 117 304 117 c 0,59,60
 296 117 296 117 280 120 c 128,-1,61
 264 123 264 123 247.5 137 c 128,-1,62
 231 151 231 151 218.5 179.5 c 128,-1,63
 206 208 206 208 206 259 c 0,43,44
EndSplineSet
Validated: 9
EndChar

StartChar: r
Encoding: 114 114 82
Width: 490
GlyphClass: 1
Flags: W
LayerCount: 2
Fore
SplineSet
231 167 m 2,0,1
 231 184 231 184 231.5 205 c 128,-1,2
 232 226 232 226 233.5 247.5 c 128,-1,3
 235 269 235 269 237.5 289.5 c 128,-1,4
 240 310 240 310 245 326 c 0,5,6
 252 348 252 348 262 361.5 c 128,-1,7
 272 375 272 375 282.5 381.5 c 128,-1,8
 293 388 293 388 302 390 c 128,-1,9
 311 392 311 392 314 392 c 0,10,11
 321 392 321 392 330 390 c 128,-1,12
 339 388 339 388 348 385.5 c 128,-1,13
 357 383 357 383 364 380.5 c 128,-1,14
 371 378 371 378 374 377 c 0,15,16
 379 375 379 375 389 372.5 c 128,-1,17
 399 370 399 370 410 370 c 256,18,19
 421 370 421 370 432.5 375 c 128,-1,20
 444 380 444 380 454 389 c 128,-1,21
 464 398 464 398 470 411 c 128,-1,22
 476 424 476 424 476 440 c 0,23,24
 476 467 476 467 458.5 484.5 c 128,-1,25
 441 502 441 502 418 512 c 128,-1,26
 395 522 395 522 372.5 526 c 128,-1,27
 350 530 350 530 341 530 c 0,28,29
 304 530 304 530 275.5 511 c 128,-1,30
 247 492 247 492 219 439 c 1,31,32
 219 473 219 473 208.5 491.5 c 128,-1,33
 198 510 198 510 184.5 518.5 c 128,-1,34
 171 527 171 527 158.5 528.5 c 128,-1,35
 146 530 146 530 141 530 c 0,36,37
 118 530 118 530 105.5 523 c 128,-1,38
 93 516 93 516 83 506 c 0,39,40
 67 490 67 490 64.5 466.5 c 128,-1,41
 62 443 62 443 62 400 c 2,42,-1
 62 128 l 2,43,44
 62 83 62 83 65 57 c 128,-1,45
 68 31 68 31 85 14 c 0,46,47
 97 1 97 1 113.5 -5.5 c 128,-1,48
 130 -12 130 -12 147 -12 c 0,49,50
 169 -12 169 -12 184.5 -3.5 c 128,-1,51
 200 5 200 5 209 14 c 0,52,53
 225 30 225 30 228 56 c 128,-1,54
 231 82 231 82 231 128 c 2,55,-1
 231 167 l 2,0,1
EndSplineSet
Validated: 9
EndChar

StartChar: s
Encoding: 115 115 83
Width: 563
GlyphClass: 1
Flags: W
LayerCount: 2
Fore
SplineSet
524 164 m 0,0,1
 524 207 524 207 505 235 c 128,-1,2
 486 263 486 263 456 281 c 128,-1,3
 426 299 426 299 388 310.5 c 128,-1,4
 350 322 350 322 311 331 c 0,5,6
 250 346 250 346 224 356.5 c 128,-1,7
 198 367 198 367 198 391 c 0,8,9
 198 410 198 410 219 419.5 c 128,-1,10
 240 429 240 429 263 429 c 0,11,12
 290 429 290 429 314.5 416.5 c 128,-1,13
 339 404 339 404 356 389 c 0,14,15
 379 369 379 369 395 358.5 c 128,-1,16
 411 348 411 348 434 348 c 0,17,18
 467 348 467 348 480.5 368 c 128,-1,19
 494 388 494 388 494 409 c 256,20,21
 494 430 494 430 481.5 452 c 128,-1,22
 469 474 469 474 441.5 491 c 128,-1,23
 414 508 414 508 369 519 c 128,-1,24
 324 530 324 530 259 530 c 256,25,26
 194 530 194 530 152.5 512.5 c 128,-1,27
 111 495 111 495 87 470.5 c 128,-1,28
 63 446 63 446 54 418.5 c 128,-1,29
 45 391 45 391 45 371 c 0,30,31
 45 333 45 333 67.5 302.5 c 128,-1,32
 90 272 90 272 125 251 c 0,33,34
 137 244 137 244 157 236 c 128,-1,35
 177 228 177 228 199 221 c 128,-1,36
 221 214 221 214 242.5 208 c 128,-1,37
 264 202 264 202 279 198 c 0,38,39
 292 195 292 195 307.5 190 c 128,-1,40
 323 185 323 185 335.5 178 c 128,-1,41
 348 171 348 171 356.5 162 c 128,-1,42
 365 153 365 153 365 142 c 0,43,44
 365 126 365 126 346 110 c 128,-1,45
 327 94 327 94 292 94 c 0,46,47
 260 94 260 94 228 105 c 128,-1,48
 196 116 196 116 176 144 c 0,49,50
 155 173 155 173 141.5 185.5 c 128,-1,51
 128 198 128 198 103 198 c 0,52,53
 71 198 71 198 55.5 176 c 128,-1,54
 40 154 40 154 40 130 c 0,55,56
 40 110 40 110 48 93 c 128,-1,57
 56 76 56 76 67 63 c 128,-1,58
 78 50 78 50 89 41.5 c 128,-1,59
 100 33 100 33 105 30 c 0,60,61
 116 23 116 23 130 15.5 c 128,-1,62
 144 8 144 8 164.5 2 c 128,-1,63
 185 -4 185 -4 213.5 -8 c 128,-1,64
 242 -12 242 -12 281 -12 c 0,65,66
 356 -12 356 -12 403.5 6.5 c 128,-1,67
 451 25 451 25 477.5 52 c 128,-1,68
 504 79 504 79 514 109.5 c 128,-1,69
 524 140 524 140 524 164 c 0,0,1
EndSplineSet
Validated: 9
EndChar

StartChar: t
Encoding: 116 116 84
Width: 385
GlyphClass: 1
Flags: W
LayerCount: 2
Fore
SplineSet
255 396 m 1,0,1
 277 396 277 396 290 396 c 0,2,3
 304 396 304 396 312.5 397 c 128,-1,4
 321 398 321 398 326.5 400 c 128,-1,5
 332 402 332 402 339 405 c 0,6,7
 352 410 352 410 360.5 425.5 c 128,-1,8
 369 441 369 441 369 458 c 0,9,10
 369 477 369 477 359.5 491 c 128,-1,11
 350 505 350 505 339 510 c 0,12,13
 332 513 332 513 325.5 514.5 c 128,-1,14
 319 516 319 516 310 517 c 128,-1,15
 301 518 301 518 288 518 c 256,16,17
 275 518 275 518 255 518 c 1,18,-1
 255 611 l 2,19,20
 255 641 255 641 253 656.5 c 128,-1,21
 251 672 251 672 244 686 c 0,22,23
 236 703 236 703 216.5 715.5 c 128,-1,24
 197 728 197 728 171 728 c 0,25,26
 146 728 146 728 126 715.5 c 128,-1,27
 106 703 106 703 98 686 c 0,28,29
 94 678 94 678 91.5 669.5 c 128,-1,30
 89 661 89 661 88 650.5 c 128,-1,31
 87 640 87 640 86.5 626 c 128,-1,32
 86 612 86 612 86 593 c 2,33,-1
 86 519 l 1,34,35
 76 520 76 520 63 518.5 c 128,-1,36
 50 517 50 517 37 510 c 0,37,38
 25 505 25 505 15.5 490.5 c 128,-1,39
 6 476 6 476 6 457 c 0,40,41
 6 441 6 441 12.5 430 c 128,-1,42
 19 419 19 419 26 412 c 0,43,44
 35 403 35 403 51 400.5 c 128,-1,45
 67 398 67 398 86 397 c 1,46,-1
 86 188 l 2,47,48
 86 148 86 148 89 111.5 c 128,-1,49
 92 75 92 75 107.5 47.5 c 128,-1,50
 123 20 123 20 156.5 4 c 128,-1,51
 190 -12 190 -12 250 -12 c 0,52,53
 272 -12 272 -12 302.5 -9 c 128,-1,54
 333 -6 333 -6 365 5 c 0,55,56
 386 13 386 13 402.5 27.5 c 128,-1,57
 419 42 419 42 419 70 c 0,58,59
 419 93 419 93 404 109 c 128,-1,60
 389 125 389 125 367 125 c 0,61,62
 354 125 354 125 336 120 c 128,-1,63
 318 115 318 115 295 115 c 0,64,65
 265 115 265 115 260 136.5 c 128,-1,66
 255 158 255 158 255 195 c 2,67,-1
 255 396 l 1,0,1
EndSplineSet
Validated: 9
EndChar

StartChar: u
Encoding: 117 117 85
Width: 635
GlyphClass: 1
Flags: W
LayerCount: 2
Fore
SplineSet
61 190 m 2,0,1
 61 164 61 164 64.5 135 c 128,-1,2
 68 106 68 106 83 72 c 0,3,4
 92 53 92 53 107.5 38 c 128,-1,5
 123 23 123 23 142.5 12.5 c 128,-1,6
 162 2 162 2 184 -3.5 c 128,-1,7
 206 -9 206 -9 229 -9 c 0,8,9
 271 -9 271 -9 302.5 1.5 c 128,-1,10
 334 12 334 12 356.5 26.5 c 128,-1,11
 379 41 379 41 392.5 56.5 c 128,-1,12
 406 72 406 72 414 81 c 1,13,14
 414 47 414 47 424.5 28 c 128,-1,15
 435 9 435 9 449 0 c 128,-1,16
 463 -9 463 -9 476 -10.5 c 128,-1,17
 489 -12 489 -12 493 -12 c 0,18,19
 512 -12 512 -12 526 -5 c 128,-1,20
 540 2 540 2 550 12 c 0,21,22
 566 28 566 28 568.5 52 c 128,-1,23
 571 76 571 76 571 118 c 2,24,-1
 571 390 l 2,25,26
 571 435 571 435 568 461 c 128,-1,27
 565 487 565 487 548 504 c 0,28,29
 522 530 522 530 486 530 c 0,30,31
 465 530 465 530 449.5 521 c 128,-1,32
 434 512 434 512 425 503 c 0,33,34
 408 486 408 486 405 460.5 c 128,-1,35
 402 435 402 435 402 390 c 2,36,-1
 402 284 l 2,37,38
 402 241 402 241 400 212 c 128,-1,39
 398 183 398 183 388 166 c 0,40,41
 376 145 376 145 354.5 131.5 c 128,-1,42
 333 118 333 118 306 118 c 0,43,44
 278 118 278 118 262.5 131 c 128,-1,45
 247 144 247 144 240 164 c 128,-1,46
 233 184 233 184 231.5 209 c 128,-1,47
 230 234 230 234 230 257 c 2,48,-1
 230 389 l 2,49,50
 230 434 230 434 227 460.5 c 128,-1,51
 224 487 224 487 207 504 c 0,52,53
 194 516 194 516 177.5 523 c 128,-1,54
 161 530 161 530 144 530 c 0,55,56
 122 530 122 530 107 521 c 128,-1,57
 92 512 92 512 83 503 c 0,58,59
 75 495 75 495 70.5 484.5 c 128,-1,60
 66 474 66 474 64 460.5 c 128,-1,61
 62 447 62 447 61.5 429.5 c 128,-1,62
 61 412 61 412 61 389 c 2,63,-1
 61 190 l 2,0,1
EndSplineSet
Validated: 9
EndChar

StartChar: v
Encoding: 118 118 86
Width: 563
GlyphClass: 1
Flags: W
LayerCount: 2
Fore
SplineSet
296 221 m 2,0,1
 294 214 294 214 290.5 202.5 c 128,-1,2
 287 191 287 191 282 177 c 1,3,4
 278 190 278 190 274.5 200.5 c 128,-1,5
 271 211 271 211 268 221 c 2,6,-1
 200 425 l 2,7,8
 192 450 192 450 184.5 469.5 c 128,-1,9
 177 489 177 489 167 502.5 c 128,-1,10
 157 516 157 516 143 523 c 128,-1,11
 129 530 129 530 108 530 c 0,12,13
 90 530 90 530 75 523 c 128,-1,14
 60 516 60 516 49.5 505.5 c 128,-1,15
 39 495 39 495 33.5 482 c 128,-1,16
 28 469 28 469 28 457 c 0,17,18
 28 439 28 439 34 421.5 c 128,-1,19
 40 404 40 404 54 371 c 2,20,-1
 157 117 l 2,21,22
 177 67 177 67 189.5 42.5 c 128,-1,23
 202 18 202 18 220 6 c 0,24,25
 247 -12 247 -12 281 -12 c 0,26,27
 300 -12 300 -12 315.5 -6.5 c 128,-1,28
 331 -1 331 -1 342 7 c 0,29,30
 359 19 359 19 371.5 43 c 128,-1,31
 384 67 384 67 404 117 c 2,32,-1
 510 375 l 2,33,34
 517 392 517 392 521.5 404 c 128,-1,35
 526 416 526 416 529 425 c 128,-1,36
 532 434 532 434 533.5 442 c 128,-1,37
 535 450 535 450 535 459 c 0,38,39
 535 471 535 471 529 484 c 128,-1,40
 523 497 523 497 513 507 c 128,-1,41
 503 517 503 517 488.5 523.5 c 128,-1,42
 474 530 474 530 458 530 c 0,43,44
 437 530 437 530 423 523 c 128,-1,45
 409 516 409 516 399.5 503 c 128,-1,46
 390 490 390 490 382.5 471 c 128,-1,47
 375 452 375 452 367 428 c 2,48,-1
 296 221 l 2,0,1
EndSplineSet
Validated: 9
EndChar

StartChar: w
Encoding: 119 119 87
Width: 865
GlyphClass: 1
Flags: W
LayerCount: 2
Fore
SplineSet
256 185 m 1,0,-1
 191 426 l 2,1,2
 185 449 185 449 178.5 468.5 c 128,-1,3
 172 488 172 488 163 501.5 c 128,-1,4
 154 515 154 515 140.5 522.5 c 128,-1,5
 127 530 127 530 105 530 c 0,6,7
 71 530 71 530 50.5 507.5 c 128,-1,8
 30 485 30 485 30 460 c 0,9,10
 30 444 30 444 34.5 429 c 128,-1,11
 39 414 39 414 50 382 c 2,12,-1
 140 120 l 2,13,14
 157 71 157 71 168.5 46.5 c 128,-1,15
 180 22 180 22 197 8 c 0,16,17
 211 -4 211 -4 226.5 -8 c 128,-1,18
 242 -12 242 -12 258 -12 c 0,19,20
 278 -12 278 -12 294.5 -5 c 128,-1,21
 311 2 311 2 322 11 c 0,22,23
 339 24 339 24 349 50 c 128,-1,24
 359 76 359 76 374 126 c 2,25,-1
 432 323 l 1,26,-1
 491 124 l 2,27,28
 505 75 505 75 515.5 49.5 c 128,-1,29
 526 24 526 24 544 10 c 0,30,31
 572 -12 572 -12 608 -12 c 0,32,33
 626 -12 626 -12 641 -6 c 128,-1,34
 656 0 656 0 668 8 c 0,35,36
 686 21 686 21 696.5 46 c 128,-1,37
 707 71 707 71 724 120 c 2,38,-1
 815 382 l 2,39,40
 821 399 821 399 825 410.5 c 128,-1,41
 829 422 829 422 831 430.5 c 128,-1,42
 833 439 833 439 834 446 c 128,-1,43
 835 453 835 453 835 461 c 0,44,45
 835 474 835 474 829 486.5 c 128,-1,46
 823 499 823 499 813 508.5 c 128,-1,47
 803 518 803 518 789 524 c 128,-1,48
 775 530 775 530 760 530 c 0,49,50
 738 530 738 530 724 522.5 c 128,-1,51
 710 515 710 515 701 501.5 c 128,-1,52
 692 488 692 488 685.5 469 c 128,-1,53
 679 450 679 450 673 426 c 2,54,-1
 607 185 l 1,55,-1
 546 396 l 2,56,57
 532 444 532 444 521.5 469.5 c 128,-1,58
 511 495 511 495 494 509 c 0,59,60
 480 520 480 520 464 525 c 128,-1,61
 448 530 448 530 431 530 c 0,62,63
 412 530 412 530 396.5 523.5 c 128,-1,64
 381 517 381 517 369 509 c 0,65,66
 352 495 352 495 342 469.5 c 128,-1,67
 332 444 332 444 318 395 c 2,68,-1
 256 185 l 1,0,-1
EndSplineSet
Validated: 9
EndChar

StartChar: x
Encoding: 120 120 88
Width: 531
GlyphClass: 1
Flags: W
LayerCount: 2
Fore
SplineSet
155 272 m 1,0,-1
 59 127 l 2,1,2
 49 112 49 112 42.5 102 c 128,-1,3
 36 92 36 92 32.5 83.5 c 128,-1,4
 29 75 29 75 27.5 67.5 c 128,-1,5
 26 60 26 60 26 51 c 0,6,7
 26 24 26 24 47.5 6 c 128,-1,8
 69 -12 69 -12 101 -12 c 0,9,10
 109 -12 109 -12 118.5 -10.5 c 128,-1,11
 128 -9 128 -9 140 -2 c 128,-1,12
 152 5 152 5 166 19 c 128,-1,13
 180 33 180 33 196 58 c 2,14,-1
 265 165 l 1,15,-1
 335 58 l 2,16,17
 350 35 350 35 363.5 21 c 128,-1,18
 377 7 377 7 388.5 -0.5 c 128,-1,19
 400 -8 400 -8 410 -10 c 128,-1,20
 420 -12 420 -12 430 -12 c 0,21,22
 461 -12 461 -12 483 5.5 c 128,-1,23
 505 23 505 23 505 52 c 0,24,25
 505 70 505 70 497.5 83.5 c 128,-1,26
 490 97 490 97 471 127 c 2,27,-1
 376 272 l 1,28,-1
 460 392 l 2,29,30
 471 407 471 407 477.5 418 c 128,-1,31
 484 429 484 429 487.5 437.5 c 128,-1,32
 491 446 491 446 492 452.5 c 128,-1,33
 493 459 493 459 493 467 c 0,34,35
 493 495 493 495 471.5 512.5 c 128,-1,36
 450 530 450 530 418 530 c 0,37,38
 392 530 392 530 371.5 516 c 128,-1,39
 351 502 351 502 323 461 c 2,40,-1
 265 375 l 1,41,-1
 208 461 l 2,42,43
 179 505 179 505 157.5 517.5 c 128,-1,44
 136 530 136 530 113 530 c 0,45,46
 84 530 84 530 60.5 513.5 c 128,-1,47
 37 497 37 497 37 466 c 0,48,49
 37 452 37 452 43.5 437 c 128,-1,50
 50 422 50 422 71 392 c 2,51,-1
 155 272 l 1,0,-1
EndSplineSet
Validated: 9
EndChar

StartChar: y
Encoding: 121 121 89
Width: 583
GlyphClass: 1
Flags: W
LayerCount: 2
Fore
SplineSet
212 2 m 1,0,1
 206 -17 206 -17 198.5 -33 c 128,-1,2
 191 -49 191 -49 179.5 -61 c 128,-1,3
 168 -73 168 -73 152 -79.5 c 128,-1,4
 136 -86 136 -86 112 -86 c 0,5,6
 109 -86 109 -86 102.5 -85.5 c 128,-1,7
 96 -85 96 -85 88 -84.5 c 128,-1,8
 80 -84 80 -84 73 -83.5 c 128,-1,9
 66 -83 66 -83 63 -83 c 0,10,11
 37 -83 37 -83 21 -99.5 c 128,-1,12
 5 -116 5 -116 5 -139 c 0,13,14
 5 -166 5 -166 19.5 -180 c 128,-1,15
 34 -194 34 -194 55 -201 c 128,-1,16
 76 -208 76 -208 101 -209 c 128,-1,17
 126 -210 126 -210 147 -210 c 0,18,19
 207 -210 207 -210 244.5 -196.5 c 128,-1,20
 282 -183 282 -183 306.5 -157.5 c 128,-1,21
 331 -132 331 -132 346.5 -96.5 c 128,-1,22
 362 -61 362 -61 379 -16 c 2,23,-1
 526 377 l 2,24,25
 536 403 536 403 541.5 420.5 c 128,-1,26
 547 438 547 438 547 455 c 0,27,28
 547 465 547 465 543 478 c 128,-1,29
 539 491 539 491 530 502.5 c 128,-1,30
 521 514 521 514 506.5 522 c 128,-1,31
 492 530 492 530 471 530 c 0,32,33
 452 530 452 530 439 524 c 128,-1,34
 426 518 426 518 415 504 c 128,-1,35
 404 490 404 490 394.5 465.5 c 128,-1,36
 385 441 385 441 374 405 c 2,37,-1
 298 162 l 1,38,-1
 208 443 l 2,39,40
 195 484 195 484 176.5 507 c 128,-1,41
 158 530 158 530 124 530 c 0,42,43
 93 530 93 530 67 508.5 c 128,-1,44
 41 487 41 487 41 449 c 0,45,46
 41 435 41 435 44.5 423.5 c 128,-1,47
 48 412 48 412 59 386 c 2,48,-1
 212 2 l 1,0,1
EndSplineSet
Validated: 9
EndChar

StartChar: z
Encoding: 122 122 90
Width: 531
GlyphClass: 1
Flags: W
LayerCount: 2
Fore
SplineSet
245 394 m 2,0,1
 252 394 252 394 257 394 c 256,2,3
 262 394 262 394 276 395 c 1,4,5
 274 393 274 393 272 390.5 c 128,-1,6
 270 388 270 388 266 384.5 c 128,-1,7
 262 381 262 381 256.5 374.5 c 128,-1,8
 251 368 251 368 241 357 c 2,9,-1
 66 168 l 2,10,11
 49 150 49 150 38.5 138 c 128,-1,12
 28 126 28 126 21.5 116.5 c 128,-1,13
 15 107 15 107 12.5 98.5 c 128,-1,14
 10 90 10 90 10 79 c 0,15,16
 10 45 10 45 34 22 c 0,17,18
 42 14 42 14 50 9.5 c 128,-1,19
 58 5 58 5 69.5 3 c 128,-1,20
 81 1 81 1 97.5 0.5 c 128,-1,21
 114 0 114 0 139 0 c 2,22,-1
 415 0 l 2,23,24
 450 0 450 0 469.5 2 c 128,-1,25
 489 4 489 4 502 17 c 0,26,27
 522 37 522 37 522 64 c 0,28,29
 522 81 522 81 515.5 92.5 c 128,-1,30
 509 104 509 104 502 111 c 0,31,32
 489 124 489 124 469.5 126 c 128,-1,33
 450 128 450 128 415 128 c 2,34,-1
 265 128 l 2,35,36
 260 128 260 128 248 127.5 c 128,-1,37
 236 127 236 127 228 126 c 1,38,39
 236 134 236 134 244.5 143 c 128,-1,40
 253 152 253 152 265 165 c 2,41,-1
 427 340 l 2,42,43
 448 362 448 362 461 377 c 128,-1,44
 474 392 474 392 481.5 403 c 128,-1,45
 489 414 489 414 491.5 424 c 128,-1,46
 494 434 494 434 494 448 c 0,47,48
 494 467 494 467 485 482 c 128,-1,49
 476 497 476 497 463 505 c 0,50,51
 454 510 454 510 444.5 512.5 c 128,-1,52
 435 515 435 515 421.5 516.5 c 128,-1,53
 408 518 408 518 388 518 c 256,54,55
 368 518 368 518 340 518 c 2,56,-1
 130 518 l 2,57,58
 97 518 97 518 77.5 516 c 128,-1,59
 58 514 58 514 46 502 c 0,60,61
 37 493 37 493 32 480.5 c 128,-1,62
 27 468 27 468 27 456 c 0,63,64
 27 439 27 439 33.5 428 c 128,-1,65
 40 417 40 417 46 410 c 0,66,67
 59 398 59 398 77.5 396 c 128,-1,68
 96 394 96 394 130 394 c 2,69,-1
 245 394 l 2,0,1
EndSplineSet
Validated: 9
EndChar

StartChar: braceleft
Encoding: 123 123 91
Width: 385
GlyphClass: 1
Flags: W
LayerCount: 2
Fore
SplineSet
185 259 m 1,0,1
 216 274 216 274 233.5 295.5 c 128,-1,2
 251 317 251 317 260 345 c 128,-1,3
 269 373 269 373 271 408.5 c 128,-1,4
 273 444 273 444 273 488 c 0,5,6
 273 501 273 501 274 521.5 c 128,-1,7
 275 542 275 542 280 553 c 0,8,9
 283 561 283 561 286 566 c 128,-1,10
 289 571 289 571 294.5 575.5 c 128,-1,11
 300 580 300 580 309.5 585.5 c 128,-1,12
 319 591 319 591 336 599 c 0,13,14
 348 605 348 605 359 621 c 128,-1,15
 370 637 370 637 370 659 c 0,16,17
 370 674 370 674 364 687 c 128,-1,18
 358 700 358 700 349 710 c 0,19,20
 338 721 338 721 320 724.5 c 128,-1,21
 302 728 302 728 287 728 c 0,22,23
 276 728 276 728 254 725 c 128,-1,24
 232 722 232 722 208 712 c 128,-1,25
 184 702 184 702 163 682 c 128,-1,26
 142 662 142 662 133 628 c 0,27,28
 129 613 129 613 126.5 599.5 c 128,-1,29
 124 586 124 586 123 568.5 c 128,-1,30
 122 551 122 551 122 527 c 256,31,32
 122 503 122 503 122 467 c 0,33,34
 122 440 122 440 120 420 c 128,-1,35
 118 400 118 400 111 384 c 128,-1,36
 104 368 104 368 90.5 353 c 128,-1,37
 77 338 77 338 55 320 c 0,38,39
 37 305 37 305 29 292.5 c 128,-1,40
 21 280 21 280 21 260 c 0,41,42
 21 238 21 238 29.5 225.5 c 128,-1,43
 38 213 38 213 55 198 c 0,44,45
 80 177 80 177 93.5 161.5 c 128,-1,46
 107 146 107 146 113 126.5 c 128,-1,47
 119 107 119 107 120 80 c 128,-1,48
 121 53 121 53 121 9 c 0,49,50
 121 -23 121 -23 122.5 -46.5 c 128,-1,51
 124 -70 124 -70 127 -87.5 c 128,-1,52
 130 -105 130 -105 134.5 -117.5 c 128,-1,53
 139 -130 139 -130 145 -141 c 0,54,55
 154 -158 154 -158 169 -170.5 c 128,-1,56
 184 -183 184 -183 203.5 -192 c 128,-1,57
 223 -201 223 -201 245 -205.5 c 128,-1,58
 267 -210 267 -210 289 -210 c 0,59,60
 316 -210 316 -210 332 -202.5 c 128,-1,61
 348 -195 348 -195 356.5 -184.5 c 128,-1,62
 365 -174 365 -174 367.5 -162 c 128,-1,63
 370 -150 370 -150 370 -141 c 0,64,65
 370 -120 370 -120 359.5 -104 c 128,-1,66
 349 -88 349 -88 336 -81 c 0,67,68
 313 -69 313 -69 300 -61.5 c 128,-1,69
 287 -54 287 -54 281 -41.5 c 128,-1,70
 275 -29 275 -29 274 -8 c 128,-1,71
 273 13 273 13 273 51 c 0,72,73
 273 102 273 102 267.5 137 c 128,-1,74
 262 172 262 172 251 195.5 c 128,-1,75
 240 219 240 219 223.5 233.5 c 128,-1,76
 207 248 207 248 185 259 c 1,0,1
EndSplineSet
Validated: 9
EndChar

StartChar: bar
Encoding: 124 124 92
Width: 281
GlyphClass: 1
Flags: W
LayerCount: 2
Fore
SplineSet
82 -113 m 2,0,1
 82 -144 82 -144 84 -162.5 c 128,-1,2
 86 -181 86 -181 98 -192 c 0,3,4
 106 -201 106 -201 117.5 -205.5 c 128,-1,5
 129 -210 129 -210 141 -210 c 0,6,7
 156 -210 156 -210 166.5 -204 c 128,-1,8
 177 -198 177 -198 184 -192 c 0,9,10
 195 -180 195 -180 197 -162.5 c 128,-1,11
 199 -145 199 -145 199 -113 c 2,12,-1
 199 631 l 2,13,14
 199 662 199 662 197 680 c 128,-1,15
 195 698 195 698 183 710 c 0,16,17
 165 728 165 728 140 728 c 0,18,19
 125 728 125 728 114.5 722 c 128,-1,20
 104 716 104 716 97 710 c 0,21,22
 86 698 86 698 84 680.5 c 128,-1,23
 82 663 82 663 82 631 c 2,24,-1
 82 -113 l 2,0,1
EndSplineSet
Validated: 9
EndChar

StartChar: braceright
Encoding: 125 125 93
Width: 385
GlyphClass: 1
Flags: W
LayerCount: 2
Fore
SplineSet
201 259 m 1,0,1
 169 244 169 244 151.5 222.5 c 128,-1,2
 134 201 134 201 125 172.5 c 128,-1,3
 116 144 116 144 114 108.5 c 128,-1,4
 112 73 112 73 112 30 c 0,5,6
 112 16 112 16 111 -4 c 128,-1,7
 110 -24 110 -24 105 -36 c 0,8,9
 102 -44 102 -44 99 -49 c 128,-1,10
 96 -54 96 -54 90.5 -58.5 c 128,-1,11
 85 -63 85 -63 75 -68 c 128,-1,12
 65 -73 65 -73 49 -81 c 0,13,14
 37 -87 37 -87 26 -103 c 128,-1,15
 15 -119 15 -119 15 -141 c 0,16,17
 15 -171 15 -171 36 -192 c 0,18,19
 48 -203 48 -203 66 -206.5 c 128,-1,20
 84 -210 84 -210 99 -210 c 0,21,22
 110 -210 110 -210 131.5 -207 c 128,-1,23
 153 -204 153 -204 177 -194 c 128,-1,24
 201 -184 201 -184 222 -164 c 128,-1,25
 243 -144 243 -144 252 -110 c 0,26,27
 256 -96 256 -96 258.5 -82.5 c 128,-1,28
 261 -69 261 -69 262 -51.5 c 128,-1,29
 263 -34 263 -34 263 -9 c 0,30,31
 263 15 263 15 263 51 c 0,32,33
 263 78 263 78 265 97.5 c 128,-1,34
 267 117 267 117 274 133.5 c 128,-1,35
 281 150 281 150 294.5 165 c 128,-1,36
 308 180 308 180 330 198 c 0,37,38
 348 213 348 213 356 226 c 128,-1,39
 364 239 364 239 364 257 c 0,40,41
 364 280 364 280 355.5 293 c 128,-1,42
 347 306 347 306 330 320 c 0,43,44
 305 340 305 340 291.5 355.5 c 128,-1,45
 278 371 278 371 272 390 c 128,-1,46
 266 409 266 409 265 436.5 c 128,-1,47
 264 464 264 464 264 508 c 0,48,49
 264 541 264 541 262.5 564.5 c 128,-1,50
 261 588 261 588 258 605 c 128,-1,51
 255 622 255 622 250.5 635 c 128,-1,52
 246 648 246 648 240 659 c 0,53,54
 231 675 231 675 216 688 c 128,-1,55
 201 701 201 701 181.5 710 c 128,-1,56
 162 719 162 719 140 723.5 c 128,-1,57
 118 728 118 728 96 728 c 0,58,59
 69 728 69 728 53 720.5 c 128,-1,60
 37 713 37 713 28.5 702 c 128,-1,61
 20 691 20 691 17.5 679 c 128,-1,62
 15 667 15 667 15 659 c 0,63,64
 15 637 15 637 25.5 621 c 128,-1,65
 36 605 36 605 49 599 c 0,66,67
 72 587 72 587 85 579 c 128,-1,68
 98 571 98 571 104 558.5 c 128,-1,69
 110 546 110 546 111 525 c 128,-1,70
 112 504 112 504 112 466 c 0,71,72
 112 415 112 415 117.5 380.5 c 128,-1,73
 123 346 123 346 134.5 322.5 c 128,-1,74
 146 299 146 299 162.5 284.5 c 128,-1,75
 179 270 179 270 201 259 c 1,0,1
EndSplineSet
Validated: 9
EndChar

StartChar: asciitilde
Encoding: 126 126 94
Width: 625
GlyphClass: 1
Flags: W
LayerCount: 2
Fore
SplineSet
43 244 m 1,0,1
 89 289 89 289 125.5 303 c 128,-1,2
 162 317 162 317 188 317 c 0,3,4
 211 317 211 317 235.5 309 c 128,-1,5
 260 301 260 301 298 284 c 0,6,7
 338 265 338 265 366.5 255 c 128,-1,8
 395 245 395 245 430 245 c 0,9,10
 456 245 456 245 480 253 c 128,-1,11
 504 261 504 261 524 272.5 c 128,-1,12
 544 284 544 284 559 295.5 c 128,-1,13
 574 307 574 307 582 315 c 1,14,-1
 582 460 l 1,15,16
 555 434 555 434 532 419.5 c 128,-1,17
 509 405 509 405 491 397.5 c 128,-1,18
 473 390 473 390 460.5 388.5 c 128,-1,19
 448 387 448 387 442 387 c 0,20,21
 432 387 432 387 424.5 388 c 128,-1,22
 417 389 417 389 404.5 393 c 128,-1,23
 392 397 392 397 371 406 c 128,-1,24
 350 415 350 415 314 430 c 0,25,26
 268 450 268 450 242 454.5 c 128,-1,27
 216 459 216 459 200 459 c 0,28,29
 173 459 173 459 150 452.5 c 128,-1,30
 127 446 127 446 108 436 c 128,-1,31
 89 426 89 426 72.5 413 c 128,-1,32
 56 400 56 400 43 388 c 1,33,-1
 43 244 l 1,0,1
EndSplineSet
Validated: 9
EndChar

StartChar: dieresis
Encoding: 168 168 95
Width: 333
GlyphClass: 1
Flags: W
LayerCount: 2
Fore
SplineSet
123 657 m 256,0,1
 123 683 123 683 105.5 700.5 c 128,-1,2
 88 718 88 718 62 718 c 256,3,4
 36 718 36 718 18.5 700.5 c 128,-1,5
 1 683 1 683 1 657 c 256,6,7
 1 631 1 631 18.5 613.5 c 128,-1,8
 36 596 36 596 62 596 c 256,9,10
 88 596 88 596 105.5 613.5 c 128,-1,11
 123 631 123 631 123 657 c 256,0,1
332 657 m 256,12,13
 332 683 332 683 314.5 700.5 c 128,-1,14
 297 718 297 718 271 718 c 256,15,16
 245 718 245 718 227.5 700.5 c 128,-1,17
 210 683 210 683 210 657 c 256,18,19
 210 631 210 631 227.5 613.5 c 128,-1,20
 245 596 245 596 271 596 c 256,21,22
 297 596 297 596 314.5 613.5 c 128,-1,23
 332 631 332 631 332 657 c 256,12,13
EndSplineSet
Validated: 9
EndChar

StartChar: copyright
Encoding: 169 169 96
Width: 771
GlyphClass: 1
Flags: W
LayerCount: 2
Fore
SplineSet
474 304 m 1,0,1
 472 295 472 295 467 280.5 c 128,-1,2
 462 266 462 266 452 251.5 c 128,-1,3
 442 237 442 237 425.5 226.5 c 128,-1,4
 409 216 409 216 384 216 c 0,5,6
 349 216 349 216 330 234.5 c 128,-1,7
 311 253 311 253 302.5 277 c 128,-1,8
 294 301 294 301 292.5 324.5 c 128,-1,9
 291 348 291 348 291 357 c 0,10,11
 291 370 291 370 293 392.5 c 128,-1,12
 295 415 295 415 304.5 437 c 128,-1,13
 314 459 314 459 333.5 475.5 c 128,-1,14
 353 492 353 492 387 492 c 0,15,16
 396 492 396 492 408.5 489.5 c 128,-1,17
 421 487 421 487 433.5 479.5 c 128,-1,18
 446 472 446 472 457 457.5 c 128,-1,19
 468 443 468 443 474 419 c 1,20,-1
 562 436 l 1,21,22
 546 498 546 498 499.5 530.5 c 128,-1,23
 453 563 453 563 390 563 c 0,24,25
 344 563 344 563 307.5 547 c 128,-1,26
 271 531 271 531 245.5 503 c 128,-1,27
 220 475 220 475 206.5 436.5 c 128,-1,28
 193 398 193 398 193 353 c 0,29,30
 193 305 193 305 207.5 266.5 c 128,-1,31
 222 228 222 228 248 201 c 128,-1,32
 274 174 274 174 309.5 159.5 c 128,-1,33
 345 145 345 145 388 145 c 0,34,35
 456 145 456 145 500 179.5 c 128,-1,36
 544 214 544 214 564 279 c 1,37,-1
 474 304 l 1,0,1
385 728 m 256,38,39
 308 728 308 728 240.5 699 c 128,-1,40
 173 670 173 670 122 619.5 c 128,-1,41
 71 569 71 569 41.5 501 c 128,-1,42
 12 433 12 433 12 355 c 0,43,44
 12 278 12 278 41.5 210 c 128,-1,45
 71 142 71 142 121.5 91 c 128,-1,46
 172 40 172 40 240 10.5 c 128,-1,47
 308 -19 308 -19 385 -19 c 0,48,49
 463 -19 463 -19 531 10.5 c 128,-1,50
 599 40 599 40 649.5 91 c 128,-1,51
 700 142 700 142 729.5 210 c 128,-1,52
 759 278 759 278 759 355 c 0,53,54
 759 433 759 433 729.5 501 c 128,-1,55
 700 569 700 569 649 619.5 c 128,-1,56
 598 670 598 670 530 699 c 128,-1,57
 462 728 462 728 385 728 c 256,38,39
385 655 m 256,58,59
 447 655 447 655 501.5 631.5 c 128,-1,60
 556 608 556 608 597 567.5 c 128,-1,61
 638 527 638 527 662 472.5 c 128,-1,62
 686 418 686 418 686 355 c 0,63,64
 686 293 686 293 662.5 238 c 128,-1,65
 639 183 639 183 598 142 c 128,-1,66
 557 101 557 101 502 77.5 c 128,-1,67
 447 54 447 54 385 54 c 256,68,69
 323 54 323 54 268.5 77.5 c 128,-1,70
 214 101 214 101 173 142 c 128,-1,71
 132 183 132 183 108.5 238 c 128,-1,72
 85 293 85 293 85 355 c 0,73,74
 85 418 85 418 108.5 472.5 c 128,-1,75
 132 527 132 527 173 567.5 c 128,-1,76
 214 608 214 608 268.5 631.5 c 128,-1,77
 323 655 323 655 385 655 c 256,58,59
EndSplineSet
Validated: 9
EndChar

StartChar: acute
Encoding: 180 180 97
Width: 333
GlyphClass: 1
Flags: W
LayerCount: 2
Fore
SplineSet
126 587 m 2,0,1
 141 587 141 587 159 588.5 c 128,-1,2
 177 590 177 590 188 600 c 0,3,4
 198 608 198 608 214.5 621.5 c 128,-1,5
 231 635 231 635 247.5 649.5 c 128,-1,6
 264 664 264 664 277.5 675.5 c 128,-1,7
 291 687 291 687 295 691 c 0,8,9
 307 702 307 702 311.5 707 c 128,-1,10
 316 712 316 712 316 717 c 256,11,12
 316 722 316 722 307 722.5 c 128,-1,13
 298 723 298 723 292 723 c 2,14,-1
 270 724 l 1,15,-1
 229 724 l 2,16,17
 205 724 205 724 190 723 c 128,-1,18
 175 722 175 722 164 716 c 128,-1,19
 153 710 153 710 143 697.5 c 128,-1,20
 133 685 133 685 119 661 c 2,21,-1
 97 626 l 2,22,23
 83 603 83 603 83 595 c 0,24,25
 83 589 83 589 88 588 c 128,-1,26
 93 587 93 587 103 587 c 2,27,-1
 126 587 l 2,0,1
EndSplineSet
Validated: 9
EndChar

StartChar: AE
Encoding: 198 198 104
Width: 1000
GlyphClass: 1
Flags: W
LayerCount: 2
Fore
SplineSet
619 579 m 1,0,-1
 845 579 l 2,1,2
 882 579 882 579 903.5 581 c 128,-1,3
 925 583 925 583 938 597 c 0,4,5
 959 620 959 620 959 648 c 0,6,7
 959 665 959 665 952 677.5 c 128,-1,8
 945 690 945 690 937 698 c 0,9,10
 923 712 923 712 903 714 c 128,-1,11
 883 716 883 716 845 716 c 2,12,-1
 403 716 l 2,13,14
 374 716 374 716 356 716 c 256,15,16
 338 716 338 716 326 714.5 c 128,-1,17
 314 713 314 713 306.5 710 c 128,-1,18
 299 707 299 707 291 701 c 0,19,20
 282 695 282 695 276.5 690 c 128,-1,21
 271 685 271 685 265.5 675.5 c 128,-1,22
 260 666 260 666 252.5 649.5 c 128,-1,23
 245 633 245 633 232 605 c 2,24,-1
 34 163 l 2,25,26
 26 144 26 144 20 130.5 c 128,-1,27
 14 117 14 117 10 106 c 128,-1,28
 6 95 6 95 4.5 85.5 c 128,-1,29
 3 76 3 76 3 66 c 0,30,31
 3 53 3 53 9 39.5 c 128,-1,32
 15 26 15 26 26.5 14.5 c 128,-1,33
 38 3 38 3 53.5 -4.5 c 128,-1,34
 69 -12 69 -12 88 -12 c 0,35,36
 110 -12 110 -12 125 -5.5 c 128,-1,37
 140 1 140 1 151 14.5 c 128,-1,38
 162 28 162 28 171 48 c 128,-1,39
 180 68 180 68 191 95 c 2,40,-1
 212 148 l 1,41,-1
 442 148 l 1,42,43
 442 106 442 106 443.5 82 c 128,-1,44
 445 58 445 58 456 43 c 0,45,46
 467 27 467 27 478.5 18 c 128,-1,47
 490 9 490 9 505.5 5 c 128,-1,48
 521 1 521 1 543 0.5 c 128,-1,49
 565 0 565 0 596 0 c 2,50,-1
 852 0 l 2,51,52
 890 0 890 0 912 2.5 c 128,-1,53
 934 5 934 5 948 19 c 0,54,55
 970 41 970 41 970 71 c 0,56,57
 970 89 970 89 963 102 c 128,-1,58
 956 115 956 115 948 123 c 0,59,60
 934 137 934 137 912 139.5 c 128,-1,61
 890 142 890 142 852 142 c 2,62,-1
 619 142 l 1,63,-1
 619 308 l 1,64,-1
 820 308 l 2,65,66
 856 308 856 308 876.5 310.5 c 128,-1,67
 897 313 897 313 911 327 c 0,68,69
 931 347 931 347 931 376 c 0,70,71
 931 393 931 393 924.5 405 c 128,-1,72
 918 417 918 417 910 425 c 0,73,74
 897 438 897 438 876.5 440 c 128,-1,75
 856 442 856 442 820 442 c 2,76,-1
 619 442 l 1,77,-1
 619 579 l 1,0,-1
391 589 m 1,78,-1
 443 589 l 1,79,-1
 443 292 l 1,80,-1
 269 292 l 1,81,-1
 391 589 l 1,78,-1
EndSplineSet
Validated: 9
EndChar

StartChar: Ccedilla
Encoding: 199 199 105
Width: 750
GlyphClass: 1
Flags: W
LayerCount: 2
Fore
SplineSet
402 -12 m 1,0,1
 440 -10 440 -10 469.5 -6 c 128,-1,2
 499 -2 499 -2 523.5 5.5 c 128,-1,3
 548 13 548 13 569 25.5 c 128,-1,4
 590 38 590 38 612 58 c 0,5,6
 650 91 650 91 674.5 137 c 128,-1,7
 699 183 699 183 699 230 c 0,8,9
 699 266 699 266 674 288 c 128,-1,10
 649 310 649 310 618 310 c 0,11,12
 597 310 597 310 583 302.5 c 128,-1,13
 569 295 569 295 560 284.5 c 128,-1,14
 551 274 551 274 546 263 c 128,-1,15
 541 252 541 252 538 244 c 0,16,17
 531 226 531 226 521 206 c 128,-1,18
 511 186 511 186 494.5 169 c 128,-1,19
 478 152 478 152 453 141 c 128,-1,20
 428 130 428 130 392 130 c 0,21,22
 357 130 357 130 326 143.5 c 128,-1,23
 295 157 295 157 275 182 c 0,24,25
 258 204 258 204 245.5 242 c 128,-1,26
 233 280 233 280 233 349 c 0,27,28
 233 360 233 360 233.5 382 c 128,-1,29
 234 404 234 404 238.5 430 c 128,-1,30
 243 456 243 456 253 483 c 128,-1,31
 263 510 263 510 281 532.5 c 128,-1,32
 299 555 299 555 326.5 569 c 128,-1,33
 354 583 354 583 394 583 c 0,34,35
 448 583 448 583 482 557 c 128,-1,36
 516 531 516 531 536 489 c 0,37,38
 541 477 541 477 547.5 465 c 128,-1,39
 554 453 554 453 563.5 443 c 128,-1,40
 573 433 573 433 586 427 c 128,-1,41
 599 421 599 421 619 421 c 0,42,43
 637 421 637 421 652 428.5 c 128,-1,44
 667 436 667 436 677 447.5 c 128,-1,45
 687 459 687 459 692.5 473.5 c 128,-1,46
 698 488 698 488 698 502 c 0,47,48
 698 530 698 530 682.5 569 c 128,-1,49
 667 608 667 608 631.5 643.5 c 128,-1,50
 596 679 596 679 537.5 703.5 c 128,-1,51
 479 728 479 728 393 728 c 0,52,53
 314 728 314 728 250.5 701.5 c 128,-1,54
 187 675 187 675 142 626.5 c 128,-1,55
 97 578 97 578 72.5 509 c 128,-1,56
 48 440 48 440 48 355 c 0,57,58
 48 325 48 325 51.5 291.5 c 128,-1,59
 55 258 55 258 65.5 223 c 128,-1,60
 76 188 76 188 94.5 153 c 128,-1,61
 113 118 113 118 142 86 c 0,62,63
 168 57 168 57 195 39 c 128,-1,64
 222 21 222 21 250.5 10.5 c 128,-1,65
 279 0 279 0 311 -4.5 c 128,-1,66
 343 -9 343 -9 379 -12 c 1,67,68
 366 -12 366 -12 355 -12.5 c 128,-1,69
 344 -13 344 -13 323 -17 c 0,70,71
 294 -22 294 -22 279 -29 c 128,-1,72
 264 -36 264 -36 264 -55 c 0,73,74
 264 -63 264 -63 269 -70 c 128,-1,75
 274 -77 274 -77 284 -77 c 0,76,77
 291 -77 291 -77 298 -75.5 c 128,-1,78
 305 -74 305 -74 307 -73 c 0,79,80
 320 -70 320 -70 331 -69 c 128,-1,81
 342 -68 342 -68 352 -68 c 0,82,83
 355 -68 355 -68 365 -68.5 c 128,-1,84
 375 -69 375 -69 385 -73 c 128,-1,85
 395 -77 395 -77 403 -84.5 c 128,-1,86
 411 -92 411 -92 411 -106 c 0,87,88
 411 -132 411 -132 384 -140.5 c 128,-1,89
 357 -149 357 -149 315 -149 c 0,90,91
 308 -149 308 -149 298 -149 c 0,92,93
 289 -149 289 -149 278 -147 c 0,94,95
 270 -145 270 -145 254.5 -143.5 c 128,-1,96
 239 -142 239 -142 231 -142 c 256,97,98
 223 -142 223 -142 214.5 -149.5 c 128,-1,99
 206 -157 206 -157 206 -171 c 0,100,101
 206 -187 206 -187 216 -193.5 c 128,-1,102
 226 -200 226 -200 243 -203 c 0,103,104
 269 -207 269 -207 294.5 -208.5 c 128,-1,105
 320 -210 320 -210 344 -210 c 0,106,107
 396 -210 396 -210 429 -199 c 128,-1,108
 462 -188 462 -188 481 -172.5 c 128,-1,109
 500 -157 500 -157 507.5 -138.5 c 128,-1,110
 515 -120 515 -120 515 -105 c 0,111,112
 515 -82 515 -82 503.5 -64 c 128,-1,113
 492 -46 492 -46 478 -36 c 0,114,115
 455 -22 455 -22 434.5 -18 c 128,-1,116
 414 -14 414 -14 402 -12 c 1,0,1
EndSplineSet
Validated: 9
EndChar

StartChar: Eth
Encoding: 208 208 114
Width: 750
GlyphClass: 1
Flags: W
LayerCount: 2
Fore
SplineSet
74 408 m 1,0,1
 60 408 60 408 48 407 c 128,-1,2
 36 406 36 406 25 401 c 0,3,4
 15 396 15 396 7.5 384.5 c 128,-1,5
 0 373 0 373 0 358 c 0,6,7
 0 339 0 339 8 328.5 c 128,-1,8
 16 318 16 318 28 313.5 c 128,-1,9
 40 309 40 309 52.5 308.5 c 128,-1,10
 65 308 65 308 74 308 c 1,11,-1
 74 139 l 2,12,13
 74 107 74 107 75.5 83 c 128,-1,14
 77 59 77 59 88 43 c 128,-1,15
 99 27 99 27 110.5 18 c 128,-1,16
 122 9 122 9 137.5 5 c 128,-1,17
 153 1 153 1 175 0.5 c 128,-1,18
 197 0 197 0 228 0 c 2,19,-1
 375 0 l 2,20,21
 436 0 436 0 493.5 15 c 128,-1,22
 551 30 551 30 589 63 c 0,23,24
 631 99 631 99 654 141 c 128,-1,25
 677 183 677 183 688.5 223.5 c 128,-1,26
 700 264 700 264 702 300 c 128,-1,27
 704 336 704 336 704 361 c 0,28,29
 704 455 704 455 675 532.5 c 128,-1,30
 646 610 646 610 578 661 c 0,31,32
 529 698 529 698 477 707 c 128,-1,33
 425 716 425 716 371 716 c 2,34,-1
 228 716 l 2,35,36
 199 716 199 716 179 715.5 c 128,-1,37
 159 715 159 715 145 712.5 c 128,-1,38
 131 710 131 710 121 704.5 c 128,-1,39
 111 699 111 699 101 689 c 0,40,41
 91 678 91 678 85.5 668.5 c 128,-1,42
 80 659 80 659 77.5 645.5 c 128,-1,43
 75 632 75 632 74.5 612.5 c 128,-1,44
 74 593 74 593 74 562 c 2,45,-1
 74 408 l 1,0,1
302 308 m 2,46,47
 331 308 331 308 346.5 309.5 c 128,-1,48
 362 311 362 311 372 321 c 0,49,50
 378 328 378 328 383 337 c 128,-1,51
 388 346 388 346 388 358 c 0,52,53
 388 380 388 380 372 394 c 0,54,55
 362 405 362 405 348 406.5 c 128,-1,56
 334 408 334 408 302 408 c 2,57,-1
 257 408 l 1,58,-1
 257 574 l 1,59,-1
 317 574 l 2,60,61
 356 574 356 574 392.5 570 c 128,-1,62
 429 566 429 566 457 545.5 c 128,-1,63
 485 525 485 525 502 481 c 128,-1,64
 519 437 519 437 519 356 c 0,65,66
 519 276 519 276 503 233 c 128,-1,67
 487 190 487 190 461 169.5 c 128,-1,68
 435 149 435 149 402.5 145.5 c 128,-1,69
 370 142 370 142 338 142 c 2,70,-1
 257 142 l 1,71,-1
 257 308 l 1,72,-1
 302 308 l 2,46,47
EndSplineSet
Validated: 9
EndChar

StartChar: multiply
Encoding: 215 215 121
Width: 625
GlyphClass: 1
Flags: W
LayerCount: 2
Fore
SplineSet
60 202 m 1,0,-1
 161 101 l 1,1,-1
 312 253 l 1,2,-1
 464 101 l 1,3,-1
 565 202 l 1,4,-1
 413 354 l 1,5,-1
 564 505 l 1,6,-1
 464 606 l 1,7,-1
 313 455 l 1,8,-1
 162 606 l 1,9,-1
 60 504 l 1,10,-1
 211 353 l 1,11,-1
 60 202 l 1,0,-1
EndSplineSet
Validated: 9
EndChar

StartChar: Oslash
Encoding: 216 216 122
Width: 802
GlyphClass: 1
Flags: W
LayerCount: 2
Fore
SplineSet
624 666 m 1,0,1
 616 671 616 671 605.5 678 c 128,-1,2
 595 685 595 685 578 693 c 0,3,4
 543 710 543 710 495 719 c 128,-1,5
 447 728 447 728 396 728 c 0,6,7
 309 728 309 728 242.5 700.5 c 128,-1,8
 176 673 176 673 131.5 624 c 128,-1,9
 87 575 87 575 64.5 507 c 128,-1,10
 42 439 42 439 42 358 c 0,11,12
 42 295 42 295 56 234 c 128,-1,13
 70 173 70 173 108 122 c 1,14,-1
 81 93 l 2,15,16
 59 72 59 72 50 60.5 c 128,-1,17
 41 49 41 49 41 33 c 0,18,19
 41 13 41 13 53.5 0 c 128,-1,20
 66 -13 66 -13 89 -13 c 0,21,22
 106 -13 106 -13 119.5 -4.5 c 128,-1,23
 133 4 133 4 156 27 c 2,24,-1
 179 50 l 1,25,26
 227 15 227 15 285.5 1.5 c 128,-1,27
 344 -12 344 -12 404 -12 c 0,28,29
 494 -12 494 -12 560.5 15.5 c 128,-1,30
 627 43 627 43 671.5 92.5 c 128,-1,31
 716 142 716 142 738 210.5 c 128,-1,32
 760 279 760 279 760 361 c 0,33,34
 760 406 760 406 755 440 c 128,-1,35
 750 474 750 474 741 501 c 128,-1,36
 732 528 732 528 720 550.5 c 128,-1,37
 708 573 708 573 694 594 c 1,38,-1
 722 622 l 2,39,40
 744 644 744 644 752.5 655.5 c 128,-1,41
 761 667 761 667 761 683 c 0,42,43
 761 703 761 703 748.5 716 c 128,-1,44
 736 729 736 729 713 729 c 0,45,46
 696 729 696 729 682.5 720.5 c 128,-1,47
 669 712 669 712 646 689 c 2,48,-1
 624 666 l 1,0,1
239 260 m 1,49,50
 236 271 236 271 231.5 295.5 c 128,-1,51
 227 320 227 320 227 358 c 0,52,53
 227 447 227 447 258 504 c 0,54,55
 273 532 273 532 293.5 548 c 128,-1,56
 314 564 314 564 334.5 571.5 c 128,-1,57
 355 579 355 579 372.5 581 c 128,-1,58
 390 583 390 583 401 583 c 0,59,60
 446 583 446 583 470.5 570 c 128,-1,61
 495 557 495 557 510 546 c 1,62,-1
 239 260 l 1,49,50
564 456 m 1,63,64
 569 436 569 436 572 417.5 c 128,-1,65
 575 399 575 399 575 363 c 0,66,67
 575 322 575 322 568.5 283.5 c 128,-1,68
 562 245 562 245 544 214 c 0,69,70
 523 177 523 177 485.5 155 c 128,-1,71
 448 133 448 133 400 133 c 0,72,73
 371 133 371 133 343.5 142 c 128,-1,74
 316 151 316 151 293 171 c 1,75,-1
 564 456 l 1,63,64
EndSplineSet
Validated: 9
EndChar

StartChar: Thorn
Encoding: 222 222 128
Width: 698
GlyphClass: 1
Flags: W
LayerCount: 2
Fore
SplineSet
75 141 m 2,0,1
 75 117 75 117 75 100 c 256,2,3
 75 83 75 83 76.5 70 c 128,-1,4
 78 57 78 57 81 47.5 c 128,-1,5
 84 38 84 38 89 30 c 0,6,7
 100 14 100 14 120 1 c 128,-1,8
 140 -12 140 -12 167 -12 c 0,9,10
 184 -12 184 -12 200.5 -5.5 c 128,-1,11
 217 1 217 1 231 15 c 0,12,13
 241 25 241 25 246.5 35 c 128,-1,14
 252 45 252 45 254.5 58 c 128,-1,15
 257 71 257 71 257.5 89.5 c 128,-1,16
 258 108 258 108 258 134 c 1,17,-1
 366 134 l 2,18,19
 382 134 382 134 404 134.5 c 128,-1,20
 426 135 426 135 450 138 c 128,-1,21
 474 141 474 141 498.5 147 c 128,-1,22
 523 153 523 153 544 164 c 0,23,24
 584 185 584 185 606 213.5 c 128,-1,25
 628 242 628 242 638.5 270.5 c 128,-1,26
 649 299 649 299 651 324 c 128,-1,27
 653 349 653 349 653 362 c 0,28,29
 653 429 653 429 633 467.5 c 128,-1,30
 613 506 613 506 588 528 c 0,31,32
 567 546 567 546 544.5 557 c 128,-1,33
 522 568 522 568 495.5 573.5 c 128,-1,34
 469 579 469 579 438 580.5 c 128,-1,35
 407 582 407 582 369 582 c 2,36,-1
 258 582 l 1,37,38
 258 620 258 620 256.5 644.5 c 128,-1,39
 255 669 255 669 244 685 c 0,40,41
 229 708 229 708 208 718 c 128,-1,42
 187 728 187 728 167 728 c 0,43,44
 129 728 129 728 102 701 c 0,45,46
 92 691 92 691 86.5 681 c 128,-1,47
 81 671 81 671 78.5 657.5 c 128,-1,48
 76 644 76 644 75.5 624 c 128,-1,49
 75 604 75 604 75 574 c 2,50,-1
 75 141 l 2,0,1
258 449 m 1,51,-1
 325 449 l 2,52,53
 374 449 374 449 395 446 c 128,-1,54
 416 443 416 443 428 435 c 0,55,56
 449 422 449 422 459.5 401.5 c 128,-1,57
 470 381 470 381 470 358 c 0,58,59
 470 330 470 330 456.5 311 c 128,-1,60
 443 292 443 292 423 281 c 0,61,62
 413 276 413 276 399.5 273 c 128,-1,63
 386 270 386 270 372.5 268.5 c 128,-1,64
 359 267 359 267 346 267 c 256,65,66
 333 267 333 267 325 267 c 2,67,-1
 258 267 l 1,68,-1
 258 449 l 1,51,-1
EndSplineSet
Validated: 9
EndChar

StartChar: germandbls
Encoding: 223 223 129
Width: 635
GlyphClass: 1
Flags: W
LayerCount: 2
Fore
SplineSet
60 124 m 2,0,1
 60 80 60 80 62.5 55 c 128,-1,2
 65 30 65 30 82 13 c 0,3,4
 94 1 94 1 110 -5.5 c 128,-1,5
 126 -12 126 -12 142 -12 c 0,6,7
 163 -12 163 -12 178.5 -3.5 c 128,-1,8
 194 5 194 5 202 14 c 0,9,10
 219 30 219 30 221.5 54.5 c 128,-1,11
 224 79 224 79 224 124 c 2,12,-1
 224 483 l 2,13,14
 224 503 224 503 225 525.5 c 128,-1,15
 226 548 226 548 232.5 567.5 c 128,-1,16
 239 587 239 587 253.5 599.5 c 128,-1,17
 268 612 268 612 294 612 c 256,18,19
 320 612 320 612 335 596.5 c 128,-1,20
 350 581 350 581 350 561 c 0,21,22
 350 555 350 555 349 548 c 128,-1,23
 348 541 348 541 345 531 c 128,-1,24
 342 521 342 521 336 507 c 128,-1,25
 330 493 330 493 320 473 c 0,26,27
 309 450 309 450 302.5 435 c 128,-1,28
 296 420 296 420 293 409.5 c 128,-1,29
 290 399 290 399 289.5 392 c 128,-1,30
 289 385 289 385 289 379 c 0,31,32
 289 347 289 347 320 311 c 128,-1,33
 351 275 351 275 396 231 c 0,34,35
 425 203 425 203 439 184.5 c 128,-1,36
 453 166 453 166 453 148 c 0,37,38
 453 129 453 129 440.5 116.5 c 128,-1,39
 428 104 428 104 410 104 c 0,40,41
 402 104 402 104 393 107 c 128,-1,42
 384 110 384 110 372 126 c 0,43,44
 353 150 353 150 341.5 156.5 c 128,-1,45
 330 163 330 163 316 163 c 0,46,47
 288 163 288 163 271 144 c 128,-1,48
 254 125 254 125 254 103 c 0,49,50
 254 85 254 85 266.5 64.5 c 128,-1,51
 279 44 279 44 302 27 c 128,-1,52
 325 10 325 10 356.5 -1 c 128,-1,53
 388 -12 388 -12 426 -12 c 0,54,55
 466 -12 466 -12 498.5 1 c 128,-1,56
 531 14 531 14 554 36.5 c 128,-1,57
 577 59 577 59 589 89 c 128,-1,58
 601 119 601 119 601 153 c 0,59,60
 601 183 601 183 592 209.5 c 128,-1,61
 583 236 583 236 569 259 c 128,-1,62
 555 282 555 282 537.5 301 c 128,-1,63
 520 320 520 320 504 334 c 0,64,65
 485 351 485 351 466.5 372 c 128,-1,66
 448 393 448 393 448 412 c 0,67,68
 448 420 448 420 450 426 c 128,-1,69
 452 432 452 432 454 436 c 2,70,-1
 481 485 l 2,71,72
 500 520 500 520 505.5 541.5 c 128,-1,73
 511 563 511 563 511 579 c 0,74,75
 511 601 511 601 502.5 627 c 128,-1,76
 494 653 494 653 470.5 675.5 c 128,-1,77
 447 698 447 698 406 713 c 128,-1,78
 365 728 365 728 300 728 c 0,79,80
 240 728 240 728 199 715 c 128,-1,81
 158 702 158 702 131 680.5 c 128,-1,82
 104 659 104 659 90 631 c 128,-1,83
 76 603 76 603 69 573 c 128,-1,84
 62 543 62 543 61 513.5 c 128,-1,85
 60 484 60 484 60 460 c 2,86,-1
 60 124 l 2,0,1
EndSplineSet
Validated: 9
EndChar

StartChar: ae
Encoding: 230 230 136
Width: 948
GlyphClass: 1
Flags: W
LayerCount: 2
Fore
SplineSet
754 215 m 2,0,1
 802 215 802 215 827 216.5 c 128,-1,2
 852 218 852 218 869 231 c 0,3,4
 883 242 883 242 891 253.5 c 128,-1,5
 899 265 899 265 902.5 276 c 128,-1,6
 906 287 906 287 906.5 297 c 128,-1,7
 907 307 907 307 907 314 c 0,8,9
 907 334 907 334 902 358 c 128,-1,10
 897 382 897 382 880 410 c 0,11,12
 862 438 862 438 841 460.5 c 128,-1,13
 820 483 820 483 791.5 498.5 c 128,-1,14
 763 514 763 514 725 522 c 128,-1,15
 687 530 687 530 636 530 c 0,16,17
 580 530 580 530 544 514.5 c 128,-1,18
 508 499 508 499 483 484 c 1,19,20
 474 490 474 490 460 498 c 128,-1,21
 446 506 446 506 424.5 513 c 128,-1,22
 403 520 403 520 372 525 c 128,-1,23
 341 530 341 530 298 530 c 0,24,25
 254 530 254 530 207.5 521.5 c 128,-1,26
 161 513 161 513 125 487 c 0,27,28
 92 463 92 463 77.5 431.5 c 128,-1,29
 63 400 63 400 63 374 c 0,30,31
 63 346 63 346 78.5 327.5 c 128,-1,32
 94 309 94 309 126 309 c 0,33,34
 144 309 144 309 156.5 314.5 c 128,-1,35
 169 320 169 320 177.5 327.5 c 128,-1,36
 186 335 186 335 190 342 c 128,-1,37
 194 349 194 349 196 353 c 0,38,39
 202 366 202 366 209.5 378 c 128,-1,40
 217 390 217 390 229.5 399 c 128,-1,41
 242 408 242 408 261 413.5 c 128,-1,42
 280 419 280 419 310 419 c 0,43,44
 332 419 332 419 350 413.5 c 128,-1,45
 368 408 368 408 376 400 c 0,46,47
 386 391 386 391 388 376 c 128,-1,48
 390 361 390 361 390 343 c 1,49,50
 376 335 376 335 364.5 331.5 c 128,-1,51
 353 328 353 328 346 326 c 0,52,53
 338 323 338 323 315.5 318.5 c 128,-1,54
 293 314 293 314 267.5 308.5 c 128,-1,55
 242 303 242 303 219 298.5 c 128,-1,56
 196 294 196 294 187 292 c 0,57,58
 172 288 172 288 147.5 280 c 128,-1,59
 123 272 123 272 99 255.5 c 128,-1,60
 75 239 75 239 58 211 c 128,-1,61
 41 183 41 183 41 140 c 0,62,63
 41 124 41 124 47 98.5 c 128,-1,64
 53 73 53 73 72.5 48.5 c 128,-1,65
 92 24 92 24 128.5 6 c 128,-1,66
 165 -12 165 -12 227 -12 c 0,67,68
 287 -12 287 -12 342.5 7.5 c 128,-1,69
 398 27 398 27 446 64 c 1,70,71
 463 47 463 47 482 33 c 128,-1,72
 501 19 501 19 526.5 9 c 128,-1,73
 552 -1 552 -1 587 -6.5 c 128,-1,74
 622 -12 622 -12 672 -12 c 0,75,76
 716 -12 716 -12 746.5 -7.5 c 128,-1,77
 777 -3 777 -3 798.5 4 c 128,-1,78
 820 11 820 11 834.5 19.5 c 128,-1,79
 849 28 849 28 861 37 c 0,80,81
 890 59 890 59 898.5 78 c 128,-1,82
 907 97 907 97 907 113 c 0,83,84
 907 128 907 128 900.5 139.5 c 128,-1,85
 894 151 894 151 884 159.5 c 128,-1,86
 874 168 874 168 861.5 172.5 c 128,-1,87
 849 177 849 177 837 177 c 0,88,89
 823 177 823 177 812.5 171.5 c 128,-1,90
 802 166 802 166 790 155 c 0,91,92
 779 145 779 145 767 135 c 128,-1,93
 755 125 755 125 740 116.5 c 128,-1,94
 725 108 725 108 706 103 c 128,-1,95
 687 98 687 98 663 98 c 0,96,97
 613 98 613 98 582.5 128 c 128,-1,98
 552 158 552 158 549 215 c 1,99,-1
 754 215 l 2,0,1
549 305 m 1,100,101
 549 327 549 327 555.5 347.5 c 128,-1,102
 562 368 562 368 575 384 c 128,-1,103
 588 400 588 400 606.5 409.5 c 128,-1,104
 625 419 625 419 649 419 c 0,105,106
 682 419 682 419 701.5 405 c 128,-1,107
 721 391 721 391 731.5 372 c 128,-1,108
 742 353 742 353 745 334 c 128,-1,109
 748 315 748 315 749 305 c 1,110,-1
 549 305 l 1,100,101
391 232 m 2,111,112
 391 187 391 187 385.5 169.5 c 128,-1,113
 380 152 380 152 375 143 c 0,114,115
 360 119 360 119 334.5 105.5 c 128,-1,116
 309 92 309 92 280 92 c 0,117,118
 259 92 259 92 245.5 98.5 c 128,-1,119
 232 105 232 105 224 114.5 c 128,-1,120
 216 124 216 124 213 134.5 c 128,-1,121
 210 145 210 145 210 153 c 0,122,123
 210 168 210 168 217 179 c 128,-1,124
 224 190 224 190 234.5 197.5 c 128,-1,125
 245 205 245 205 258.5 210.5 c 128,-1,126
 272 216 272 216 286 219 c 0,127,128
 311 225 311 225 326 228.5 c 128,-1,129
 341 232 341 232 351.5 235 c 128,-1,130
 362 238 362 238 370.5 240.5 c 128,-1,131
 379 243 379 243 391 248 c 1,132,-1
 391 232 l 2,111,112
EndSplineSet
Validated: 9
EndChar

StartChar: ccedilla
Encoding: 231 231 137
Width: 615
GlyphClass: 1
Flags: W
LayerCount: 2
Fore
SplineSet
302 -12 m 1,0,1
 283 -12 283 -12 249 -18 c 0,2,3
 228 -22 228 -22 215.5 -28 c 128,-1,4
 203 -34 203 -34 203 -50 c 0,5,6
 203 -60 203 -60 210.5 -66 c 128,-1,7
 218 -72 218 -72 228 -72 c 2,8,9
 228 -72 228 -72 237 -71 c 128,-1,10
 246 -70 246 -70 257 -69.5 c 128,-1,11
 268 -69 268 -69 279 -68 c 128,-1,12
 290 -67 290 -67 294 -67 c 0,13,14
 310 -67 310 -67 327.5 -76 c 128,-1,15
 345 -85 345 -85 345 -104 c 0,16,17
 345 -118 345 -118 336 -126.5 c 128,-1,18
 327 -135 327 -135 313 -139.5 c 128,-1,19
 299 -144 299 -144 281.5 -145.5 c 128,-1,20
 264 -147 264 -147 247 -147 c 0,21,22
 239 -147 239 -147 223 -146 c 128,-1,23
 207 -145 207 -145 191 -142 c 0,24,25
 189 -141 189 -141 183.5 -140 c 128,-1,26
 178 -139 178 -139 173 -139 c 0,27,28
 165 -139 165 -139 158.5 -145 c 128,-1,29
 152 -151 152 -151 152 -164 c 0,30,31
 152 -167 152 -167 154.5 -177 c 128,-1,32
 157 -187 157 -187 172 -192 c 0,33,34
 192 -199 192 -199 220.5 -201.5 c 128,-1,35
 249 -204 249 -204 267 -204 c 0,36,37
 279 -204 279 -204 298.5 -203 c 128,-1,38
 318 -202 318 -202 339 -198 c 128,-1,39
 360 -194 360 -194 380.5 -186 c 128,-1,40
 401 -178 401 -178 414 -165 c 0,41,42
 433 -146 433 -146 438 -130 c 128,-1,43
 443 -114 443 -114 443 -101 c 0,44,45
 443 -74 443 -74 429.5 -56.5 c 128,-1,46
 416 -39 416 -39 398 -29.5 c 128,-1,47
 380 -20 380 -20 362 -16 c 128,-1,48
 344 -12 344 -12 334 -12 c 1,49,50
 411 -9 411 -9 457.5 14.5 c 128,-1,51
 504 38 504 38 529 66.5 c 128,-1,52
 554 95 554 95 562 122 c 128,-1,53
 570 149 570 149 570 160 c 0,54,55
 570 191 570 191 551.5 208.5 c 128,-1,56
 533 226 533 226 506 226 c 0,57,58
 493 226 493 226 483 222.5 c 128,-1,59
 473 219 473 219 464 212 c 128,-1,60
 455 205 455 205 445.5 194 c 128,-1,61
 436 183 436 183 424 168 c 0,62,63
 408 148 408 148 385 130 c 128,-1,64
 362 112 362 112 324 112 c 0,65,66
 282 112 282 112 259 131.5 c 128,-1,67
 236 151 236 151 225.5 175.5 c 128,-1,68
 215 200 215 200 213 223 c 128,-1,69
 211 246 211 246 211 253 c 0,70,71
 211 293 211 293 220 322 c 128,-1,72
 229 351 229 351 244 370 c 128,-1,73
 259 389 259 389 279 397.5 c 128,-1,74
 299 406 299 406 321 406 c 0,75,76
 354 406 354 406 378.5 390 c 128,-1,77
 403 374 403 374 412 361 c 0,78,79
 434 330 434 330 448.5 316 c 128,-1,80
 463 302 463 302 488 302 c 0,81,82
 520 302 520 302 542 322.5 c 128,-1,83
 564 343 564 343 564 374 c 0,84,85
 564 393 564 393 556.5 410.5 c 128,-1,86
 549 428 549 428 538 442 c 128,-1,87
 527 456 527 456 514.5 467 c 128,-1,88
 502 478 502 478 492 485 c 0,89,90
 463 505 463 505 424 517.5 c 128,-1,91
 385 530 385 530 321 530 c 0,92,93
 279 530 279 530 247.5 524.5 c 128,-1,94
 216 519 216 519 192 509.5 c 128,-1,95
 168 500 168 500 151 487.5 c 128,-1,96
 134 475 134 475 120 462 c 0,97,98
 97 439 97 439 82 413 c 128,-1,99
 67 387 67 387 58 360.5 c 128,-1,100
 49 334 49 334 45.5 308 c 128,-1,101
 42 282 42 282 42 258 c 256,102,103
 42 234 42 234 45.5 207.5 c 128,-1,104
 49 181 49 181 58 153.5 c 128,-1,105
 67 126 67 126 83 99.5 c 128,-1,106
 99 73 99 73 124 50 c 0,107,108
 154 22 154 22 196 7.5 c 128,-1,109
 238 -7 238 -7 302 -12 c 1,0,1
EndSplineSet
Validated: 9
EndChar

StartChar: eth
Encoding: 240 240 146
Width: 635
GlyphClass: 1
Flags: W
LayerCount: 2
Fore
SplineSet
377 686 m 1,0,1
 361 698 361 698 349 706 c 128,-1,2
 337 714 337 714 325.5 719 c 128,-1,3
 314 724 314 724 302 726 c 128,-1,4
 290 728 290 728 274 728 c 0,5,6
 248 728 248 728 237 716.5 c 128,-1,7
 226 705 226 705 226 692 c 0,8,9
 226 676 226 676 235 665 c 128,-1,10
 244 654 244 654 261 639 c 1,11,-1
 194 612 l 2,12,13
 174 604 174 604 169.5 595 c 128,-1,14
 165 586 165 586 165 573 c 0,15,16
 165 561 165 561 173.5 552 c 128,-1,17
 182 543 182 543 191 543 c 0,18,19
 197 543 197 543 203 545 c 128,-1,20
 209 547 209 547 222 552 c 2,21,-1
 309 588 l 1,22,23
 331 562 331 562 349 532.5 c 128,-1,24
 367 503 367 503 376 486 c 1,25,26
 356 498 356 498 332 508 c 128,-1,27
 308 518 308 518 272 518 c 0,28,29
 227 518 227 518 184.5 500 c 128,-1,30
 142 482 142 482 109 448 c 128,-1,31
 76 414 76 414 56 366.5 c 128,-1,32
 36 319 36 319 36 259 c 0,33,34
 36 216 36 216 50 168 c 128,-1,35
 64 120 64 120 97 80 c 128,-1,36
 130 40 130 40 184.5 14 c 128,-1,37
 239 -12 239 -12 320 -12 c 0,38,39
 381 -12 381 -12 432.5 7.5 c 128,-1,40
 484 27 484 27 521 64 c 128,-1,41
 558 101 558 101 578.5 153 c 128,-1,42
 599 205 599 205 599 270 c 0,43,44
 599 379 599 379 554.5 468 c 128,-1,45
 510 557 510 557 430 638 c 1,46,-1
 456 649 l 2,47,48
 472 656 472 656 482 664.5 c 128,-1,49
 492 673 492 673 492 687 c 0,50,51
 492 699 492 699 482.5 706.5 c 128,-1,52
 473 714 473 714 461 714 c 0,53,54
 453 714 453 714 445.5 713 c 128,-1,55
 438 712 438 712 427 707 c 2,56,-1
 377 686 l 1,0,1
314 402 m 0,57,58
 336 402 336 402 357 394 c 128,-1,59
 378 386 378 386 394.5 368.5 c 128,-1,60
 411 351 411 351 420.5 324 c 128,-1,61
 430 297 430 297 430 259 c 0,62,63
 430 214 430 214 417.5 185 c 128,-1,64
 405 156 405 156 387.5 139.5 c 128,-1,65
 370 123 370 123 350.5 117 c 128,-1,66
 331 111 331 111 316 111 c 0,67,68
 269 111 269 111 237 148 c 128,-1,69
 205 185 205 185 205 251 c 0,70,71
 205 282 205 282 209 302.5 c 128,-1,72
 213 323 213 323 219.5 337 c 128,-1,73
 226 351 226 351 233.5 359.5 c 128,-1,74
 241 368 241 368 247 374 c 0,75,76
 265 392 265 392 284 397 c 128,-1,77
 303 402 303 402 314 402 c 0,57,58
EndSplineSet
Validated: 9
EndChar

StartChar: divide
Encoding: 247 247 153
Width: 625
GlyphClass: 1
Flags: W
LayerCount: 2
Fore
SplineSet
571 282 m 1,0,-1
 571 423 l 1,1,-1
 54 423 l 1,2,-1
 54 282 l 1,3,-1
 571 282 l 1,0,-1
229 477 m 1,4,-1
 395 477 l 1,5,-1
 395 636 l 1,6,-1
 229 636 l 1,7,-1
 229 477 l 1,4,-1
229 68 m 1,8,-1
 395 68 l 1,9,-1
 395 227 l 1,10,-1
 229 227 l 1,11,-1
 229 68 l 1,8,-1
EndSplineSet
Validated: 9
EndChar

StartChar: oslash
Encoding: 248 248 154
Width: 635
GlyphClass: 1
Flags: W
LayerCount: 2
Fore
SplineSet
160 27 m 1,0,1
 232 -12 232 -12 319 -12 c 0,2,3
 391 -12 391 -12 444 12 c 128,-1,4
 497 36 497 36 531.5 74.5 c 128,-1,5
 566 113 566 113 583 161.5 c 128,-1,6
 600 210 600 210 600 259 c 0,7,8
 600 311 600 311 583 359 c 128,-1,9
 566 407 566 407 532 446 c 1,10,-1
 551 467 l 2,11,12
 572 490 572 490 579.5 501.5 c 128,-1,13
 587 513 587 513 587 528 c 0,14,15
 587 536 587 536 578 545.5 c 128,-1,16
 569 555 569 555 555 555 c 0,17,18
 547 555 547 555 540 551.5 c 128,-1,19
 533 548 533 548 522 537 c 0,20,21
 519 535 519 535 513 528 c 128,-1,22
 507 521 507 521 500 513.5 c 128,-1,23
 493 506 493 506 487 499 c 128,-1,24
 481 492 481 492 478 489 c 1,25,26
 437 515 437 515 392.5 522.5 c 128,-1,27
 348 530 348 530 312 530 c 0,28,29
 246 530 246 530 194.5 508.5 c 128,-1,30
 143 487 143 487 107.5 450 c 128,-1,31
 72 413 72 413 53.5 363.5 c 128,-1,32
 35 314 35 314 35 258 c 0,33,34
 35 242 35 242 37 220 c 128,-1,35
 39 198 39 198 46.5 172.5 c 128,-1,36
 54 147 54 147 68 120.5 c 128,-1,37
 82 94 82 94 106 70 c 1,38,-1
 92 55 l 2,39,40
 88 50 88 50 80.5 42 c 128,-1,41
 73 34 73 34 66 24 c 128,-1,42
 59 14 59 14 53.5 4 c 128,-1,43
 48 -6 48 -6 48 -15 c 0,44,45
 48 -22 48 -22 57 -32 c 128,-1,46
 66 -42 66 -42 81 -42 c 0,47,48
 88 -42 88 -42 95.5 -39 c 128,-1,49
 103 -36 103 -36 115 -24 c 0,50,51
 120 -19 120 -19 130.5 -7.5 c 128,-1,52
 141 4 141 4 148 12 c 2,53,-1
 160 27 l 1,0,1
422 321 m 1,54,55
 425 309 425 309 427.5 296 c 128,-1,56
 430 283 430 283 430 258 c 0,57,58
 430 220 430 220 421 192.5 c 128,-1,59
 412 165 412 165 396.5 147 c 128,-1,60
 381 129 381 129 360.5 120.5 c 128,-1,61
 340 112 340 112 318 112 c 0,62,63
 293 112 293 112 278.5 118.5 c 128,-1,64
 264 125 264 125 254 132 c 1,65,-1
 422 321 l 1,54,55
214 192 m 1,66,67
 211 203 211 203 208 217 c 128,-1,68
 205 231 205 231 205 257 c 0,69,70
 205 330 205 330 236.5 368 c 128,-1,71
 268 406 268 406 318 406 c 0,72,73
 344 406 344 406 358.5 398.5 c 128,-1,74
 373 391 373 391 384 383 c 1,75,-1
 214 192 l 1,66,67
EndSplineSet
Validated: 9
EndChar

StartChar: thorn
Encoding: 254 254 160
Width: 635
GlyphClass: 1
Flags: W
LayerCount: 2
Fore
SplineSet
231 57 m 1,0,1
 240 48 240 48 252.5 36 c 128,-1,2
 265 24 265 24 283 13.5 c 128,-1,3
 301 3 301 3 325 -4.5 c 128,-1,4
 349 -12 349 -12 380 -12 c 0,5,6
 427 -12 427 -12 467 7 c 128,-1,7
 507 26 507 26 536.5 61.5 c 128,-1,8
 566 97 566 97 583 147 c 128,-1,9
 600 197 600 197 600 259 c 0,10,11
 600 325 600 325 582 376 c 128,-1,12
 564 427 564 427 534 461 c 128,-1,13
 504 495 504 495 464.5 512.5 c 128,-1,14
 425 530 425 530 382 530 c 0,15,16
 350 530 350 530 325 522 c 128,-1,17
 300 514 300 514 281.5 503 c 128,-1,18
 263 492 263 492 250.5 479.5 c 128,-1,19
 238 467 238 467 231 458 c 1,20,-1
 231 597 l 2,21,22
 231 640 231 640 228.5 663.5 c 128,-1,23
 226 687 226 687 211 704 c 0,24,25
 200 716 200 716 182 722 c 128,-1,26
 164 728 164 728 148 728 c 0,27,28
 128 728 128 728 109.5 720 c 128,-1,29
 91 712 91 712 82 703 c 0,30,31
 67 688 67 688 64.5 664 c 128,-1,32
 62 640 62 640 62 597 c 2,33,-1
 62 -69 l 2,34,35
 62 -114 62 -114 64.5 -140.5 c 128,-1,36
 67 -167 67 -167 84 -184 c 0,37,38
 97 -196 97 -196 113 -203 c 128,-1,39
 129 -210 129 -210 146 -210 c 0,40,41
 168 -210 168 -210 183.5 -201 c 128,-1,42
 199 -192 199 -192 208 -183 c 0,43,44
 225 -166 225 -166 228 -140.5 c 128,-1,45
 231 -115 231 -115 231 -69 c 2,46,-1
 231 57 l 1,0,1
332 403 m 0,47,48
 347 403 347 403 364.5 397 c 128,-1,49
 382 391 382 391 396.5 375.5 c 128,-1,50
 411 360 411 360 421 332 c 128,-1,51
 431 304 431 304 431 261 c 0,52,53
 431 216 431 216 421 187.5 c 128,-1,54
 411 159 411 159 396 143.5 c 128,-1,55
 381 128 381 128 364 122.5 c 128,-1,56
 347 117 347 117 333 117 c 0,57,58
 326 117 326 117 309 120 c 128,-1,59
 292 123 292 123 274 137.5 c 128,-1,60
 256 152 256 152 242.5 181 c 128,-1,61
 229 210 229 210 229 262 c 0,62,63
 229 305 229 305 239 332 c 128,-1,64
 249 359 249 359 264.5 375 c 128,-1,65
 280 391 280 391 298 397 c 128,-1,66
 316 403 316 403 332 403 c 0,47,48
EndSplineSet
Validated: 9
EndChar

StartChar: dotlessi
Encoding: 305 305 162
Width: 302
GlyphClass: 1
Flags: W
LayerCount: 2
Fore
SplineSet
236 390 m 2,0,1
 236 405 236 405 236 415 c 256,2,3
 236 425 236 425 236 432 c 0,4,5
 236 440 236 440 235 446.5 c 128,-1,6
 234 453 234 453 233 461 c 0,7,8
 229 483 229 483 218.5 497 c 128,-1,9
 208 511 208 511 195 518 c 128,-1,10
 182 525 182 525 170 527.5 c 128,-1,11
 158 530 158 530 151 530 c 0,12,13
 131 530 131 530 115.5 522 c 128,-1,14
 100 514 100 514 89 503 c 0,15,16
 81 495 81 495 76.5 484.5 c 128,-1,17
 72 474 72 474 70 460.5 c 128,-1,18
 68 447 68 447 67.5 429.5 c 128,-1,19
 67 412 67 412 67 390 c 2,20,-1
 67 128 l 2,21,22
 67 83 67 83 69.5 56.5 c 128,-1,23
 72 30 72 30 89 14 c 0,24,25
 102 1 102 1 118 -5.5 c 128,-1,26
 134 -12 134 -12 151 -12 c 0,27,28
 173 -12 173 -12 188.5 -3.5 c 128,-1,29
 204 5 204 5 213 14 c 0,30,31
 230 31 230 31 233 56.5 c 128,-1,32
 236 82 236 82 236 128 c 2,33,-1
 236 390 l 2,0,1
EndSplineSet
Validated: 9
EndChar

StartChar: circumflex
Encoding: 710 710 163
Width: 333
GlyphClass: 1
Flags: W
LayerCount: 2
Fore
SplineSet
266 692 m 2,0,1
 258 701 258 701 248.5 711.5 c 128,-1,2
 239 722 239 722 232 724 c 0,3,4
 226 727 226 727 218.5 727.5 c 128,-1,5
 211 728 211 728 186 728 c 2,6,-1
 145 728 l 2,7,8
 131 728 131 728 123 728 c 0,9,10
 116 728 116 728 111.5 727.5 c 128,-1,11
 107 727 107 727 104.5 726 c 128,-1,12
 102 725 102 725 99 724 c 0,13,14
 92 721 92 721 87 716 c 128,-1,15
 82 711 82 711 65 691 c 2,16,-1
 0 615 l 2,17,18
 -3 611 -3 611 -8.5 603.5 c 128,-1,19
 -14 596 -14 596 -14 592 c 0,20,21
 -14 587 -14 587 -9 586.5 c 128,-1,22
 -4 586 -4 586 8 586 c 2,23,-1
 39 586 l 2,24,25
 49 586 49 586 62 586.5 c 128,-1,26
 75 587 75 587 81 590 c 0,27,28
 86 592 86 592 91.5 597.5 c 128,-1,29
 97 603 97 603 115 623 c 2,30,-1
 166 680 l 1,31,-1
 218 623 l 2,32,33
 221 620 221 620 230.5 609 c 128,-1,34
 240 598 240 598 244 595 c 0,35,36
 252 588 252 588 261.5 587 c 128,-1,37
 271 586 271 586 294 586 c 2,38,-1
 324 586 l 2,39,40
 340 586 340 586 343.5 587 c 128,-1,41
 347 588 347 588 347 593 c 0,42,43
 347 596 347 596 345.5 599.5 c 128,-1,44
 344 603 344 603 333 615 c 2,45,-1
 266 692 l 2,0,1
EndSplineSet
Validated: 9
EndChar

StartChar: ring
Encoding: 730 730 164
Width: 333
GlyphClass: 1
Flags: W
LayerCount: 2
Fore
SplineSet
167 777 m 256,0,1
 145 777 145 777 125.5 769 c 128,-1,2
 106 761 106 761 91.5 746.5 c 128,-1,3
 77 732 77 732 68.5 712.5 c 128,-1,4
 60 693 60 693 60 671 c 0,5,6
 60 648 60 648 68.5 628.5 c 128,-1,7
 77 609 77 609 91.5 595 c 128,-1,8
 106 581 106 581 125.5 572.5 c 128,-1,9
 145 564 145 564 167 564 c 256,10,11
 189 564 189 564 208 572.5 c 128,-1,12
 227 581 227 581 241.5 595.5 c 128,-1,13
 256 610 256 610 264.5 629.5 c 128,-1,14
 273 649 273 649 273 671 c 256,15,16
 273 693 273 693 264.5 712.5 c 128,-1,17
 256 732 256 732 241.5 746 c 128,-1,18
 227 760 227 760 208 768.5 c 128,-1,19
 189 777 189 777 167 777 c 256,0,1
213 671 m 0,20,21
 213 651 213 651 199.5 637.5 c 128,-1,22
 186 624 186 624 167 624 c 0,23,24
 147 624 147 624 133.5 637.5 c 128,-1,25
 120 651 120 651 120 671 c 0,26,27
 120 690 120 690 133.5 703.5 c 128,-1,28
 147 717 147 717 167 717 c 0,29,30
 186 717 186 717 199.5 703.5 c 128,-1,31
 213 690 213 690 213 671 c 0,20,21
EndSplineSet
Validated: 9
EndChar

StartChar: tilde
Encoding: 732 732 165
Width: 333
GlyphClass: 1
Flags: W
LayerCount: 2
Fore
SplineSet
346 704 m 0,0,1
 346 718 346 718 337.5 729 c 128,-1,2
 329 740 329 740 315 740 c 0,3,4
 305 740 305 740 296.5 732 c 128,-1,5
 288 724 288 724 286 710 c 0,6,7
 283 691 283 691 275.5 678 c 128,-1,8
 268 665 268 665 247 665 c 0,9,10
 233 665 233 665 222.5 669 c 128,-1,11
 212 673 212 673 194 681 c 0,12,13
 170 693 170 693 153.5 701 c 128,-1,14
 137 709 137 709 124.5 713.5 c 128,-1,15
 112 718 112 718 102 720 c 128,-1,16
 92 722 92 722 81 722 c 0,17,18
 58 722 58 722 40.5 711 c 128,-1,19
 23 700 23 700 11 683.5 c 128,-1,20
 -1 667 -1 667 -7 646 c 128,-1,21
 -13 625 -13 625 -13 606 c 0,22,23
 -13 593 -13 593 -9.5 585.5 c 128,-1,24
 -6 578 -6 578 -1 573.5 c 128,-1,25
 4 569 4 569 9 567.5 c 128,-1,26
 14 566 14 566 18 566 c 0,27,28
 26 566 26 566 34.5 573 c 128,-1,29
 43 580 43 580 46 593 c 0,30,31
 47 597 47 597 49 604.5 c 128,-1,32
 51 612 51 612 55.5 619.5 c 128,-1,33
 60 627 60 627 67 633 c 128,-1,34
 74 639 74 639 85 639 c 0,35,36
 89 639 89 639 96.5 637 c 128,-1,37
 104 635 104 635 112 632 c 128,-1,38
 120 629 120 629 126.5 626.5 c 128,-1,39
 133 624 133 624 136 623 c 0,40,41
 166 609 166 609 184.5 601 c 128,-1,42
 203 593 203 593 215 588.5 c 128,-1,43
 227 584 227 584 235.5 583 c 128,-1,44
 244 582 244 582 255 582 c 0,45,46
 277 582 277 582 294.5 593.5 c 128,-1,47
 312 605 312 605 323 622.5 c 128,-1,48
 334 640 334 640 340 661.5 c 128,-1,49
 346 683 346 683 346 704 c 0,0,1
EndSplineSet
Validated: 9
EndChar

